<ttFont>
    <TTGlyph name="A" xMin="-27" yMin="0" xMax="741" yMax="820">
      <contour>
        <pt x="187" y="0" on="1"/>
        <pt x="-27" y="0" on="1"/>
        <pt x="-27" y="21" on="1"/>
        <pt x="71" y="61" on="1"/>
        <pt x="360" y="820" on="1"/>
        <pt x="376" y="820" on="1"/>
        <pt x="649" y="36" on="1"/>
        <pt x="741" y="21" on="1"/>
        <pt x="741" y="0" on="1"/>
        <pt x="447" y="0" on="1"/>
        <pt x="447" y="21" on="1"/>
        <pt x="529" y="34" on="1"/>
        <pt x="444" y="271" on="1"/>
        <pt x="178" y="271" on="1"/>
        <pt x="97" y="61" on="1"/>
        <pt x="187" y="21" on="1"/>
      </contour>
      <contour>
        <pt x="186" y="292" on="1"/>
        <pt x="437" y="292" on="1"/>
        <pt x="317" y="644" on="1"/>
      </contour>
    </TTGlyph>
    <TTGlyph name="AE" xMin="-38" yMin="0" xMax="1060" yMax="800">
      <contour>
        <pt x="858" y="560" on="1"/>
        <pt x="858" y="244" on="1"/>
        <pt x="831" y="244" on="1"/>
        <pt x="772" y="391" on="1"/>
        <pt x="652" y="391" on="1"/>
        <pt x="652" y="24" on="1"/>
        <pt x="951" y="24" on="1"/>
        <pt x="1033" y="244" on="1"/>
        <pt x="1060" y="244" on="1"/>
        <pt x="1060" y="0" on="1"/>
        <pt x="543" y="0" on="1"/>
        <pt x="543" y="309" on="1"/>
        <pt x="251" y="309" on="1"/>
        <pt x="87" y="60" on="1"/>
        <pt x="176" y="21" on="1"/>
        <pt x="176" y="0" on="1"/>
        <pt x="-38" y="0" on="1"/>
        <pt x="-38" y="21" on="1"/>
        <pt x="57" y="60" on="1"/>
        <pt x="519" y="764" on="1"/>
        <pt x="434" y="778" on="1"/>
        <pt x="434" y="800" on="1"/>
        <pt x="1037" y="800" on="1"/>
        <pt x="1037" y="571" on="1"/>
        <pt x="1010" y="571" on="1"/>
        <pt x="933" y="775" on="1"/>
        <pt x="652" y="775" on="1"/>
        <pt x="652" y="415" on="1"/>
        <pt x="772" y="415" on="1"/>
        <pt x="831" y="560" on="1"/>
      </contour>
      <contour>
        <pt x="543" y="330" on="1"/>
        <pt x="543" y="751" on="1"/>
        <pt x="265" y="330" on="1"/>
      </contour>
    </TTGlyph>
    <TTGlyph name="Aacute" xMin="-27" yMin="0" xMax="741" yMax="992">
      <component glyphName="A" x="0" y="0" flags="0x204"/>
      <component glyphName="acute.case" x="295" y="39" flags="0x4"/>
    </TTGlyph>
    <TTGlyph name="Acircumflex" xMin="-27" yMin="0" xMax="741" yMax="977">
      <component glyphName="A" x="0" y="0" flags="0x204"/>
      <component glyphName="circumflex.case" x="181" y="13" flags="0x4"/>
    </TTGlyph>
    <TTGlyph name="Adieresis" xMin="-27" yMin="0" xMax="741" yMax="976">
      <component glyphName="A" x="0" y="0" flags="0x204"/>
      <component glyphName="dieresis.case" x="185" y="25" flags="0x4"/>
    </TTGlyph>
    <TTGlyph name="Agrave" xMin="-27" yMin="0" xMax="741" yMax="992">
      <component glyphName="A" x="0" y="0" flags="0x204"/>
      <component glyphName="grave.case" x="158" y="39" flags="0x4"/>
    </TTGlyph>
    <TTGlyph name="Aring" xMin="-27" yMin="0" xMax="741" yMax="978">
      <contour>
        <pt x="369" y="978" on="1"/>
        <pt x="409" y="978" on="0"/>
        <pt x="464" y="922" on="0"/>
        <pt x="464" y="844" on="0"/>
        <pt x="436" y="816" on="1"/>
        <pt x="415" y="794" on="0"/>
        <pt x="386" y="789" on="1"/>
        <pt x="649" y="36" on="1"/>
        <pt x="741" y="21" on="1"/>
        <pt x="741" y="0" on="1"/>
        <pt x="447" y="0" on="1"/>
        <pt x="447" y="21" on="1"/>
        <pt x="529" y="34" on="1"/>
        <pt x="444" y="271" on="1"/>
        <pt x="178" y="271" on="1"/>
        <pt x="97" y="61" on="1"/>
        <pt x="187" y="21" on="1"/>
        <pt x="187" y="0" on="1"/>
        <pt x="-27" y="0" on="1"/>
        <pt x="-27" y="21" on="1"/>
        <pt x="71" y="61" on="1"/>
        <pt x="348" y="790" on="1"/>
        <pt x="322" y="795" on="0"/>
        <pt x="302" y="816" on="1"/>
        <pt x="275" y="844" on="0"/>
        <pt x="275" y="922" on="0"/>
        <pt x="330" y="978" on="0"/>
      </contour>
      <contour>
        <pt x="317" y="644" on="1"/>
        <pt x="186" y="292" on="1"/>
        <pt x="437" y="292" on="1"/>
      </contour>
      <contour>
        <pt x="325" y="926" on="1"/>
        <pt x="307" y="908" on="0"/>
        <pt x="307" y="858" on="0"/>
        <pt x="344" y="821" on="0"/>
        <pt x="394" y="821" on="0"/>
        <pt x="432" y="858" on="0"/>
        <pt x="432" y="908" on="0"/>
        <pt x="394" y="945" on="0"/>
        <pt x="344" y="945" on="0"/>
      </contour>
    </TTGlyph>
    <TTGlyph name="Atilde" xMin="-27" yMin="0" xMax="741" yMax="977">
      <component glyphName="A" x="0" y="0" flags="0x204"/>
      <component glyphName="tilde.case" x="160" y="20" flags="0x4"/>
    </TTGlyph>
    <TTGlyph name="B" xMin="38" yMin="0" xMax="689" yMax="800">
      <contour>
        <pt x="689" y="216" on="1"/>
        <pt x="689" y="158" on="0"/>
        <pt x="644" y="76" on="0"/>
        <pt x="565" y="24" on="0"/>
        <pt x="455" y="0" on="0"/>
        <pt x="391" y="0" on="1"/>
        <pt x="38" y="0" on="1"/>
        <pt x="38" y="21" on="1"/>
        <pt x="130" y="36" on="1"/>
        <pt x="130" y="764" on="1"/>
        <pt x="38" y="778" on="1"/>
        <pt x="38" y="800" on="1"/>
        <pt x="343" y="800" on="1"/>
        <pt x="424" y="800" on="0"/>
        <pt x="536" y="778" on="0"/>
        <pt x="606" y="732" on="0"/>
        <pt x="637" y="661" on="0"/>
        <pt x="637" y="613" on="1"/>
        <pt x="637" y="541" on="0"/>
        <pt x="549" y="449" on="0"/>
        <pt x="455" y="429" on="1"/>
        <pt x="455" y="424" on="1"/>
        <pt x="508" y="417" on="0"/>
        <pt x="595" y="386" on="0"/>
        <pt x="656" y="335" on="0"/>
        <pt x="689" y="263" on="0"/>
      </contour>
      <contour>
        <pt x="240" y="407" on="1"/>
        <pt x="240" y="24" on="1"/>
        <pt x="391" y="24" on="1"/>
        <pt x="476" y="24" on="0"/>
        <pt x="570" y="121" on="0"/>
        <pt x="570" y="215" on="1"/>
        <pt x="570" y="226" on="1"/>
        <pt x="570" y="319" on="0"/>
        <pt x="475" y="407" on="0"/>
        <pt x="391" y="407" on="1"/>
      </contour>
      <contour>
        <pt x="240" y="775" on="1"/>
        <pt x="240" y="432" on="1"/>
        <pt x="351" y="432" on="1"/>
        <pt x="431" y="432" on="0"/>
        <pt x="517" y="521" on="0"/>
        <pt x="517" y="605" on="1"/>
        <pt x="517" y="611" on="1"/>
        <pt x="517" y="698" on="0"/>
        <pt x="427" y="775" on="0"/>
        <pt x="343" y="775" on="1"/>
      </contour>
    </TTGlyph>
    <TTGlyph name="C" xMin="52" yMin="-20" xMax="680" yMax="820">
      <contour>
        <pt x="675" y="820" on="1"/>
        <pt x="675" y="572" on="1"/>
        <pt x="654" y="572" on="1"/>
        <pt x="592" y="727" on="1"/>
        <pt x="557" y="759" on="0"/>
        <pt x="465" y="797" on="0"/>
        <pt x="419" y="797" on="1"/>
        <pt x="367" y="797" on="0"/>
        <pt x="280" y="756" on="0"/>
        <pt x="217" y="678" on="0"/>
        <pt x="182" y="565" on="0"/>
        <pt x="182" y="492" on="1"/>
        <pt x="182" y="309" on="1"/>
        <pt x="182" y="236" on="0"/>
        <pt x="215" y="122" on="0"/>
        <pt x="276" y="44" on="0"/>
        <pt x="362" y="3" on="0"/>
        <pt x="414" y="3" on="1"/>
        <pt x="465" y="3" on="0"/>
        <pt x="567" y="48" on="0"/>
        <pt x="601" y="86" on="1"/>
        <pt x="659" y="247" on="1"/>
        <pt x="680" y="247" on="1"/>
        <pt x="680" y="-10" on="1"/>
        <pt x="659" y="-10" on="1"/>
        <pt x="587" y="41" on="1"/>
        <pt x="551" y="12" on="0"/>
        <pt x="459" y="-20" on="0"/>
        <pt x="414" y="-20" on="1"/>
        <pt x="331" y="-20" on="0"/>
        <pt x="197" y="41" on="0"/>
        <pt x="103" y="152" on="0"/>
        <pt x="52" y="307" on="0"/>
        <pt x="52" y="400" on="1"/>
        <pt x="52" y="494" on="0"/>
        <pt x="105" y="648" on="0"/>
        <pt x="201" y="759" on="0"/>
        <pt x="336" y="820" on="0"/>
        <pt x="419" y="820" on="1"/>
        <pt x="463" y="820" on="0"/>
        <pt x="551" y="789" on="0"/>
        <pt x="587" y="763" on="1"/>
        <pt x="654" y="820" on="1"/>
      </contour>
    </TTGlyph>
    <TTGlyph name="Ccedilla" xMin="52" yMin="-242" xMax="680" yMax="820">
      <contour>
        <pt x="675" y="820" on="1"/>
        <pt x="675" y="572" on="1"/>
        <pt x="654" y="572" on="1"/>
        <pt x="592" y="727" on="1"/>
        <pt x="557" y="759" on="0"/>
        <pt x="465" y="797" on="0"/>
        <pt x="419" y="797" on="1"/>
        <pt x="367" y="797" on="0"/>
        <pt x="280" y="756" on="0"/>
        <pt x="217" y="678" on="0"/>
        <pt x="182" y="565" on="0"/>
        <pt x="182" y="492" on="1"/>
        <pt x="182" y="309" on="1"/>
        <pt x="182" y="236" on="0"/>
        <pt x="215" y="122" on="0"/>
        <pt x="276" y="44" on="0"/>
        <pt x="362" y="3" on="0"/>
        <pt x="414" y="3" on="1"/>
        <pt x="465" y="3" on="0"/>
        <pt x="567" y="48" on="0"/>
        <pt x="601" y="86" on="1"/>
        <pt x="659" y="247" on="1"/>
        <pt x="680" y="247" on="1"/>
        <pt x="680" y="-10" on="1"/>
        <pt x="659" y="-10" on="1"/>
        <pt x="587" y="41" on="1"/>
        <pt x="551" y="12" on="0"/>
        <pt x="459" y="-20" on="0"/>
        <pt x="414" y="-20" on="1"/>
        <pt x="407" y="-20" on="1"/>
        <pt x="399" y="-54" on="1"/>
        <pt x="452" y="-56" on="0"/>
        <pt x="521" y="-99" on="0"/>
        <pt x="521" y="-146" on="1"/>
        <pt x="521" y="-172" on="0"/>
        <pt x="499" y="-208" on="0"/>
        <pt x="464" y="-231" on="0"/>
        <pt x="419" y="-242" on="0"/>
        <pt x="395" y="-242" on="1"/>
        <pt x="354" y="-242" on="0"/>
        <pt x="323" y="-233" on="1"/>
        <pt x="329" y="-211" on="1"/>
        <pt x="341" y="-214" on="0"/>
        <pt x="357" y="-214" on="1"/>
        <pt x="372" y="-214" on="0"/>
        <pt x="400" y="-207" on="0"/>
        <pt x="422" y="-191" on="0"/>
        <pt x="436" y="-166" on="0"/>
        <pt x="436" y="-147" on="1"/>
        <pt x="436" y="-121" on="0"/>
        <pt x="402" y="-83" on="0"/>
        <pt x="364" y="-79" on="1"/>
        <pt x="380" y="-18" on="1"/>
        <pt x="305" y="-12" on="0"/>
        <pt x="183" y="54" on="0"/>
        <pt x="98" y="163" on="0"/>
        <pt x="52" y="311" on="0"/>
        <pt x="52" y="400" on="1"/>
        <pt x="52" y="494" on="0"/>
        <pt x="105" y="648" on="0"/>
        <pt x="201" y="759" on="0"/>
        <pt x="336" y="820" on="0"/>
        <pt x="419" y="820" on="1"/>
        <pt x="463" y="820" on="0"/>
        <pt x="551" y="789" on="0"/>
        <pt x="587" y="763" on="1"/>
        <pt x="654" y="820" on="1"/>
      </contour>
    </TTGlyph>
    <TTGlyph name="D" xMin="38" yMin="0" xMax="798" yMax="800">
      <contour>
        <pt x="421" y="800" on="1"/>
        <pt x="503" y="800" on="0"/>
        <pt x="642" y="744" on="0"/>
        <pt x="742" y="639" on="0"/>
        <pt x="798" y="491" on="0"/>
        <pt x="798" y="400" on="1"/>
        <pt x="798" y="309" on="0"/>
        <pt x="742" y="161" on="0"/>
        <pt x="642" y="57" on="0"/>
        <pt x="503" y="0" on="0"/>
        <pt x="421" y="0" on="1"/>
        <pt x="38" y="0" on="1"/>
        <pt x="38" y="21" on="1"/>
        <pt x="130" y="36" on="1"/>
        <pt x="130" y="764" on="1"/>
        <pt x="38" y="778" on="1"/>
        <pt x="38" y="800" on="1"/>
        <pt x="240" y="800" on="1"/>
      </contour>
      <contour>
        <pt x="240" y="775" on="1"/>
        <pt x="240" y="24" on="1"/>
        <pt x="421" y="24" on="1"/>
        <pt x="475" y="24" on="0"/>
        <pt x="566" y="62" on="0"/>
        <pt x="633" y="137" on="0"/>
        <pt x="671" y="249" on="0"/>
        <pt x="671" y="323" on="1"/>
        <pt x="671" y="477" on="1"/>
        <pt x="671" y="551" on="0"/>
        <pt x="633" y="663" on="0"/>
        <pt x="566" y="738" on="0"/>
        <pt x="475" y="775" on="0"/>
        <pt x="421" y="775" on="1"/>
      </contour>
    </TTGlyph>
    <TTGlyph name="E" xMin="38" yMin="0" xMax="662" yMax="800">
      <contour>
        <pt x="455" y="560" on="1"/>
        <pt x="455" y="244" on="1"/>
        <pt x="429" y="244" on="1"/>
        <pt x="369" y="391" on="1"/>
        <pt x="240" y="391" on="1"/>
        <pt x="240" y="24" on="1"/>
        <pt x="554" y="24" on="1"/>
        <pt x="636" y="244" on="1"/>
        <pt x="662" y="244" on="1"/>
        <pt x="662" y="0" on="1"/>
        <pt x="38" y="0" on="1"/>
        <pt x="38" y="21" on="1"/>
        <pt x="130" y="36" on="1"/>
        <pt x="130" y="764" on="1"/>
        <pt x="38" y="778" on="1"/>
        <pt x="38" y="800" on="1"/>
        <pt x="640" y="800" on="1"/>
        <pt x="640" y="571" on="1"/>
        <pt x="613" y="571" on="1"/>
        <pt x="536" y="775" on="1"/>
        <pt x="240" y="775" on="1"/>
        <pt x="240" y="415" on="1"/>
        <pt x="370" y="415" on="1"/>
        <pt x="429" y="560" on="1"/>
      </contour>
    </TTGlyph>
    <TTGlyph name="Eacute" xMin="42" yMin="0" xMax="666" yMax="992">
      <component glyphName="E" x="4" y="0" flags="0x4"/>
      <component glyphName="acute.case" x="315" y="39" flags="0x4"/>
    </TTGlyph>
    <TTGlyph name="Ecircumflex" xMin="42" yMin="0" xMax="666" yMax="977">
      <component glyphName="E" x="4" y="0" flags="0x4"/>
      <component glyphName="circumflex.case" x="195" y="13" flags="0x4"/>
    </TTGlyph>
    <TTGlyph name="Edieresis" xMin="42" yMin="0" xMax="666" yMax="976">
      <component glyphName="E" x="4" y="0" flags="0x4"/>
      <component glyphName="dieresis.case" x="234" y="25" flags="0x4"/>
    </TTGlyph>
    <TTGlyph name="Egrave" xMin="42" yMin="0" xMax="666" yMax="993">
      <component glyphName="E" x="4" y="0" flags="0x4"/>
      <component glyphName="grave.case" x="207" y="40" flags="0x4"/>
    </TTGlyph>
    <TTGlyph name="Eth" xMin="38" yMin="0" xMax="798" yMax="800">
      <contour>
        <pt x="54" y="408" on="1"/>
        <pt x="130" y="408" on="1"/>
        <pt x="130" y="764" on="1"/>
        <pt x="38" y="778" on="1"/>
        <pt x="38" y="800" on="1"/>
        <pt x="421" y="800" on="1"/>
        <pt x="503" y="800" on="0"/>
        <pt x="642" y="744" on="0"/>
        <pt x="742" y="639" on="0"/>
        <pt x="798" y="491" on="0"/>
        <pt x="798" y="400" on="1"/>
        <pt x="798" y="309" on="0"/>
        <pt x="742" y="161" on="0"/>
        <pt x="642" y="57" on="0"/>
        <pt x="503" y="0" on="0"/>
        <pt x="421" y="0" on="1"/>
        <pt x="38" y="0" on="1"/>
        <pt x="38" y="21" on="1"/>
        <pt x="130" y="36" on="1"/>
        <pt x="130" y="375" on="1"/>
        <pt x="54" y="375" on="1"/>
      </contour>
      <contour>
        <pt x="240" y="775" on="1"/>
        <pt x="240" y="408" on="1"/>
        <pt x="424" y="408" on="1"/>
        <pt x="424" y="375" on="1"/>
        <pt x="240" y="375" on="1"/>
        <pt x="240" y="24" on="1"/>
        <pt x="425" y="24" on="1"/>
        <pt x="478" y="25" on="0"/>
        <pt x="568" y="63" on="0"/>
        <pt x="634" y="138" on="0"/>
        <pt x="671" y="249" on="0"/>
        <pt x="671" y="323" on="1"/>
        <pt x="671" y="477" on="1"/>
        <pt x="671" y="551" on="0"/>
        <pt x="633" y="663" on="0"/>
        <pt x="566" y="738" on="0"/>
        <pt x="475" y="775" on="0"/>
        <pt x="421" y="775" on="1"/>
      </contour>
    </TTGlyph>
    <TTGlyph name="Euro" xMin="35" yMin="-20" xMax="735" yMax="820">
      <contour>
        <pt x="730" y="820" on="1"/>
        <pt x="730" y="572" on="1"/>
        <pt x="709" y="572" on="1"/>
        <pt x="647" y="727" on="1"/>
        <pt x="612" y="759" on="0"/>
        <pt x="520" y="797" on="0"/>
        <pt x="474" y="797" on="1"/>
        <pt x="422" y="797" on="0"/>
        <pt x="335" y="756" on="0"/>
        <pt x="272" y="678" on="0"/>
        <pt x="237" y="565" on="0"/>
        <pt x="237" y="492" on="1"/>
        <pt x="237" y="469" on="1"/>
        <pt x="504" y="469" on="1"/>
        <pt x="489" y="431" on="1"/>
        <pt x="237" y="431" on="1"/>
        <pt x="237" y="352" on="1"/>
        <pt x="458" y="352" on="1"/>
        <pt x="443" y="314" on="1"/>
        <pt x="237" y="314" on="1"/>
        <pt x="237" y="309" on="1"/>
        <pt x="237" y="236" on="0"/>
        <pt x="270" y="122" on="0"/>
        <pt x="331" y="44" on="0"/>
        <pt x="417" y="3" on="0"/>
        <pt x="469" y="3" on="1"/>
        <pt x="520" y="3" on="0"/>
        <pt x="622" y="48" on="0"/>
        <pt x="656" y="86" on="1"/>
        <pt x="714" y="247" on="1"/>
        <pt x="735" y="247" on="1"/>
        <pt x="735" y="-10" on="1"/>
        <pt x="714" y="-10" on="1"/>
        <pt x="642" y="41" on="1"/>
        <pt x="606" y="12" on="0"/>
        <pt x="514" y="-20" on="0"/>
        <pt x="469" y="-20" on="1"/>
        <pt x="396" y="-20" on="0"/>
        <pt x="274" y="28" on="0"/>
        <pt x="183" y="115" on="0"/>
        <pt x="124" y="238" on="0"/>
        <pt x="113" y="314" on="1"/>
        <pt x="35" y="314" on="1"/>
        <pt x="35" y="352" on="1"/>
        <pt x="109" y="352" on="1"/>
        <pt x="108" y="363" on="0"/>
        <pt x="107" y="387" on="0"/>
        <pt x="107" y="400" on="1"/>
        <pt x="107" y="408" on="0"/>
        <pt x="107" y="423" on="0"/>
        <pt x="108" y="431" on="1"/>
        <pt x="35" y="431" on="1"/>
        <pt x="35" y="469" on="1"/>
        <pt x="111" y="469" on="1"/>
        <pt x="120" y="548" on="0"/>
        <pt x="179" y="678" on="0"/>
        <pt x="274" y="770" on="0"/>
        <pt x="399" y="820" on="0"/>
        <pt x="474" y="820" on="1"/>
        <pt x="518" y="820" on="0"/>
        <pt x="606" y="789" on="0"/>
        <pt x="642" y="763" on="1"/>
        <pt x="709" y="820" on="1"/>
      </contour>
    </TTGlyph>
    <TTGlyph name="F" xMin="38" yMin="0" xMax="640" yMax="800">
      <contour>
        <pt x="332" y="0" on="1"/>
        <pt x="38" y="0" on="1"/>
        <pt x="38" y="21" on="1"/>
        <pt x="130" y="36" on="1"/>
        <pt x="130" y="764" on="1"/>
        <pt x="38" y="778" on="1"/>
        <pt x="38" y="800" on="1"/>
        <pt x="640" y="800" on="1"/>
        <pt x="640" y="556" on="1"/>
        <pt x="613" y="556" on="1"/>
        <pt x="536" y="775" on="1"/>
        <pt x="240" y="775" on="1"/>
        <pt x="240" y="400" on="1"/>
        <pt x="409" y="400" on="1"/>
        <pt x="468" y="545" on="1"/>
        <pt x="495" y="545" on="1"/>
        <pt x="495" y="229" on="1"/>
        <pt x="468" y="229" on="1"/>
        <pt x="409" y="376" on="1"/>
        <pt x="240" y="376" on="1"/>
        <pt x="240" y="36" on="1"/>
        <pt x="332" y="21" on="1"/>
      </contour>
    </TTGlyph>
    <TTGlyph name="G" xMin="52" yMin="-20" xMax="801" yMax="820">
      <contour>
        <pt x="680" y="820" on="1"/>
        <pt x="680" y="572" on="1"/>
        <pt x="659" y="572" on="1"/>
        <pt x="593" y="737" on="1"/>
        <pt x="561" y="764" on="0"/>
        <pt x="478" y="797" on="0"/>
        <pt x="424" y="797" on="1"/>
        <pt x="372" y="797" on="0"/>
        <pt x="283" y="756" on="0"/>
        <pt x="217" y="678" on="0"/>
        <pt x="180" y="565" on="0"/>
        <pt x="180" y="492" on="1"/>
        <pt x="180" y="309" on="1"/>
        <pt x="180" y="236" on="0"/>
        <pt x="214" y="122" on="0"/>
        <pt x="276" y="44" on="0"/>
        <pt x="362" y="3" on="0"/>
        <pt x="414" y="3" on="1"/>
        <pt x="458" y="3" on="0"/>
        <pt x="525" y="34" on="0"/>
        <pt x="571" y="90" on="0"/>
        <pt x="595" y="170" on="0"/>
        <pt x="595" y="218" on="1"/>
        <pt x="595" y="331" on="1"/>
        <pt x="502" y="345" on="1"/>
        <pt x="502" y="367" on="1"/>
        <pt x="801" y="367" on="1"/>
        <pt x="801" y="345" on="1"/>
        <pt x="708" y="331" on="1"/>
        <pt x="708" y="218" on="1"/>
        <pt x="708" y="174" on="0"/>
        <pt x="675" y="88" on="0"/>
        <pt x="605" y="21" on="0"/>
        <pt x="493" y="-20" on="0"/>
        <pt x="414" y="-20" on="1"/>
        <pt x="331" y="-20" on="0"/>
        <pt x="197" y="41" on="0"/>
        <pt x="103" y="152" on="0"/>
        <pt x="52" y="307" on="0"/>
        <pt x="52" y="400" on="1"/>
        <pt x="52" y="494" on="0"/>
        <pt x="106" y="648" on="0"/>
        <pt x="204" y="759" on="0"/>
        <pt x="341" y="820" on="0"/>
        <pt x="424" y="820" on="1"/>
        <pt x="480" y="820" on="0"/>
        <pt x="565" y="792" on="0"/>
        <pt x="598" y="768" on="1"/>
        <pt x="659" y="820" on="1"/>
      </contour>
    </TTGlyph>
    <TTGlyph name="H" xMin="38" yMin="0" xMax="822" yMax="800">
      <contour>
        <pt x="822" y="0" on="1"/>
        <pt x="527" y="0" on="1"/>
        <pt x="527" y="21" on="1"/>
        <pt x="620" y="36" on="1"/>
        <pt x="620" y="411" on="1"/>
        <pt x="240" y="411" on="1"/>
        <pt x="240" y="36" on="1"/>
        <pt x="332" y="21" on="1"/>
        <pt x="332" y="0" on="1"/>
        <pt x="38" y="0" on="1"/>
        <pt x="38" y="21" on="1"/>
        <pt x="130" y="36" on="1"/>
        <pt x="130" y="764" on="1"/>
        <pt x="38" y="778" on="1"/>
        <pt x="38" y="800" on="1"/>
        <pt x="332" y="800" on="1"/>
        <pt x="332" y="778" on="1"/>
        <pt x="240" y="764" on="1"/>
        <pt x="240" y="436" on="1"/>
        <pt x="620" y="436" on="1"/>
        <pt x="620" y="764" on="1"/>
        <pt x="527" y="778" on="1"/>
        <pt x="527" y="800" on="1"/>
        <pt x="822" y="800" on="1"/>
        <pt x="822" y="778" on="1"/>
        <pt x="729" y="764" on="1"/>
        <pt x="729" y="36" on="1"/>
        <pt x="822" y="21" on="1"/>
      </contour>
    </TTGlyph>
    <TTGlyph name="I" xMin="38" yMin="0" xMax="332" yMax="800">
      <contour>
        <pt x="332" y="0" on="1"/>
        <pt x="38" y="0" on="1"/>
        <pt x="38" y="21" on="1"/>
        <pt x="130" y="36" on="1"/>
        <pt x="130" y="764" on="1"/>
        <pt x="38" y="778" on="1"/>
        <pt x="38" y="800" on="1"/>
        <pt x="332" y="800" on="1"/>
        <pt x="332" y="778" on="1"/>
        <pt x="240" y="764" on="1"/>
        <pt x="240" y="36" on="1"/>
        <pt x="332" y="21" on="1"/>
      </contour>
    </TTGlyph>
    <TTGlyph name="Iacute" xMin="42" yMin="0" xMax="352" yMax="992">
      <component glyphName="I" x="4" y="0" flags="0x4"/>
      <component glyphName="acute.case" x="117" y="39" flags="0x4"/>
    </TTGlyph>
    <TTGlyph name="Icircumflex" xMin="31" yMin="0" xMax="345" yMax="977">
      <component glyphName="I" x="4" y="0" flags="0x4"/>
      <component glyphName="circumflex.case" x="-3" y="13" flags="0x4"/>
    </TTGlyph>
    <TTGlyph name="Idieresis" xMin="35" yMin="0" xMax="339" yMax="989">
      <component glyphName="I" x="4" y="0" flags="0x4"/>
      <component glyphName="dieresis.case" x="11" y="38" flags="0x4"/>
    </TTGlyph>
    <TTGlyph name="Igrave" xMin="12" yMin="0" xMax="336" yMax="992">
      <component glyphName="I" x="4" y="0" flags="0x4"/>
      <component glyphName="grave.case" x="-12" y="39" flags="0x4"/>
    </TTGlyph>
    <TTGlyph name="J" xMin="7" yMin="-20" xMax="420" yMax="800">
      <contour>
        <pt x="146" y="-20" on="1"/>
        <pt x="118" y="-20" on="0"/>
        <pt x="67" y="-8" on="0"/>
        <pt x="29" y="17" on="0"/>
        <pt x="7" y="56" on="0"/>
        <pt x="7" y="82" on="1"/>
        <pt x="7" y="115" on="0"/>
        <pt x="44" y="156" on="0"/>
        <pt x="74" y="156" on="1"/>
        <pt x="94" y="156" on="0"/>
        <pt x="119" y="137" on="0"/>
        <pt x="126" y="126" on="1"/>
        <pt x="134" y="113" on="0"/>
        <pt x="137" y="97" on="1"/>
        <pt x="108" y="76" on="0"/>
        <pt x="108" y="48" on="1"/>
        <pt x="108" y="30" on="0"/>
        <pt x="131" y="3" on="0"/>
        <pt x="153" y="3" on="1"/>
        <pt x="168" y="3" on="0"/>
        <pt x="192" y="21" on="0"/>
        <pt x="209" y="65" on="0"/>
        <pt x="218" y="140" on="0"/>
        <pt x="218" y="197" on="1"/>
        <pt x="218" y="764" on="1"/>
        <pt x="126" y="778" on="1"/>
        <pt x="126" y="800" on="1"/>
        <pt x="420" y="800" on="1"/>
        <pt x="420" y="778" on="1"/>
        <pt x="328" y="764" on="1"/>
        <pt x="328" y="197" on="1"/>
        <pt x="328" y="150" on="0"/>
        <pt x="316" y="71" on="0"/>
        <pt x="277" y="13" on="0"/>
        <pt x="205" y="-20" on="0"/>
      </contour>
    </TTGlyph>
    <TTGlyph name="K" xMin="38" yMin="0" xMax="766" yMax="800">
      <contour>
        <pt x="471" y="0" on="1"/>
        <pt x="471" y="21" on="1"/>
        <pt x="562" y="35" on="1"/>
        <pt x="300" y="430" on="1"/>
        <pt x="240" y="369" on="1"/>
        <pt x="240" y="36" on="1"/>
        <pt x="332" y="21" on="1"/>
        <pt x="332" y="0" on="1"/>
        <pt x="38" y="0" on="1"/>
        <pt x="38" y="21" on="1"/>
        <pt x="130" y="36" on="1"/>
        <pt x="130" y="764" on="1"/>
        <pt x="38" y="778" on="1"/>
        <pt x="38" y="800" on="1"/>
        <pt x="332" y="800" on="1"/>
        <pt x="332" y="778" on="1"/>
        <pt x="240" y="764" on="1"/>
        <pt x="240" y="404" on="1"/>
        <pt x="565" y="736" on="1"/>
        <pt x="456" y="778" on="1"/>
        <pt x="456" y="800" on="1"/>
        <pt x="687" y="800" on="1"/>
        <pt x="687" y="778" on="1"/>
        <pt x="605" y="736" on="1"/>
        <pt x="378" y="508" on="1"/>
        <pt x="698" y="36" on="1"/>
        <pt x="766" y="21" on="1"/>
        <pt x="766" y="0" on="1"/>
      </contour>
    </TTGlyph>
    <TTGlyph name="L" xMin="38" yMin="0" xMax="648" yMax="800">
      <contour>
        <pt x="332" y="800" on="1"/>
        <pt x="332" y="778" on="1"/>
        <pt x="240" y="764" on="1"/>
        <pt x="240" y="24" on="1"/>
        <pt x="539" y="24" on="1"/>
        <pt x="621" y="244" on="1"/>
        <pt x="648" y="244" on="1"/>
        <pt x="648" y="0" on="1"/>
        <pt x="38" y="0" on="1"/>
        <pt x="38" y="21" on="1"/>
        <pt x="130" y="36" on="1"/>
        <pt x="130" y="764" on="1"/>
        <pt x="38" y="778" on="1"/>
        <pt x="38" y="800" on="1"/>
      </contour>
    </TTGlyph>
    <TTGlyph name="M" xMin="38" yMin="-10" xMax="970" yMax="800">
      <contour>
        <pt x="132" y="764" on="1"/>
        <pt x="40" y="778" on="1"/>
        <pt x="40" y="800" on="1"/>
        <pt x="261" y="800" on="1"/>
        <pt x="512" y="158" on="1"/>
        <pt x="768" y="800" on="1"/>
        <pt x="970" y="800" on="1"/>
        <pt x="970" y="778" on="1"/>
        <pt x="878" y="764" on="1"/>
        <pt x="878" y="36" on="1"/>
        <pt x="970" y="21" on="1"/>
        <pt x="970" y="0" on="1"/>
        <pt x="676" y="0" on="1"/>
        <pt x="676" y="21" on="1"/>
        <pt x="768" y="36" on="1"/>
        <pt x="768" y="734" on="1"/>
        <pt x="472" y="-10" on="1"/>
        <pt x="454" y="-10" on="1"/>
        <pt x="156" y="764" on="1"/>
        <pt x="156" y="61" on="1"/>
        <pt x="252" y="21" on="1"/>
        <pt x="252" y="0" on="1"/>
        <pt x="38" y="0" on="1"/>
        <pt x="38" y="21" on="1"/>
        <pt x="132" y="61" on="1"/>
      </contour>
    </TTGlyph>
    <TTGlyph name="N" xMin="41" yMin="0" xMax="778" yMax="800">
      <contour>
        <pt x="134" y="739" on="1"/>
        <pt x="41" y="778" on="1"/>
        <pt x="41" y="800" on="1"/>
        <pt x="230" y="800" on="1"/>
        <pt x="658" y="199" on="1"/>
        <pt x="658" y="739" on="1"/>
        <pt x="565" y="778" on="1"/>
        <pt x="565" y="800" on="1"/>
        <pt x="778" y="800" on="1"/>
        <pt x="778" y="778" on="1"/>
        <pt x="683" y="739" on="1"/>
        <pt x="683" y="0" on="1"/>
        <pt x="658" y="0" on="1"/>
        <pt x="159" y="701" on="1"/>
        <pt x="159" y="61" on="1"/>
        <pt x="255" y="21" on="1"/>
        <pt x="255" y="0" on="1"/>
        <pt x="41" y="0" on="1"/>
        <pt x="41" y="21" on="1"/>
        <pt x="134" y="61" on="1"/>
      </contour>
    </TTGlyph>
    <TTGlyph name="Ntilde" xMin="41" yMin="0" xMax="778" yMax="977">
      <component glyphName="N" x="0" y="0" flags="0x204"/>
      <component glyphName="tilde.case" x="201" y="20" flags="0x4"/>
    </TTGlyph>
    <TTGlyph name="O" xMin="51" yMin="-20" xMax="805" yMax="820">
      <contour>
        <pt x="428" y="-20" on="1"/>
        <pt x="345" y="-20" on="0"/>
        <pt x="207" y="41" on="0"/>
        <pt x="107" y="152" on="0"/>
        <pt x="51" y="307" on="0"/>
        <pt x="51" y="400" on="1"/>
        <pt x="51" y="494" on="0"/>
        <pt x="107" y="648" on="0"/>
        <pt x="207" y="759" on="0"/>
        <pt x="345" y="820" on="0"/>
        <pt x="428" y="820" on="1"/>
        <pt x="510" y="820" on="0"/>
        <pt x="649" y="759" on="0"/>
        <pt x="749" y="648" on="0"/>
        <pt x="805" y="494" on="0"/>
        <pt x="805" y="400" on="1"/>
        <pt x="805" y="307" on="0"/>
        <pt x="749" y="152" on="0"/>
        <pt x="649" y="41" on="0"/>
        <pt x="510" y="-20" on="0"/>
      </contour>
      <contour>
        <pt x="428" y="3" on="1"/>
        <pt x="482" y="3" on="0"/>
        <pt x="574" y="46" on="0"/>
        <pt x="642" y="127" on="0"/>
        <pt x="681" y="246" on="0"/>
        <pt x="681" y="323" on="1"/>
        <pt x="681" y="477" on="1"/>
        <pt x="681" y="553" on="0"/>
        <pt x="642" y="673" on="0"/>
        <pt x="574" y="754" on="0"/>
        <pt x="482" y="797" on="0"/>
        <pt x="428" y="797" on="1"/>
        <pt x="374" y="797" on="0"/>
        <pt x="281" y="754" on="0"/>
        <pt x="214" y="673" on="0"/>
        <pt x="175" y="553" on="0"/>
        <pt x="175" y="477" on="1"/>
        <pt x="175" y="323" on="1"/>
        <pt x="175" y="246" on="0"/>
        <pt x="214" y="127" on="0"/>
        <pt x="281" y="46" on="0"/>
        <pt x="374" y="3" on="0"/>
      </contour>
    </TTGlyph>
    <TTGlyph name="OE" xMin="51" yMin="-20" xMax="1179" yMax="820">
      <contour>
        <pt x="980" y="560" on="1"/>
        <pt x="980" y="244" on="1"/>
        <pt x="954" y="244" on="1"/>
        <pt x="894" y="391" on="1"/>
        <pt x="777" y="391" on="1"/>
        <pt x="777" y="24" on="1"/>
        <pt x="1071" y="24" on="1"/>
        <pt x="1153" y="244" on="1"/>
        <pt x="1179" y="244" on="1"/>
        <pt x="1179" y="0" on="1"/>
        <pt x="678" y="0" on="1"/>
        <pt x="678" y="91" on="1"/>
        <pt x="634" y="37" on="0"/>
        <pt x="509" y="-20" on="0"/>
        <pt x="428" y="-20" on="1"/>
        <pt x="345" y="-20" on="0"/>
        <pt x="207" y="41" on="0"/>
        <pt x="107" y="152" on="0"/>
        <pt x="51" y="307" on="0"/>
        <pt x="51" y="400" on="1"/>
        <pt x="51" y="494" on="0"/>
        <pt x="107" y="648" on="0"/>
        <pt x="207" y="759" on="0"/>
        <pt x="345" y="820" on="0"/>
        <pt x="428" y="820" on="1"/>
        <pt x="509" y="820" on="0"/>
        <pt x="634" y="762" on="0"/>
        <pt x="678" y="709" on="1"/>
        <pt x="678" y="800" on="1"/>
        <pt x="1157" y="800" on="1"/>
        <pt x="1157" y="571" on="1"/>
        <pt x="1130" y="571" on="1"/>
        <pt x="1053" y="775" on="1"/>
        <pt x="777" y="775" on="1"/>
        <pt x="777" y="415" on="1"/>
        <pt x="894" y="415" on="1"/>
        <pt x="954" y="560" on="1"/>
      </contour>
      <contour>
        <pt x="428" y="3" on="1"/>
        <pt x="482" y="3" on="0"/>
        <pt x="570" y="46" on="0"/>
        <pt x="633" y="127" on="0"/>
        <pt x="667" y="246" on="0"/>
        <pt x="667" y="323" on="1"/>
        <pt x="667" y="477" on="1"/>
        <pt x="667" y="553" on="0"/>
        <pt x="633" y="673" on="0"/>
        <pt x="570" y="754" on="0"/>
        <pt x="482" y="797" on="0"/>
        <pt x="428" y="797" on="1"/>
        <pt x="374" y="797" on="0"/>
        <pt x="283" y="754" on="0"/>
        <pt x="216" y="673" on="0"/>
        <pt x="179" y="553" on="0"/>
        <pt x="179" y="477" on="1"/>
        <pt x="179" y="323" on="1"/>
        <pt x="179" y="246" on="0"/>
        <pt x="216" y="127" on="0"/>
        <pt x="283" y="46" on="0"/>
        <pt x="374" y="3" on="0"/>
      </contour>
    </TTGlyph>
    <TTGlyph name="Oacute" xMin="51" yMin="-20" xMax="805" yMax="992">
      <component glyphName="O" x="0" y="0" flags="0x204"/>
      <component glyphName="acute.case" x="375" y="39" flags="0x4"/>
    </TTGlyph>
    <TTGlyph name="Ocircumflex" xMin="51" yMin="-20" xMax="805" yMax="977">
      <component glyphName="O" x="0" y="0" flags="0x204"/>
      <component glyphName="circumflex.case" x="236" y="13" flags="0x4"/>
    </TTGlyph>
    <TTGlyph name="Odieresis" xMin="51" yMin="-20" xMax="805" yMax="989">
      <component glyphName="O" x="0" y="0" flags="0x204"/>
      <component glyphName="dieresis.case" x="251" y="38" flags="0x4"/>
    </TTGlyph>
    <TTGlyph name="Ograve" xMin="51" yMin="-20" xMax="805" yMax="992">
      <component glyphName="O" x="0" y="0" flags="0x204"/>
      <component glyphName="grave.case" x="249" y="39" flags="0x4"/>
    </TTGlyph>
    <TTGlyph name="Oslash" xMin="51" yMin="-22" xMax="805" yMax="822">
      <contour>
        <pt x="428" y="-20" on="1"/>
        <pt x="345" y="-20" on="0"/>
        <pt x="274" y="11" on="1"/>
        <pt x="260" y="-22" on="1"/>
        <pt x="218" y="-22" on="1"/>
        <pt x="240" y="28" on="1"/>
        <pt x="152" y="79" on="0"/>
        <pt x="51" y="272" on="0"/>
        <pt x="51" y="400" on="1"/>
        <pt x="51" y="494" on="0"/>
        <pt x="107" y="648" on="0"/>
        <pt x="207" y="759" on="0"/>
        <pt x="345" y="820" on="0"/>
        <pt x="428" y="820" on="1"/>
        <pt x="471" y="820" on="0"/>
        <pt x="550" y="803" on="0"/>
        <pt x="585" y="787" on="1"/>
        <pt x="601" y="822" on="1"/>
        <pt x="642" y="822" on="1"/>
        <pt x="618" y="769" on="1"/>
        <pt x="705" y="718" on="0"/>
        <pt x="805" y="528" on="0"/>
        <pt x="805" y="400" on="1"/>
        <pt x="805" y="307" on="0"/>
        <pt x="749" y="152" on="0"/>
        <pt x="649" y="41" on="0"/>
        <pt x="510" y="-20" on="0"/>
      </contour>
      <contour>
        <pt x="175" y="323" on="1"/>
        <pt x="175" y="238" on="0"/>
        <pt x="221" y="110" on="0"/>
        <pt x="263" y="69" on="1"/>
        <pt x="566" y="753" on="1"/>
        <pt x="505" y="797" on="0"/>
        <pt x="428" y="797" on="1"/>
        <pt x="374" y="797" on="0"/>
        <pt x="281" y="754" on="0"/>
        <pt x="214" y="673" on="0"/>
        <pt x="175" y="553" on="0"/>
        <pt x="175" y="477" on="1"/>
      </contour>
      <contour>
        <pt x="428" y="3" on="1"/>
        <pt x="482" y="3" on="0"/>
        <pt x="574" y="46" on="0"/>
        <pt x="642" y="127" on="0"/>
        <pt x="681" y="246" on="0"/>
        <pt x="681" y="323" on="1"/>
        <pt x="681" y="477" on="1"/>
        <pt x="681" y="561" on="0"/>
        <pt x="635" y="686" on="0"/>
        <pt x="595" y="727" on="1"/>
        <pt x="292" y="44" on="1"/>
        <pt x="351" y="3" on="0"/>
      </contour>
    </TTGlyph>
    <TTGlyph name="Otilde" xMin="51" yMin="-20" xMax="805" yMax="977">
      <component glyphName="O" x="0" y="0" flags="0x204"/>
      <component glyphName="tilde.case" x="227" y="20" flags="0x4"/>
    </TTGlyph>
    <TTGlyph name="P" xMin="38" yMin="0" xMax="644" yMax="800">
      <contour>
        <pt x="644" y="555" on="1"/>
        <pt x="644" y="438" on="0"/>
        <pt x="503" y="310" on="0"/>
        <pt x="352" y="310" on="1"/>
        <pt x="240" y="310" on="1"/>
        <pt x="240" y="36" on="1"/>
        <pt x="332" y="21" on="1"/>
        <pt x="332" y="0" on="1"/>
        <pt x="38" y="0" on="1"/>
        <pt x="38" y="21" on="1"/>
        <pt x="130" y="36" on="1"/>
        <pt x="130" y="764" on="1"/>
        <pt x="38" y="778" on="1"/>
        <pt x="38" y="800" on="1"/>
        <pt x="240" y="800" on="1"/>
        <pt x="352" y="800" on="1"/>
        <pt x="503" y="800" on="0"/>
        <pt x="644" y="671" on="0"/>
      </contour>
      <contour>
        <pt x="240" y="775" on="1"/>
        <pt x="240" y="334" on="1"/>
        <pt x="338" y="334" on="1"/>
        <pt x="435" y="334" on="0"/>
        <pt x="523" y="438" on="0"/>
        <pt x="523" y="535" on="1"/>
        <pt x="523" y="575" on="1"/>
        <pt x="523" y="672" on="0"/>
        <pt x="435" y="775" on="0"/>
        <pt x="338" y="775" on="1"/>
      </contour>
    </TTGlyph>
    <TTGlyph name="Q" xMin="51" yMin="-231" xMax="805" yMax="820">
      <contour>
        <pt x="613" y="-231" on="1"/>
        <pt x="580" y="-231" on="1"/>
        <pt x="368" y="-231" on="0"/>
        <pt x="368" y="-58" on="1"/>
        <pt x="368" y="-15" on="1"/>
        <pt x="297" y="-5" on="0"/>
        <pt x="180" y="64" on="0"/>
        <pt x="97" y="172" on="0"/>
        <pt x="51" y="315" on="0"/>
        <pt x="51" y="400" on="1"/>
        <pt x="51" y="494" on="0"/>
        <pt x="107" y="648" on="0"/>
        <pt x="207" y="759" on="0"/>
        <pt x="345" y="820" on="0"/>
        <pt x="428" y="820" on="1"/>
        <pt x="510" y="820" on="0"/>
        <pt x="649" y="759" on="0"/>
        <pt x="749" y="648" on="0"/>
        <pt x="805" y="494" on="0"/>
        <pt x="805" y="400" on="1"/>
        <pt x="805" y="316" on="0"/>
        <pt x="759" y="173" on="0"/>
        <pt x="676" y="65" on="0"/>
        <pt x="561" y="-4" on="0"/>
        <pt x="491" y="-15" on="1"/>
        <pt x="491" y="-82" on="1"/>
        <pt x="491" y="-208" on="0"/>
        <pt x="613" y="-208" on="1"/>
      </contour>
      <contour>
        <pt x="428" y="3" on="1"/>
        <pt x="482" y="3" on="0"/>
        <pt x="573" y="46" on="0"/>
        <pt x="641" y="127" on="0"/>
        <pt x="679" y="246" on="0"/>
        <pt x="679" y="323" on="1"/>
        <pt x="679" y="477" on="1"/>
        <pt x="679" y="553" on="0"/>
        <pt x="641" y="673" on="0"/>
        <pt x="573" y="754" on="0"/>
        <pt x="482" y="797" on="0"/>
        <pt x="428" y="797" on="1"/>
        <pt x="374" y="797" on="0"/>
        <pt x="282" y="754" on="0"/>
        <pt x="215" y="673" on="0"/>
        <pt x="177" y="553" on="0"/>
        <pt x="177" y="477" on="1"/>
        <pt x="177" y="323" on="1"/>
        <pt x="177" y="246" on="0"/>
        <pt x="215" y="127" on="0"/>
        <pt x="282" y="46" on="0"/>
        <pt x="374" y="3" on="0"/>
      </contour>
    </TTGlyph>
    <TTGlyph name="R" xMin="38" yMin="-10" xMax="746" yMax="800">
      <contour>
        <pt x="746" y="51" on="1"/>
        <pt x="716" y="17" on="0"/>
        <pt x="654" y="-10" on="0"/>
        <pt x="619" y="-10" on="1"/>
        <pt x="563" y="-10" on="0"/>
        <pt x="507" y="43" on="0"/>
        <pt x="497" y="109" on="1"/>
        <pt x="478" y="243" on="1"/>
        <pt x="473" y="273" on="0"/>
        <pt x="453" y="326" on="0"/>
        <pt x="416" y="365" on="0"/>
        <pt x="359" y="388" on="0"/>
        <pt x="318" y="388" on="1"/>
        <pt x="240" y="388" on="1"/>
        <pt x="240" y="36" on="1"/>
        <pt x="332" y="21" on="1"/>
        <pt x="332" y="0" on="1"/>
        <pt x="38" y="0" on="1"/>
        <pt x="38" y="21" on="1"/>
        <pt x="130" y="36" on="1"/>
        <pt x="130" y="764" on="1"/>
        <pt x="38" y="778" on="1"/>
        <pt x="38" y="800" on="1"/>
        <pt x="240" y="800" on="1"/>
        <pt x="318" y="800" on="1"/>
        <pt x="401" y="800" on="0"/>
        <pt x="519" y="774" on="0"/>
        <pt x="593" y="722" on="0"/>
        <pt x="627" y="645" on="0"/>
        <pt x="627" y="594" on="1"/>
        <pt x="627" y="511" on="0"/>
        <pt x="528" y="409" on="0"/>
        <pt x="419" y="395" on="1"/>
        <pt x="419" y="389" on="1"/>
        <pt x="496" y="378" on="0"/>
        <pt x="589" y="291" on="0"/>
        <pt x="601" y="217" on="1"/>
        <pt x="614" y="131" on="1"/>
        <pt x="622" y="82" on="0"/>
        <pt x="639" y="40" on="0"/>
        <pt x="657" y="36" on="1"/>
        <pt x="674" y="33" on="0"/>
        <pt x="712" y="52" on="0"/>
        <pt x="729" y="69" on="1"/>
      </contour>
      <contour>
        <pt x="240" y="775" on="1"/>
        <pt x="240" y="412" on="1"/>
        <pt x="352" y="412" on="1"/>
        <pt x="424" y="412" on="0"/>
        <pt x="506" y="498" on="0"/>
        <pt x="506" y="588" on="1"/>
        <pt x="506" y="609" on="1"/>
        <pt x="506" y="654" on="0"/>
        <pt x="480" y="717" on="0"/>
        <pt x="431" y="757" on="0"/>
        <pt x="361" y="775" on="0"/>
        <pt x="318" y="775" on="1"/>
      </contour>
    </TTGlyph>
    <TTGlyph name="S" xMin="64" yMin="-20" xMax="606" yMax="820">
      <contour>
        <pt x="559" y="820" on="1"/>
        <pt x="559" y="616" on="1"/>
        <pt x="537" y="616" on="1"/>
        <pt x="465" y="762" on="1"/>
        <pt x="430" y="779" on="0"/>
        <pt x="347" y="798" on="0"/>
        <pt x="302" y="798" on="1"/>
        <pt x="258" y="798" on="0"/>
        <pt x="188" y="774" on="0"/>
        <pt x="140" y="731" on="0"/>
        <pt x="115" y="672" on="0"/>
        <pt x="115" y="636" on="1"/>
        <pt x="115" y="579" on="0"/>
        <pt x="190" y="519" on="0"/>
        <pt x="255" y="502" on="1"/>
        <pt x="434" y="455" on="1"/>
        <pt x="475" y="444" on="0"/>
        <pt x="539" y="411" on="0"/>
        <pt x="583" y="355" on="0"/>
        <pt x="606" y="274" on="0"/>
        <pt x="606" y="217" on="1"/>
        <pt x="606" y="161" on="0"/>
        <pt x="570" y="73" on="0"/>
        <pt x="504" y="12" on="0"/>
        <pt x="411" y="-20" on="0"/>
        <pt x="354" y="-20" on="1"/>
        <pt x="306" y="-20" on="0"/>
        <pt x="213" y="8" on="0"/>
        <pt x="171" y="33" on="1"/>
        <pt x="86" y="-10" on="1"/>
        <pt x="64" y="-10" on="1"/>
        <pt x="64" y="247" on="1"/>
        <pt x="86" y="247" on="1"/>
        <pt x="172" y="61" on="1"/>
        <pt x="255" y="2" on="0"/>
        <pt x="362" y="2" on="1"/>
        <pt x="404" y="2" on="0"/>
        <pt x="478" y="25" on="0"/>
        <pt x="533" y="69" on="0"/>
        <pt x="565" y="135" on="0"/>
        <pt x="565" y="179" on="1"/>
        <pt x="565" y="241" on="0"/>
        <pt x="490" y="311" on="0"/>
        <pt x="408" y="332" on="1"/>
        <pt x="242" y="375" on="1"/>
        <pt x="152" y="399" on="0"/>
        <pt x="67" y="511" on="0"/>
        <pt x="67" y="585" on="1"/>
        <pt x="67" y="637" on="0"/>
        <pt x="98" y="723" on="0"/>
        <pt x="158" y="785" on="0"/>
        <pt x="245" y="820" on="0"/>
        <pt x="301" y="820" on="1"/>
        <pt x="344" y="820" on="0"/>
        <pt x="426" y="806" on="0"/>
        <pt x="464" y="789" on="1"/>
        <pt x="537" y="820" on="1"/>
      </contour>
    </TTGlyph>
    <TTGlyph name="T" xMin="24" yMin="0" xMax="675" yMax="800">
      <contour>
        <pt x="570" y="775" on="1"/>
        <pt x="404" y="775" on="1"/>
        <pt x="404" y="36" on="1"/>
        <pt x="496" y="21" on="1"/>
        <pt x="496" y="0" on="1"/>
        <pt x="202" y="0" on="1"/>
        <pt x="202" y="21" on="1"/>
        <pt x="294" y="36" on="1"/>
        <pt x="294" y="775" on="1"/>
        <pt x="129" y="775" on="1"/>
        <pt x="53" y="577" on="1"/>
        <pt x="24" y="577" on="1"/>
        <pt x="24" y="800" on="1"/>
        <pt x="675" y="800" on="1"/>
        <pt x="675" y="577" on="1"/>
        <pt x="645" y="577" on="1"/>
      </contour>
    </TTGlyph>
    <TTGlyph name="Thorn" xMin="38" yMin="0" xMax="676" yMax="800">
      <contour>
        <pt x="336" y="0" on="1"/>
        <pt x="38" y="0" on="1"/>
        <pt x="38" y="21" on="1"/>
        <pt x="130" y="36" on="1"/>
        <pt x="130" y="764" on="1"/>
        <pt x="38" y="778" on="1"/>
        <pt x="38" y="800" on="1"/>
        <pt x="336" y="800" on="1"/>
        <pt x="336" y="778" on="1"/>
        <pt x="244" y="764" on="1"/>
        <pt x="244" y="624" on="1"/>
        <pt x="356" y="624" on="1"/>
        <pt x="519" y="624" on="0"/>
        <pt x="676" y="520" on="0"/>
        <pt x="676" y="403" on="1"/>
        <pt x="676" y="287" on="0"/>
        <pt x="519" y="183" on="0"/>
        <pt x="356" y="183" on="1"/>
        <pt x="244" y="183" on="1"/>
        <pt x="244" y="36" on="1"/>
        <pt x="336" y="21" on="1"/>
      </contour>
      <contour>
        <pt x="244" y="600" on="1"/>
        <pt x="244" y="207" on="1"/>
        <pt x="342" y="207" on="1"/>
        <pt x="451" y="207" on="0"/>
        <pt x="548" y="302" on="0"/>
        <pt x="548" y="388" on="1"/>
        <pt x="548" y="418" on="1"/>
        <pt x="548" y="505" on="0"/>
        <pt x="451" y="600" on="0"/>
        <pt x="342" y="600" on="1"/>
      </contour>
    </TTGlyph>
    <TTGlyph name="U" xMin="26" yMin="-20" xMax="782" yMax="800">
      <contour>
        <pt x="686" y="219" on="1"/>
        <pt x="686" y="160" on="0"/>
        <pt x="655" y="71" on="0"/>
        <pt x="587" y="11" on="0"/>
        <pt x="479" y="-20" on="0"/>
        <pt x="401" y="-20" on="1"/>
        <pt x="323" y="-20" on="0"/>
        <pt x="215" y="18" on="0"/>
        <pt x="148" y="82" on="0"/>
        <pt x="118" y="169" on="0"/>
        <pt x="118" y="219" on="1"/>
        <pt x="118" y="764" on="1"/>
        <pt x="26" y="778" on="1"/>
        <pt x="26" y="800" on="1"/>
        <pt x="320" y="800" on="1"/>
        <pt x="320" y="778" on="1"/>
        <pt x="228" y="764" on="1"/>
        <pt x="228" y="219" on="1"/>
        <pt x="228" y="122" on="0"/>
        <pt x="335" y="16" on="0"/>
        <pt x="450" y="16" on="1"/>
        <pt x="498" y="16" on="0"/>
        <pt x="577" y="38" on="0"/>
        <pt x="632" y="87" on="0"/>
        <pt x="662" y="164" on="0"/>
        <pt x="662" y="219" on="1"/>
        <pt x="662" y="739" on="1"/>
        <pt x="569" y="778" on="1"/>
        <pt x="569" y="800" on="1"/>
        <pt x="782" y="800" on="1"/>
        <pt x="782" y="778" on="1"/>
        <pt x="686" y="739" on="1"/>
        <pt x="686" y="219" on="1"/>
      </contour>
    </TTGlyph>
    <TTGlyph name="Uacute" xMin="29" yMin="-20" xMax="785" yMax="992">
      <component glyphName="U" x="3" y="0" flags="0x4"/>
      <component glyphName="acute.case" x="357" y="39" flags="0x4"/>
    </TTGlyph>
    <TTGlyph name="Ucircumflex" xMin="29" yMin="-20" xMax="785" yMax="977">
      <component glyphName="U" x="3" y="0" flags="0x4"/>
      <component glyphName="circumflex.case" x="248" y="13" flags="0x4"/>
    </TTGlyph>
    <TTGlyph name="Udieresis" xMin="29" yMin="-20" xMax="785" yMax="987">
      <component glyphName="U" x="3" y="0" flags="0x4"/>
      <component glyphName="dieresis.case" x="267" y="36" flags="0x4"/>
    </TTGlyph>
    <TTGlyph name="Ugrave" xMin="29" yMin="-20" xMax="785" yMax="992">
      <component glyphName="U" x="3" y="0" flags="0x4"/>
      <component glyphName="grave.case" x="265" y="39" flags="0x4"/>
    </TTGlyph>
    <TTGlyph name="V" xMin="-28" yMin="-20" xMax="707" yMax="800">
      <contour>
        <pt x="52" y="764" on="1"/>
        <pt x="-28" y="778" on="1"/>
        <pt x="-28" y="800" on="1"/>
        <pt x="265" y="800" on="1"/>
        <pt x="265" y="778" on="1"/>
        <pt x="171" y="766" on="1"/>
        <pt x="391" y="167" on="1"/>
        <pt x="607" y="733" on="1"/>
        <pt x="492" y="778" on="1"/>
        <pt x="492" y="800" on="1"/>
        <pt x="707" y="800" on="1"/>
        <pt x="707" y="778" on="1"/>
        <pt x="634" y="734" on="1"/>
        <pt x="348" y="-20" on="1"/>
        <pt x="340" y="-20" on="1"/>
      </contour>
    </TTGlyph>
    <TTGlyph name="W" xMin="-20" yMin="-20" xMax="1106" yMax="800">
      <contour>
        <pt x="891" y="800" on="1"/>
        <pt x="1106" y="800" on="1"/>
        <pt x="1106" y="778" on="1"/>
        <pt x="1030" y="734" on="1"/>
        <pt x="744" y="-20" on="1"/>
        <pt x="736" y="-20" on="1"/>
        <pt x="541" y="519" on="1"/>
        <pt x="337" y="-20" on="1"/>
        <pt x="329" y="-20" on="1"/>
        <pt x="47" y="764" on="1"/>
        <pt x="-20" y="778" on="1"/>
        <pt x="-20" y="800" on="1"/>
        <pt x="258" y="800" on="1"/>
        <pt x="258" y="778" on="1"/>
        <pt x="167" y="764" on="1"/>
        <pt x="382" y="172" on="1"/>
        <pt x="528" y="554" on="1"/>
        <pt x="453" y="764" on="1"/>
        <pt x="361" y="778" on="1"/>
        <pt x="361" y="800" on="1"/>
        <pt x="658" y="800" on="1"/>
        <pt x="658" y="778" on="1"/>
        <pt x="572" y="766" on="1"/>
        <pt x="789" y="173" on="1"/>
        <pt x="1004" y="733" on="1"/>
        <pt x="891" y="778" on="1"/>
      </contour>
    </TTGlyph>
    <TTGlyph name="X" xMin="-8" yMin="0" xMax="787" yMax="800">
      <contour>
        <pt x="241" y="0" on="1"/>
        <pt x="2" y="0" on="1"/>
        <pt x="2" y="21" on="1"/>
        <pt x="101" y="77" on="1"/>
        <pt x="330" y="383" on="1"/>
        <pt x="77" y="764" on="1"/>
        <pt x="-8" y="778" on="1"/>
        <pt x="-8" y="800" on="1"/>
        <pt x="295" y="800" on="1"/>
        <pt x="295" y="778" on="1"/>
        <pt x="216" y="766" on="1"/>
        <pt x="410" y="472" on="1"/>
        <pt x="603" y="730" on="1"/>
        <pt x="484" y="778" on="1"/>
        <pt x="484" y="800" on="1"/>
        <pt x="723" y="800" on="1"/>
        <pt x="723" y="778" on="1"/>
        <pt x="628" y="725" on="1"/>
        <pt x="424" y="452" on="1"/>
        <pt x="701" y="35" on="1"/>
        <pt x="787" y="21" on="1"/>
        <pt x="787" y="0" on="1"/>
        <pt x="483" y="0" on="1"/>
        <pt x="483" y="21" on="1"/>
        <pt x="562" y="34" on="1"/>
        <pt x="344" y="362" on="1"/>
        <pt x="123" y="68" on="1"/>
        <pt x="241" y="21" on="1"/>
      </contour>
    </TTGlyph>
    <TTGlyph name="Y" xMin="-31" yMin="0" xMax="684" yMax="800">
      <contour>
        <pt x="399" y="36" on="1"/>
        <pt x="492" y="21" on="1"/>
        <pt x="492" y="0" on="1"/>
        <pt x="198" y="0" on="1"/>
        <pt x="198" y="21" on="1"/>
        <pt x="291" y="36" on="1"/>
        <pt x="291" y="340" on="1"/>
        <pt x="48" y="764" on="1"/>
        <pt x="-31" y="778" on="1"/>
        <pt x="-31" y="800" on="1"/>
        <pt x="270" y="800" on="1"/>
        <pt x="270" y="778" on="1"/>
        <pt x="177" y="764" on="1"/>
        <pt x="387" y="401" on="1"/>
        <pt x="580" y="730" on="1"/>
        <pt x="460" y="778" on="1"/>
        <pt x="460" y="800" on="1"/>
        <pt x="684" y="800" on="1"/>
        <pt x="684" y="778" on="1"/>
        <pt x="607" y="729" on="1"/>
        <pt x="399" y="373" on="1"/>
      </contour>
    </TTGlyph>
    <TTGlyph name="Yacute" xMin="-31" yMin="0" xMax="684" yMax="992">
      <component glyphName="acute.case" x="287" y="39" flags="0x4"/>
      <component glyphName="Y" x="0" y="0" flags="0x4"/>
    </TTGlyph>
    <TTGlyph name="Z" xMin="27" yMin="0" xMax="640" yMax="800">
      <contour>
        <pt x="630" y="800" on="1"/>
        <pt x="630" y="775" on="1"/>
        <pt x="161" y="24" on="1"/>
        <pt x="511" y="24" on="1"/>
        <pt x="614" y="229" on="1"/>
        <pt x="640" y="229" on="1"/>
        <pt x="616" y="0" on="1"/>
        <pt x="27" y="0" on="1"/>
        <pt x="27" y="24" on="1"/>
        <pt x="495" y="775" on="1"/>
        <pt x="185" y="775" on="1"/>
        <pt x="82" y="585" on="1"/>
        <pt x="56" y="585" on="1"/>
        <pt x="80" y="800" on="1"/>
      </contour>
    </TTGlyph>
    <TTGlyph name="a" xMin="37" yMin="-10" xMax="561" yMax="527">
      <contour>
        <pt x="366" y="99" on="1"/>
        <pt x="341" y="47" on="0"/>
        <pt x="241" y="-10" on="0"/>
        <pt x="178" y="-10" on="1"/>
        <pt x="150" y="-10" on="0"/>
        <pt x="99" y="6" on="0"/>
        <pt x="60" y="38" on="0"/>
        <pt x="37" y="88" on="0"/>
        <pt x="37" y="123" on="1"/>
        <pt x="37" y="175" on="0"/>
        <pt x="89" y="243" on="0"/>
        <pt x="172" y="282" on="0"/>
        <pt x="276" y="298" on="0"/>
        <pt x="329" y="298" on="1"/>
        <pt x="366" y="298" on="1"/>
        <pt x="366" y="393" on="1"/>
        <pt x="366" y="451" on="0"/>
        <pt x="312" y="505" on="0"/>
        <pt x="264" y="505" on="1"/>
        <pt x="216" y="505" on="0"/>
        <pt x="161" y="461" on="0"/>
        <pt x="161" y="437" on="1"/>
        <pt x="161" y="408" on="0"/>
        <pt x="189" y="399" on="1"/>
        <pt x="189" y="373" on="0"/>
        <pt x="151" y="336" on="0"/>
        <pt x="125" y="336" on="1"/>
        <pt x="99" y="336" on="0"/>
        <pt x="63" y="373" on="0"/>
        <pt x="63" y="399" on="1"/>
        <pt x="63" y="429" on="0"/>
        <pt x="96" y="476" on="0"/>
        <pt x="151" y="509" on="0"/>
        <pt x="224" y="527" on="0"/>
        <pt x="264" y="527" on="1"/>
        <pt x="307" y="527" on="0"/>
        <pt x="381" y="511" on="0"/>
        <pt x="435" y="475" on="0"/>
        <pt x="466" y="416" on="0"/>
        <pt x="466" y="373" on="1"/>
        <pt x="466" y="67" on="1"/>
        <pt x="466" y="22" on="0"/>
        <pt x="503" y="22" on="1"/>
        <pt x="540" y="22" on="0"/>
        <pt x="540" y="65" on="1"/>
        <pt x="561" y="65" on="1"/>
        <pt x="561" y="30" on="0"/>
        <pt x="515" y="-10" on="0"/>
        <pt x="472" y="-10" on="1"/>
        <pt x="452" y="-10" on="0"/>
        <pt x="415" y="2" on="0"/>
        <pt x="385" y="28" on="0"/>
        <pt x="367" y="69" on="0"/>
      </contour>
      <contour>
        <pt x="366" y="273" on="1"/>
        <pt x="329" y="273" on="1"/>
        <pt x="293" y="273" on="0"/>
        <pt x="227" y="256" on="0"/>
        <pt x="176" y="220" on="0"/>
        <pt x="146" y="163" on="0"/>
        <pt x="146" y="123" on="1"/>
        <pt x="146" y="82" on="0"/>
        <pt x="190" y="37" on="0"/>
        <pt x="228" y="37" on="1"/>
        <pt x="251" y="37" on="0"/>
        <pt x="297" y="54" on="0"/>
        <pt x="336" y="88" on="0"/>
        <pt x="363" y="138" on="0"/>
        <pt x="366" y="170" on="1"/>
      </contour>
    </TTGlyph>
    <TTGlyph name="aacute" xMin="37" yMin="-10" xMax="561" yMax="769">
      <component glyphName="a" x="0" y="0" flags="0x204"/>
      <component glyphName="acute" x="200" y="0" flags="0x4"/>
    </TTGlyph>
    <TTGlyph name="acircumflex" xMin="37" yMin="-10" xMax="561" yMax="759">
      <component glyphName="a" x="0" y="0" flags="0x204"/>
      <component glyphName="circumflex" x="95" y="0" flags="0x4"/>
    </TTGlyph>
    <TTGlyph name="acute" xMin="29" yMin="571" xMax="193" yMax="769">
      <contour>
        <pt x="193" y="722" on="1"/>
        <pt x="193" y="699" on="0"/>
        <pt x="176" y="687" on="1"/>
        <pt x="45" y="571" on="1"/>
        <pt x="29" y="583" on="1"/>
        <pt x="103" y="741" on="1"/>
        <pt x="108" y="753" on="0"/>
        <pt x="132" y="769" on="0"/>
        <pt x="146" y="769" on="1"/>
        <pt x="165" y="769" on="0"/>
        <pt x="193" y="742" on="0"/>
      </contour>
    </TTGlyph>
    <TTGlyph name="acute.case" xMin="24" yMin="810" xMax="235" yMax="953">
      <contour>
        <pt x="34" y="810" on="1"/>
        <pt x="24" y="827" on="1"/>
        <pt x="156" y="941" on="1"/>
        <pt x="169" y="953" on="0"/>
        <pt x="188" y="953" on="1"/>
        <pt x="208" y="953" on="0"/>
        <pt x="235" y="924" on="0"/>
        <pt x="235" y="906" on="1"/>
        <pt x="235" y="890" on="0"/>
        <pt x="215" y="866" on="0"/>
        <pt x="201" y="861" on="1"/>
      </contour>
    </TTGlyph>
    <TTGlyph name="adieresis" xMin="37" yMin="-10" xMax="561" yMax="729">
      <component glyphName="a" x="0" y="0" flags="0x204"/>
      <component glyphName="dieresis" x="73" y="-4" flags="0x4"/>
    </TTGlyph>
    <TTGlyph name="ae" xMin="37" yMin="-10" xMax="836" yMax="527">
      <contour>
        <pt x="622" y="12" on="1"/>
        <pt x="656" y="12" on="0"/>
        <pt x="718" y="32" on="0"/>
        <pt x="768" y="69" on="0"/>
        <pt x="803" y="120" on="0"/>
        <pt x="809" y="152" on="1"/>
        <pt x="832" y="152" on="1"/>
        <pt x="818" y="77" on="0"/>
        <pt x="705" y="-10" on="0"/>
        <pt x="622" y="-10" on="1"/>
        <pt x="540" y="-10" on="0"/>
        <pt x="410" y="69" on="0"/>
        <pt x="381" y="138" on="1"/>
        <pt x="351" y="57" on="0"/>
        <pt x="248" y="-10" on="0"/>
        <pt x="178" y="-10" on="1"/>
        <pt x="150" y="-10" on="0"/>
        <pt x="99" y="6" on="0"/>
        <pt x="60" y="38" on="0"/>
        <pt x="37" y="88" on="0"/>
        <pt x="37" y="123" on="1"/>
        <pt x="37" y="175" on="0"/>
        <pt x="89" y="243" on="0"/>
        <pt x="172" y="282" on="0"/>
        <pt x="276" y="298" on="0"/>
        <pt x="329" y="298" on="1"/>
        <pt x="366" y="298" on="1"/>
        <pt x="366" y="393" on="1"/>
        <pt x="366" y="451" on="0"/>
        <pt x="312" y="505" on="0"/>
        <pt x="264" y="505" on="1"/>
        <pt x="216" y="505" on="0"/>
        <pt x="161" y="461" on="0"/>
        <pt x="161" y="437" on="1"/>
        <pt x="161" y="408" on="0"/>
        <pt x="189" y="399" on="1"/>
        <pt x="189" y="373" on="0"/>
        <pt x="151" y="336" on="0"/>
        <pt x="125" y="336" on="1"/>
        <pt x="99" y="336" on="0"/>
        <pt x="63" y="373" on="0"/>
        <pt x="63" y="399" on="1"/>
        <pt x="63" y="429" on="0"/>
        <pt x="96" y="476" on="0"/>
        <pt x="151" y="509" on="0"/>
        <pt x="224" y="527" on="0"/>
        <pt x="264" y="527" on="1"/>
        <pt x="324" y="527" on="0"/>
        <pt x="416" y="497" on="0"/>
        <pt x="441" y="461" on="1"/>
        <pt x="512" y="527" on="0"/>
        <pt x="616" y="527" on="1"/>
        <pt x="664" y="527" on="0"/>
        <pt x="744" y="495" on="0"/>
        <pt x="802" y="437" on="0"/>
        <pt x="835" y="356" on="0"/>
        <pt x="836" y="308" on="1"/>
        <pt x="468" y="308" on="1"/>
        <pt x="468" y="209" on="1"/>
        <pt x="468" y="167" on="0"/>
        <pt x="487" y="94" on="0"/>
        <pt x="526" y="42" on="0"/>
        <pt x="583" y="12" on="0"/>
      </contour>
      <contour>
        <pt x="228" y="37" on="1"/>
        <pt x="253" y="37" on="0"/>
        <pt x="303" y="61" on="0"/>
        <pt x="342" y="102" on="0"/>
        <pt x="366" y="158" on="0"/>
        <pt x="366" y="191" on="1"/>
        <pt x="366" y="273" on="1"/>
        <pt x="329" y="273" on="1"/>
        <pt x="293" y="273" on="0"/>
        <pt x="227" y="256" on="0"/>
        <pt x="176" y="220" on="0"/>
        <pt x="146" y="163" on="0"/>
        <pt x="146" y="123" on="1"/>
        <pt x="146" y="82" on="0"/>
        <pt x="190" y="37" on="0"/>
      </contour>
      <contour>
        <pt x="616" y="505" on="1"/>
        <pt x="581" y="505" on="0"/>
        <pt x="528" y="479" on="0"/>
        <pt x="492" y="434" on="0"/>
        <pt x="472" y="370" on="0"/>
        <pt x="469" y="333" on="1"/>
        <pt x="727" y="333" on="1"/>
        <pt x="727" y="505" on="0"/>
      </contour>
    </TTGlyph>
    <TTGlyph name="agrave" xMin="37" yMin="-10" xMax="561" yMax="769">
      <component glyphName="a" x="0" y="0" flags="0x204"/>
      <component glyphName="grave" x="142" y="0" flags="0x4"/>
    </TTGlyph>
    <TTGlyph name="ampersand" xMin="51" yMin="-20" xMax="800" yMax="820">
      <contour>
        <pt x="442" y="289" on="1"/>
        <pt x="422" y="289" on="0"/>
        <pt x="386" y="283" on="0"/>
        <pt x="359" y="270" on="0"/>
        <pt x="342" y="249" on="0"/>
        <pt x="342" y="234" on="1"/>
        <pt x="342" y="220" on="0"/>
        <pt x="361" y="206" on="0"/>
        <pt x="374" y="206" on="1"/>
        <pt x="386" y="206" on="0"/>
        <pt x="412" y="219" on="0"/>
        <pt x="419" y="233" on="1"/>
        <pt x="445" y="227" on="0"/>
        <pt x="468" y="197" on="0"/>
        <pt x="468" y="178" on="1"/>
        <pt x="468" y="154" on="0"/>
        <pt x="433" y="118" on="0"/>
        <pt x="407" y="118" on="1"/>
        <pt x="388" y="118" on="0"/>
        <pt x="356" y="136" on="0"/>
        <pt x="332" y="167" on="0"/>
        <pt x="319" y="208" on="0"/>
        <pt x="319" y="232" on="1"/>
        <pt x="319" y="261" on="0"/>
        <pt x="340" y="313" on="0"/>
        <pt x="381" y="353" on="0"/>
        <pt x="441" y="376" on="0"/>
        <pt x="479" y="376" on="1"/>
        <pt x="512" y="376" on="0"/>
        <pt x="562" y="370" on="0"/>
        <pt x="607" y="363" on="0"/>
        <pt x="650" y="357" on="0"/>
        <pt x="675" y="357" on="1"/>
        <pt x="720" y="357" on="0"/>
        <pt x="779" y="385" on="0"/>
        <pt x="779" y="412" on="1"/>
        <pt x="779" y="427" on="0"/>
        <pt x="761" y="441" on="0"/>
        <pt x="748" y="441" on="1"/>
        <pt x="735" y="441" on="0"/>
        <pt x="710" y="427" on="0"/>
        <pt x="703" y="413" on="1"/>
        <pt x="677" y="419" on="0"/>
        <pt x="654" y="449" on="0"/>
        <pt x="654" y="468" on="1"/>
        <pt x="654" y="492" on="0"/>
        <pt x="689" y="528" on="0"/>
        <pt x="715" y="528" on="1"/>
        <pt x="753" y="528" on="0"/>
        <pt x="800" y="470" on="0"/>
        <pt x="800" y="423" on="1"/>
        <pt x="800" y="343" on="0"/>
        <pt x="724" y="266" on="0"/>
        <pt x="650" y="266" on="1"/>
        <pt x="630" y="266" on="0"/>
        <pt x="595" y="268" on="0"/>
        <pt x="579" y="270" on="1"/>
        <pt x="583" y="251" on="0"/>
        <pt x="587" y="215" on="0"/>
        <pt x="587" y="197" on="1"/>
        <pt x="587" y="92" on="0"/>
        <pt x="471" y="-20" on="0"/>
        <pt x="372" y="-20" on="1"/>
        <pt x="288" y="-20" on="0"/>
        <pt x="166" y="16" on="0"/>
        <pt x="88" y="79" on="0"/>
        <pt x="51" y="166" on="0"/>
        <pt x="51" y="218" on="1"/>
        <pt x="51" y="273" on="0"/>
        <pt x="93" y="355" on="0"/>
        <pt x="168" y="411" on="0"/>
        <pt x="269" y="441" on="0"/>
        <pt x="328" y="444" on="1"/>
        <pt x="328" y="447" on="1"/>
        <pt x="271" y="454" on="0"/>
        <pt x="180" y="481" on="0"/>
        <pt x="118" y="526" on="0"/>
        <pt x="85" y="595" on="0"/>
        <pt x="85" y="645" on="1"/>
        <pt x="85" y="730" on="0"/>
        <pt x="220" y="820" on="0"/>
        <pt x="341" y="820" on="1"/>
        <pt x="380" y="820" on="0"/>
        <pt x="449" y="800" on="0"/>
        <pt x="501" y="763" on="0"/>
        <pt x="531" y="710" on="0"/>
        <pt x="531" y="677" on="1"/>
        <pt x="531" y="642" on="0"/>
        <pt x="493" y="607" on="0"/>
        <pt x="470" y="607" on="1"/>
        <pt x="447" y="607" on="0"/>
        <pt x="411" y="635" on="0"/>
        <pt x="411" y="666" on="1"/>
        <pt x="453" y="685" on="0"/>
        <pt x="453" y="729" on="1"/>
        <pt x="453" y="759" on="0"/>
        <pt x="400" y="797" on="0"/>
        <pt x="352" y="797" on="1"/>
        <pt x="283" y="797" on="0"/>
        <pt x="203" y="717" on="0"/>
        <pt x="203" y="650" on="1"/>
        <pt x="203" y="551" on="0"/>
        <pt x="320" y="463" on="0"/>
        <pt x="425" y="457" on="1"/>
        <pt x="425" y="435" on="1"/>
        <pt x="188" y="420" on="0"/>
        <pt x="188" y="218" on="1"/>
        <pt x="188" y="166" on="0"/>
        <pt x="218" y="86" on="0"/>
        <pt x="270" y="31" on="0"/>
        <pt x="340" y="3" on="0"/>
        <pt x="380" y="3" on="1"/>
        <pt x="419" y="3" on="0"/>
        <pt x="485" y="27" on="0"/>
        <pt x="535" y="75" on="0"/>
        <pt x="563" y="147" on="0"/>
        <pt x="563" y="195" on="1"/>
        <pt x="563" y="216" on="0"/>
        <pt x="557" y="254" on="0"/>
        <pt x="552" y="274" on="1"/>
        <pt x="520" y="279" on="0"/>
        <pt x="468" y="289" on="0"/>
      </contour>
    </TTGlyph>
    <TTGlyph name="aring" xMin="37" yMin="-10" xMax="561" yMax="761">
      <component glyphName="a" x="0" y="0" flags="0x204"/>
      <component glyphName="ring" x="131" y="-4" flags="0x4"/>
    </TTGlyph>
    <TTGlyph name="asciicircum" xMin="61" yMin="267" xMax="512" yMax="674">
      <contour>
        <pt x="306" y="674" on="1"/>
        <pt x="512" y="267" on="1"/>
        <pt x="462" y="267" on="1"/>
        <pt x="286" y="612" on="1"/>
        <pt x="111" y="267" on="1"/>
        <pt x="61" y="267" on="1"/>
        <pt x="267" y="674" on="1"/>
      </contour>
    </TTGlyph>
    <TTGlyph name="asciitilde" xMin="47" yMin="176" xMax="485" yMax="337">
      <contour>
        <pt x="485" y="302" on="1"/>
        <pt x="474" y="266" on="0"/>
        <pt x="456" y="239" on="1"/>
        <pt x="441" y="215" on="0"/>
        <pt x="396" y="176" on="0"/>
        <pt x="364" y="176" on="1"/>
        <pt x="328" y="176" on="0"/>
        <pt x="277" y="217" on="0"/>
        <pt x="253" y="243" on="1"/>
        <pt x="233" y="264" on="0"/>
        <pt x="193" y="299" on="0"/>
        <pt x="168" y="299" on="1"/>
        <pt x="147" y="299" on="0"/>
        <pt x="116" y="268" on="0"/>
        <pt x="105" y="250" on="1"/>
        <pt x="93" y="228" on="0"/>
        <pt x="85" y="201" on="1"/>
        <pt x="74" y="203" on="0"/>
        <pt x="66" y="206" on="1"/>
        <pt x="62" y="207" on="0"/>
        <pt x="56" y="209" on="0"/>
        <pt x="53" y="210" on="1"/>
        <pt x="49" y="211" on="0"/>
        <pt x="47" y="212" on="1"/>
        <pt x="58" y="247" on="0"/>
        <pt x="76" y="274" on="1"/>
        <pt x="91" y="297" on="0"/>
        <pt x="136" y="337" on="0"/>
        <pt x="168" y="337" on="1"/>
        <pt x="205" y="337" on="0"/>
        <pt x="258" y="295" on="0"/>
        <pt x="281" y="270" on="1"/>
        <pt x="301" y="249" on="0"/>
        <pt x="341" y="214" on="0"/>
        <pt x="364" y="214" on="1"/>
        <pt x="385" y="214" on="0"/>
        <pt x="417" y="244" on="0"/>
        <pt x="428" y="263" on="1"/>
        <pt x="440" y="285" on="0"/>
        <pt x="449" y="313" on="1"/>
      </contour>
    </TTGlyph>
    <TTGlyph name="asterisk" xMin="56" yMin="373" xMax="397" yMax="755">
      <contour>
        <pt x="232" y="552" on="1"/>
        <pt x="232" y="544" on="0"/>
        <pt x="239" y="501" on="0"/>
        <pt x="246" y="452" on="0"/>
        <pt x="253" y="409" on="0"/>
        <pt x="253" y="401" on="1"/>
        <pt x="253" y="390" on="0"/>
        <pt x="239" y="373" on="0"/>
        <pt x="226" y="373" on="1"/>
        <pt x="213" y="374" on="0"/>
        <pt x="199" y="390" on="0"/>
        <pt x="199" y="401" on="1"/>
        <pt x="199" y="409" on="0"/>
        <pt x="206" y="452" on="0"/>
        <pt x="213" y="501" on="0"/>
        <pt x="219" y="544" on="0"/>
        <pt x="219" y="552" on="1"/>
        <pt x="212" y="548" on="0"/>
        <pt x="178" y="521" on="0"/>
        <pt x="140" y="490" on="0"/>
        <pt x="106" y="463" on="0"/>
        <pt x="99" y="459" on="1"/>
        <pt x="92" y="455" on="0"/>
        <pt x="84" y="455" on="1"/>
        <pt x="72" y="455" on="0"/>
        <pt x="57" y="470" on="0"/>
        <pt x="57" y="482" on="1"/>
        <pt x="57" y="497" on="0"/>
        <pt x="72" y="505" on="1"/>
        <pt x="79" y="509" on="0"/>
        <pt x="119" y="525" on="0"/>
        <pt x="165" y="543" on="0"/>
        <pt x="205" y="560" on="0"/>
        <pt x="212" y="564" on="1"/>
        <pt x="205" y="568" on="0"/>
        <pt x="165" y="584" on="0"/>
        <pt x="118" y="602" on="0"/>
        <pt x="78" y="618" on="0"/>
        <pt x="71" y="622" on="1"/>
        <pt x="56" y="630" on="0"/>
        <pt x="56" y="646" on="1"/>
        <pt x="56" y="657" on="0"/>
        <pt x="72" y="672" on="0"/>
        <pt x="83" y="672" on="1"/>
        <pt x="91" y="672" on="0"/>
        <pt x="98" y="668" on="1"/>
        <pt x="105" y="664" on="0"/>
        <pt x="139" y="637" on="0"/>
        <pt x="177" y="606" on="0"/>
        <pt x="212" y="579" on="0"/>
        <pt x="219" y="575" on="1"/>
        <pt x="219" y="583" on="0"/>
        <pt x="212" y="627" on="0"/>
        <pt x="205" y="676" on="0"/>
        <pt x="198" y="719" on="0"/>
        <pt x="198" y="727" on="1"/>
        <pt x="198" y="738" on="0"/>
        <pt x="212" y="755" on="0"/>
        <pt x="225" y="755" on="1"/>
        <pt x="238" y="755" on="0"/>
        <pt x="252" y="738" on="0"/>
        <pt x="252" y="727" on="1"/>
        <pt x="252" y="719" on="0"/>
        <pt x="246" y="676" on="0"/>
        <pt x="238" y="627" on="0"/>
        <pt x="232" y="583" on="0"/>
        <pt x="232" y="575" on="1"/>
        <pt x="239" y="579" on="0"/>
        <pt x="274" y="606" on="0"/>
        <pt x="312" y="637" on="0"/>
        <pt x="347" y="664" on="0"/>
        <pt x="354" y="668" on="1"/>
        <pt x="363" y="674" on="0"/>
        <pt x="384" y="670" on="0"/>
        <pt x="391" y="659" on="1"/>
        <pt x="397" y="648" on="0"/>
        <pt x="390" y="627" on="0"/>
        <pt x="380" y="622" on="1"/>
        <pt x="373" y="618" on="0"/>
        <pt x="333" y="602" on="0"/>
        <pt x="286" y="584" on="0"/>
        <pt x="246" y="568" on="0"/>
        <pt x="239" y="564" on="1"/>
        <pt x="246" y="560" on="0"/>
        <pt x="286" y="543" on="0"/>
        <pt x="332" y="525" on="0"/>
        <pt x="372" y="509" on="0"/>
        <pt x="379" y="505" on="1"/>
        <pt x="389" y="500" on="0"/>
        <pt x="397" y="479" on="0"/>
        <pt x="390" y="468" on="1"/>
        <pt x="384" y="457" on="0"/>
        <pt x="362" y="454" on="0"/>
        <pt x="353" y="459" on="1"/>
        <pt x="346" y="463" on="0"/>
        <pt x="312" y="490" on="0"/>
        <pt x="273" y="521" on="0"/>
        <pt x="239" y="548" on="0"/>
      </contour>
    </TTGlyph>
    <TTGlyph name="at" xMin="51" yMin="-10" xMax="845" yMax="810">
      <contour>
        <pt x="616" y="184" on="1"/>
        <pt x="580" y="184" on="0"/>
        <pt x="516" y="210" on="0"/>
        <pt x="500" y="242" on="1"/>
        <pt x="477" y="218" on="0"/>
        <pt x="407" y="185" on="0"/>
        <pt x="370" y="185" on="1"/>
        <pt x="327" y="185" on="0"/>
        <pt x="265" y="213" on="0"/>
        <pt x="224" y="261" on="0"/>
        <pt x="205" y="325" on="0"/>
        <pt x="205" y="360" on="1"/>
        <pt x="205" y="423" on="0"/>
        <pt x="250" y="526" on="0"/>
        <pt x="323" y="601" on="0"/>
        <pt x="415" y="642" on="0"/>
        <pt x="462" y="642" on="1"/>
        <pt x="505" y="642" on="0"/>
        <pt x="569" y="603" on="0"/>
        <pt x="584" y="576" on="1"/>
        <pt x="600" y="625" on="1"/>
        <pt x="682" y="625" on="1"/>
        <pt x="587" y="292" on="1"/>
        <pt x="581" y="269" on="0"/>
        <pt x="581" y="255" on="1"/>
        <pt x="581" y="215" on="0"/>
        <pt x="636" y="215" on="1"/>
        <pt x="673" y="215" on="0"/>
        <pt x="738" y="256" on="0"/>
        <pt x="787" y="325" on="0"/>
        <pt x="815" y="415" on="0"/>
        <pt x="815" y="464" on="1"/>
        <pt x="815" y="537" on="0"/>
        <pt x="765" y="655" on="0"/>
        <pt x="673" y="738" on="0"/>
        <pt x="542" y="783" on="0"/>
        <pt x="462" y="783" on="1"/>
        <pt x="381" y="783" on="0"/>
        <pt x="242" y="724" on="0"/>
        <pt x="139" y="621" on="0"/>
        <pt x="80" y="481" on="0"/>
        <pt x="80" y="400" on="1"/>
        <pt x="80" y="319" on="0"/>
        <pt x="139" y="180" on="0"/>
        <pt x="242" y="78" on="0"/>
        <pt x="381" y="20" on="0"/>
        <pt x="462" y="20" on="1"/>
        <pt x="502" y="20" on="0"/>
        <pt x="566" y="28" on="0"/>
        <pt x="623" y="44" on="0"/>
        <pt x="676" y="68" on="0"/>
        <pt x="703" y="83" on="1"/>
        <pt x="717" y="57" on="1"/>
        <pt x="658" y="25" on="0"/>
        <pt x="541" y="-10" on="0"/>
        <pt x="462" y="-10" on="1"/>
        <pt x="375" y="-10" on="0"/>
        <pt x="225" y="53" on="0"/>
        <pt x="114" y="163" on="0"/>
        <pt x="51" y="313" on="0"/>
        <pt x="51" y="400" on="1"/>
        <pt x="51" y="487" on="0"/>
        <pt x="114" y="637" on="0"/>
        <pt x="225" y="747" on="0"/>
        <pt x="375" y="810" on="0"/>
        <pt x="462" y="810" on="1"/>
        <pt x="550" y="810" on="0"/>
        <pt x="692" y="760" on="0"/>
        <pt x="792" y="670" on="0"/>
        <pt x="845" y="542" on="0"/>
        <pt x="845" y="464" on="1"/>
        <pt x="845" y="403" on="0"/>
        <pt x="810" y="301" on="0"/>
        <pt x="748" y="226" on="0"/>
        <pt x="665" y="184" on="0"/>
      </contour>
      <contour>
        <pt x="573" y="542" on="1"/>
        <pt x="559" y="573" on="0"/>
        <pt x="510" y="611" on="0"/>
        <pt x="471" y="611" on="1"/>
        <pt x="433" y="611" on="0"/>
        <pt x="370" y="559" on="0"/>
        <pt x="325" y="477" on="0"/>
        <pt x="300" y="376" on="0"/>
        <pt x="300" y="326" on="1"/>
        <pt x="300" y="281" on="0"/>
        <pt x="339" y="221" on="0"/>
        <pt x="385" y="221" on="1"/>
        <pt x="420" y="221" on="0"/>
        <pt x="474" y="252" on="0"/>
        <pt x="495" y="281" on="1"/>
      </contour>
    </TTGlyph>
    <TTGlyph name="atilde" xMin="37" yMin="-10" xMax="561" yMax="737">
      <component glyphName="a" x="0" y="0" flags="0x204"/>
      <component glyphName="tilde" x="57" y="0" flags="0x4"/>
    </TTGlyph>
    <TTGlyph name="b" xMin="20" yMin="-10" xMax="598" yMax="800">
      <contour>
        <pt x="20" y="20" on="1"/>
        <pt x="90" y="30" on="1"/>
        <pt x="90" y="770" on="1"/>
        <pt x="20" y="780" on="1"/>
        <pt x="20" y="800" on="1"/>
        <pt x="190" y="800" on="1"/>
        <pt x="190" y="413" on="1"/>
        <pt x="214" y="464" on="0"/>
        <pt x="298" y="527" on="0"/>
        <pt x="359" y="527" on="1"/>
        <pt x="413" y="527" on="0"/>
        <pt x="501" y="489" on="0"/>
        <pt x="564" y="419" on="0"/>
        <pt x="598" y="320" on="0"/>
        <pt x="598" y="259" on="1"/>
        <pt x="598" y="198" on="0"/>
        <pt x="564" y="99" on="0"/>
        <pt x="501" y="28" on="0"/>
        <pt x="413" y="-10" on="0"/>
        <pt x="359" y="-10" on="1"/>
        <pt x="298" y="-10" on="0"/>
        <pt x="214" y="53" on="0"/>
        <pt x="190" y="104" on="1"/>
        <pt x="190" y="0" on="1"/>
        <pt x="20" y="0" on="1"/>
      </contour>
      <contour>
        <pt x="488" y="309" on="1"/>
        <pt x="488" y="351" on="0"/>
        <pt x="474" y="422" on="0"/>
        <pt x="441" y="473" on="0"/>
        <pt x="388" y="502" on="0"/>
        <pt x="349" y="502" on="1"/>
        <pt x="315" y="502" on="0"/>
        <pt x="257" y="472" on="0"/>
        <pt x="215" y="421" on="0"/>
        <pt x="191" y="353" on="0"/>
        <pt x="190" y="316" on="1"/>
        <pt x="190" y="209" on="1"/>
        <pt x="190" y="170" on="0"/>
        <pt x="214" y="100" on="0"/>
        <pt x="256" y="47" on="0"/>
        <pt x="314" y="15" on="0"/>
        <pt x="349" y="15" on="1"/>
        <pt x="388" y="15" on="0"/>
        <pt x="441" y="44" on="0"/>
        <pt x="474" y="95" on="0"/>
        <pt x="488" y="167" on="0"/>
        <pt x="488" y="209" on="1"/>
      </contour>
    </TTGlyph>
    <TTGlyph name="backslash" xMin="42" yMin="0" xMax="404" yMax="700">
      <contour>
        <pt x="42" y="700" on="1"/>
        <pt x="93" y="700" on="1"/>
        <pt x="404" y="0" on="1"/>
        <pt x="352" y="0" on="1"/>
      </contour>
    </TTGlyph>
    <TTGlyph name="bar" xMin="88" yMin="-240" xMax="123" yMax="760">
      <contour>
        <pt x="123" y="-240" on="1"/>
        <pt x="88" y="-240" on="1"/>
        <pt x="88" y="760" on="1"/>
        <pt x="123" y="760" on="1"/>
      </contour>
    </TTGlyph>
    <TTGlyph name="braceleft" xMin="12" yMin="-194" xMax="290" yMax="907">
      <contour>
        <pt x="225" y="531" on="1"/>
        <pt x="225" y="462" on="0"/>
        <pt x="150" y="371" on="0"/>
        <pt x="79" y="356" on="1"/>
        <pt x="150" y="342" on="0"/>
        <pt x="225" y="251" on="0"/>
        <pt x="225" y="182" on="1"/>
        <pt x="225" y="162" on="0"/>
        <pt x="219" y="96" on="0"/>
        <pt x="212" y="24" on="0"/>
        <pt x="206" y="-43" on="0"/>
        <pt x="206" y="-63" on="1"/>
        <pt x="206" y="-124" on="0"/>
        <pt x="243" y="-175" on="0"/>
        <pt x="290" y="-175" on="1"/>
        <pt x="290" y="-194" on="1"/>
        <pt x="248" y="-194" on="0"/>
        <pt x="180" y="-179" on="0"/>
        <pt x="134" y="-144" on="0"/>
        <pt x="109" y="-87" on="0"/>
        <pt x="109" y="-46" on="1"/>
        <pt x="109" y="-22" on="0"/>
        <pt x="116" y="43" on="0"/>
        <pt x="123" y="110" on="0"/>
        <pt x="130" y="173" on="0"/>
        <pt x="130" y="196" on="1"/>
        <pt x="130" y="226" on="0"/>
        <pt x="119" y="281" on="0"/>
        <pt x="92" y="323" on="0"/>
        <pt x="46" y="348" on="0"/>
        <pt x="12" y="348" on="1"/>
        <pt x="12" y="365" on="1"/>
        <pt x="46" y="365" on="0"/>
        <pt x="92" y="390" on="0"/>
        <pt x="119" y="432" on="0"/>
        <pt x="130" y="487" on="0"/>
        <pt x="130" y="517" on="1"/>
        <pt x="130" y="540" on="0"/>
        <pt x="123" y="603" on="0"/>
        <pt x="116" y="670" on="0"/>
        <pt x="109" y="735" on="0"/>
        <pt x="109" y="760" on="1"/>
        <pt x="109" y="801" on="0"/>
        <pt x="134" y="857" on="0"/>
        <pt x="180" y="892" on="0"/>
        <pt x="248" y="907" on="0"/>
        <pt x="290" y="907" on="1"/>
        <pt x="290" y="889" on="1"/>
        <pt x="243" y="889" on="0"/>
        <pt x="206" y="837" on="0"/>
        <pt x="206" y="777" on="1"/>
        <pt x="206" y="756" on="0"/>
        <pt x="212" y="689" on="0"/>
        <pt x="219" y="617" on="0"/>
        <pt x="225" y="550" on="0"/>
      </contour>
    </TTGlyph>
    <TTGlyph name="braceright" xMin="23" yMin="-194" xMax="301" yMax="907">
      <contour>
        <pt x="88" y="531" on="1"/>
        <pt x="88" y="550" on="0"/>
        <pt x="94" y="617" on="0"/>
        <pt x="101" y="689" on="0"/>
        <pt x="107" y="756" on="0"/>
        <pt x="107" y="777" on="1"/>
        <pt x="107" y="837" on="0"/>
        <pt x="70" y="889" on="0"/>
        <pt x="23" y="889" on="1"/>
        <pt x="23" y="907" on="1"/>
        <pt x="65" y="907" on="0"/>
        <pt x="133" y="892" on="0"/>
        <pt x="179" y="857" on="0"/>
        <pt x="204" y="801" on="0"/>
        <pt x="204" y="760" on="1"/>
        <pt x="204" y="735" on="0"/>
        <pt x="197" y="670" on="0"/>
        <pt x="190" y="603" on="0"/>
        <pt x="183" y="540" on="0"/>
        <pt x="183" y="517" on="1"/>
        <pt x="183" y="487" on="0"/>
        <pt x="194" y="432" on="0"/>
        <pt x="221" y="390" on="0"/>
        <pt x="266" y="365" on="0"/>
        <pt x="301" y="365" on="1"/>
        <pt x="301" y="348" on="1"/>
        <pt x="266" y="348" on="0"/>
        <pt x="221" y="323" on="0"/>
        <pt x="194" y="281" on="0"/>
        <pt x="183" y="226" on="0"/>
        <pt x="183" y="196" on="1"/>
        <pt x="183" y="173" on="0"/>
        <pt x="190" y="110" on="0"/>
        <pt x="197" y="43" on="0"/>
        <pt x="204" y="-22" on="0"/>
        <pt x="204" y="-46" on="1"/>
        <pt x="204" y="-87" on="0"/>
        <pt x="179" y="-144" on="0"/>
        <pt x="133" y="-179" on="0"/>
        <pt x="65" y="-194" on="0"/>
        <pt x="23" y="-194" on="1"/>
        <pt x="23" y="-175" on="1"/>
        <pt x="70" y="-175" on="0"/>
        <pt x="107" y="-124" on="0"/>
        <pt x="107" y="-63" on="1"/>
        <pt x="107" y="-43" on="0"/>
        <pt x="101" y="24" on="0"/>
        <pt x="94" y="96" on="0"/>
        <pt x="88" y="162" on="0"/>
        <pt x="88" y="182" on="1"/>
        <pt x="88" y="251" on="0"/>
        <pt x="163" y="342" on="0"/>
        <pt x="234" y="356" on="1"/>
        <pt x="163" y="371" on="0"/>
        <pt x="88" y="462" on="0"/>
      </contour>
    </TTGlyph>
    <TTGlyph name="bracketleft" xMin="86" yMin="-185" xMax="300" yMax="897">
      <contour>
        <pt x="86" y="-185" on="1"/>
        <pt x="86" y="897" on="1"/>
        <pt x="300" y="897" on="1"/>
        <pt x="300" y="867" on="1"/>
        <pt x="187" y="867" on="1"/>
        <pt x="187" y="-155" on="1"/>
        <pt x="300" y="-155" on="1"/>
        <pt x="300" y="-185" on="1"/>
      </contour>
    </TTGlyph>
    <TTGlyph name="bracketright" xMin="11" yMin="-185" xMax="225" yMax="897">
      <contour>
        <pt x="11" y="-185" on="1"/>
        <pt x="11" y="-155" on="1"/>
        <pt x="124" y="-155" on="1"/>
        <pt x="124" y="867" on="1"/>
        <pt x="11" y="867" on="1"/>
        <pt x="11" y="897" on="1"/>
        <pt x="225" y="897" on="1"/>
        <pt x="225" y="-185" on="1"/>
      </contour>
    </TTGlyph>
    <TTGlyph name="brokenbar" xMin="90" yMin="-240" xMax="130" yMax="760">
      <contour>
        <pt x="130" y="360" on="1"/>
        <pt x="90" y="360" on="1"/>
        <pt x="90" y="760" on="1"/>
        <pt x="130" y="760" on="1"/>
      </contour>
      <contour>
        <pt x="130" y="-240" on="1"/>
        <pt x="90" y="-240" on="1"/>
        <pt x="90" y="160" on="1"/>
        <pt x="130" y="160" on="1"/>
      </contour>
    </TTGlyph>
    <TTGlyph name="bullet" xMin="143" yMin="266" xMax="325" yMax="448">
      <contour>
        <pt x="143" y="357" on="1"/>
        <pt x="143" y="395" on="0"/>
        <pt x="196" y="448" on="0"/>
        <pt x="234" y="448" on="1"/>
        <pt x="272" y="448" on="0"/>
        <pt x="325" y="395" on="0"/>
        <pt x="325" y="357" on="1"/>
        <pt x="325" y="319" on="0"/>
        <pt x="272" y="266" on="0"/>
        <pt x="234" y="266" on="1"/>
        <pt x="196" y="266" on="0"/>
        <pt x="143" y="319" on="0"/>
      </contour>
    </TTGlyph>
    <TTGlyph name="c" xMin="41" yMin="-10" xMax="506" yMax="527">
      <contour>
        <pt x="381" y="369" on="1"/>
        <pt x="396" y="380" on="0"/>
        <pt x="408" y="403" on="0"/>
        <pt x="408" y="421" on="1"/>
        <pt x="408" y="458" on="0"/>
        <pt x="350" y="505" on="0"/>
        <pt x="300" y="505" on="1"/>
        <pt x="228" y="505" on="0"/>
        <pt x="151" y="402" on="0"/>
        <pt x="151" y="309" on="1"/>
        <pt x="151" y="209" on="1"/>
        <pt x="151" y="167" on="0"/>
        <pt x="169" y="94" on="0"/>
        <pt x="205" y="42" on="0"/>
        <pt x="261" y="12" on="0"/>
        <pt x="300" y="12" on="1"/>
        <pt x="334" y="12" on="0"/>
        <pt x="394" y="32" on="0"/>
        <pt x="442" y="69" on="0"/>
        <pt x="475" y="120" on="0"/>
        <pt x="481" y="152" on="1"/>
        <pt x="504" y="152" on="1"/>
        <pt x="490" y="77" on="0"/>
        <pt x="379" y="-10" on="0"/>
        <pt x="300" y="-10" on="1"/>
        <pt x="246" y="-10" on="0"/>
        <pt x="152" y="28" on="0"/>
        <pt x="82" y="99" on="0"/>
        <pt x="41" y="198" on="0"/>
        <pt x="41" y="259" on="1"/>
        <pt x="41" y="324" on="0"/>
        <pt x="85" y="424" on="0"/>
        <pt x="157" y="492" on="0"/>
        <pt x="250" y="527" on="0"/>
        <pt x="300" y="527" on="1"/>
        <pt x="343" y="527" on="0"/>
        <pt x="418" y="504" on="0"/>
        <pt x="474" y="464" on="0"/>
        <pt x="506" y="407" on="0"/>
        <pt x="506" y="374" on="1"/>
        <pt x="506" y="339" on="0"/>
        <pt x="470" y="306" on="0"/>
        <pt x="444" y="306" on="1"/>
        <pt x="417" y="306" on="0"/>
        <pt x="381" y="342" on="0"/>
      </contour>
    </TTGlyph>
    <TTGlyph name="caron" xMin="39" yMin="589" xMax="318" yMax="759">
      <contour>
        <pt x="159" y="589" on="1"/>
        <pt x="39" y="745" on="1"/>
        <pt x="60" y="759" on="1"/>
        <pt x="178" y="665" on="1"/>
        <pt x="297" y="759" on="1"/>
        <pt x="318" y="745" on="1"/>
        <pt x="198" y="589" on="1"/>
      </contour>
    </TTGlyph>
    <TTGlyph name="caron.case" xMin="15" yMin="822" xMax="329" yMax="959">
      <contour>
        <pt x="171" y="890" on="1"/>
        <pt x="319" y="959" on="1"/>
        <pt x="329" y="943" on="1"/>
        <pt x="201" y="822" on="1"/>
        <pt x="142" y="822" on="1"/>
        <pt x="15" y="943" on="1"/>
        <pt x="24" y="959" on="1"/>
      </contour>
    </TTGlyph>
    <TTGlyph name="ccedilla" xMin="41" yMin="-232" xMax="506" yMax="527">
      <contour>
        <pt x="381" y="369" on="1"/>
        <pt x="396" y="380" on="0"/>
        <pt x="408" y="403" on="0"/>
        <pt x="408" y="421" on="1"/>
        <pt x="408" y="458" on="0"/>
        <pt x="350" y="505" on="0"/>
        <pt x="300" y="505" on="1"/>
        <pt x="228" y="505" on="0"/>
        <pt x="151" y="402" on="0"/>
        <pt x="151" y="309" on="1"/>
        <pt x="151" y="209" on="1"/>
        <pt x="151" y="167" on="0"/>
        <pt x="169" y="94" on="0"/>
        <pt x="205" y="42" on="0"/>
        <pt x="261" y="12" on="0"/>
        <pt x="300" y="12" on="1"/>
        <pt x="334" y="12" on="0"/>
        <pt x="394" y="32" on="0"/>
        <pt x="442" y="69" on="0"/>
        <pt x="475" y="120" on="0"/>
        <pt x="481" y="152" on="1"/>
        <pt x="504" y="152" on="1"/>
        <pt x="490" y="80" on="0"/>
        <pt x="388" y="-5" on="0"/>
        <pt x="314" y="-9" on="1"/>
        <pt x="306" y="-44" on="1"/>
        <pt x="359" y="-46" on="0"/>
        <pt x="428" y="-89" on="0"/>
        <pt x="428" y="-136" on="1"/>
        <pt x="428" y="-162" on="0"/>
        <pt x="406" y="-198" on="0"/>
        <pt x="371" y="-221" on="0"/>
        <pt x="326" y="-232" on="0"/>
        <pt x="302" y="-232" on="1"/>
        <pt x="261" y="-232" on="0"/>
        <pt x="230" y="-223" on="1"/>
        <pt x="236" y="-201" on="1"/>
        <pt x="248" y="-204" on="0"/>
        <pt x="264" y="-204" on="1"/>
        <pt x="279" y="-204" on="0"/>
        <pt x="307" y="-197" on="0"/>
        <pt x="329" y="-181" on="0"/>
        <pt x="343" y="-156" on="0"/>
        <pt x="343" y="-137" on="1"/>
        <pt x="343" y="-111" on="0"/>
        <pt x="309" y="-73" on="0"/>
        <pt x="271" y="-69" on="1"/>
        <pt x="287" y="-10" on="1"/>
        <pt x="236" y="-7" on="0"/>
        <pt x="146" y="33" on="0"/>
        <pt x="79" y="103" on="0"/>
        <pt x="41" y="200" on="0"/>
        <pt x="41" y="259" on="1"/>
        <pt x="41" y="324" on="0"/>
        <pt x="85" y="424" on="0"/>
        <pt x="157" y="492" on="0"/>
        <pt x="250" y="527" on="0"/>
        <pt x="300" y="527" on="1"/>
        <pt x="343" y="527" on="0"/>
        <pt x="418" y="504" on="0"/>
        <pt x="474" y="464" on="0"/>
        <pt x="506" y="407" on="0"/>
        <pt x="506" y="374" on="1"/>
        <pt x="506" y="339" on="0"/>
        <pt x="470" y="306" on="0"/>
        <pt x="444" y="306" on="1"/>
        <pt x="417" y="306" on="0"/>
        <pt x="381" y="342" on="0"/>
      </contour>
    </TTGlyph>
    <TTGlyph name="cedilla" xMin="70" yMin="-232" xMax="268" yMax="9">
      <contour>
        <pt x="146" y="-44" on="1"/>
        <pt x="199" y="-46" on="0"/>
        <pt x="268" y="-89" on="0"/>
        <pt x="268" y="-136" on="1"/>
        <pt x="268" y="-162" on="0"/>
        <pt x="246" y="-198" on="0"/>
        <pt x="211" y="-221" on="0"/>
        <pt x="166" y="-232" on="0"/>
        <pt x="142" y="-232" on="1"/>
        <pt x="101" y="-232" on="0"/>
        <pt x="70" y="-223" on="1"/>
        <pt x="76" y="-201" on="1"/>
        <pt x="88" y="-204" on="0"/>
        <pt x="104" y="-204" on="1"/>
        <pt x="119" y="-204" on="0"/>
        <pt x="147" y="-197" on="0"/>
        <pt x="169" y="-181" on="0"/>
        <pt x="183" y="-156" on="0"/>
        <pt x="183" y="-137" on="1"/>
        <pt x="183" y="-111" on="0"/>
        <pt x="149" y="-73" on="0"/>
        <pt x="111" y="-69" on="1"/>
        <pt x="132" y="9" on="1"/>
        <pt x="159" y="9" on="1"/>
      </contour>
    </TTGlyph>
    <TTGlyph name="cent" xMin="45" yMin="-143" xMax="509" yMax="662">
      <contour>
        <pt x="311" y="527" on="1"/>
        <pt x="353" y="526" on="0"/>
        <pt x="425" y="502" on="0"/>
        <pt x="479" y="462" on="0"/>
        <pt x="509" y="407" on="0"/>
        <pt x="509" y="374" on="1"/>
        <pt x="509" y="339" on="0"/>
        <pt x="474" y="306" on="0"/>
        <pt x="447" y="306" on="1"/>
        <pt x="420" y="306" on="0"/>
        <pt x="384" y="342" on="0"/>
        <pt x="384" y="369" on="1"/>
        <pt x="400" y="380" on="0"/>
        <pt x="412" y="403" on="0"/>
        <pt x="412" y="421" on="1"/>
        <pt x="412" y="456" on="0"/>
        <pt x="357" y="503" on="0"/>
        <pt x="311" y="505" on="1"/>
        <pt x="311" y="12" on="1"/>
        <pt x="377" y="14" on="0"/>
        <pt x="472" y="90" on="0"/>
        <pt x="485" y="152" on="1"/>
        <pt x="508" y="152" on="1"/>
        <pt x="493" y="79" on="0"/>
        <pt x="387" y="-8" on="0"/>
        <pt x="311" y="-10" on="1"/>
        <pt x="311" y="-143" on="1"/>
        <pt x="275" y="-143" on="1"/>
        <pt x="275" y="-8" on="1"/>
        <pt x="226" y="-4" on="0"/>
        <pt x="142" y="38" on="0"/>
        <pt x="80" y="108" on="0"/>
        <pt x="45" y="202" on="0"/>
        <pt x="45" y="259" on="1"/>
        <pt x="45" y="319" on="0"/>
        <pt x="83" y="414" on="0"/>
        <pt x="146" y="481" on="0"/>
        <pt x="230" y="520" on="0"/>
        <pt x="275" y="525" on="1"/>
        <pt x="275" y="662" on="1"/>
        <pt x="311" y="662" on="1"/>
      </contour>
      <contour>
        <pt x="155" y="209" on="1"/>
        <pt x="155" y="132" on="0"/>
        <pt x="212" y="25" on="0"/>
        <pt x="275" y="14" on="1"/>
        <pt x="275" y="503" on="1"/>
        <pt x="217" y="492" on="0"/>
        <pt x="155" y="392" on="0"/>
        <pt x="155" y="309" on="1"/>
      </contour>
    </TTGlyph>
    <TTGlyph name="circumflex" xMin="39" yMin="589" xMax="318" yMax="759">
      <contour>
        <pt x="198" y="759" on="1"/>
        <pt x="318" y="604" on="1"/>
        <pt x="297" y="589" on="1"/>
        <pt x="178" y="683" on="1"/>
        <pt x="60" y="589" on="1"/>
        <pt x="39" y="604" on="1"/>
        <pt x="159" y="759" on="1"/>
      </contour>
    </TTGlyph>
    <TTGlyph name="circumflex.case" xMin="34" yMin="827" xMax="348" yMax="964">
      <contour>
        <pt x="191" y="896" on="1"/>
        <pt x="43" y="827" on="1"/>
        <pt x="34" y="842" on="1"/>
        <pt x="162" y="964" on="1"/>
        <pt x="221" y="964" on="1"/>
        <pt x="348" y="842" on="1"/>
        <pt x="339" y="827" on="1"/>
      </contour>
    </TTGlyph>
    <TTGlyph name="colon" xMin="62" yMin="-10" xMax="181" yMax="459">
      <contour>
        <pt x="62" y="50" on="1"/>
        <pt x="62" y="75" on="0"/>
        <pt x="97" y="108" on="0"/>
        <pt x="122" y="108" on="1"/>
        <pt x="147" y="108" on="0"/>
        <pt x="181" y="75" on="0"/>
        <pt x="181" y="50" on="1"/>
        <pt x="181" y="25" on="0"/>
        <pt x="147" y="-10" on="0"/>
        <pt x="122" y="-10" on="1"/>
        <pt x="97" y="-10" on="0"/>
        <pt x="62" y="25" on="0"/>
      </contour>
      <contour>
        <pt x="62" y="401" on="1"/>
        <pt x="62" y="426" on="0"/>
        <pt x="97" y="459" on="0"/>
        <pt x="122" y="459" on="1"/>
        <pt x="147" y="459" on="0"/>
        <pt x="181" y="426" on="0"/>
        <pt x="181" y="401" on="1"/>
        <pt x="181" y="376" on="0"/>
        <pt x="147" y="341" on="0"/>
        <pt x="122" y="341" on="1"/>
        <pt x="97" y="341" on="0"/>
        <pt x="62" y="376" on="0"/>
      </contour>
    </TTGlyph>
    <TTGlyph name="comma" xMin="48" yMin="-162" xMax="184" yMax="108">
      <contour>
        <pt x="49" y="-146" on="1"/>
        <pt x="62" y="-138" on="0"/>
        <pt x="90" y="-113" on="0"/>
        <pt x="113" y="-83" on="0"/>
        <pt x="128" y="-48" on="0"/>
        <pt x="128" y="-30" on="1"/>
        <pt x="128" y="-10" on="0"/>
        <pt x="108" y="-10" on="1"/>
        <pt x="83" y="-10" on="0"/>
        <pt x="48" y="25" on="0"/>
        <pt x="48" y="50" on="1"/>
        <pt x="48" y="75" on="0"/>
        <pt x="83" y="108" on="0"/>
        <pt x="108" y="108" on="1"/>
        <pt x="144" y="108" on="0"/>
        <pt x="184" y="57" on="0"/>
        <pt x="184" y="16" on="1"/>
        <pt x="184" y="-39" on="0"/>
        <pt x="125" y="-130" on="0"/>
        <pt x="60" y="-162" on="1"/>
      </contour>
    </TTGlyph>
    <TTGlyph name="copyright" xMin="49" yMin="-10" xMax="869" yMax="810">
      <contour>
        <pt x="49" y="399" on="1"/>
        <pt x="49" y="484" on="0"/>
        <pt x="114" y="633" on="0"/>
        <pt x="225" y="745" on="0"/>
        <pt x="374" y="810" on="0"/>
        <pt x="459" y="810" on="1"/>
        <pt x="544" y="810" on="0"/>
        <pt x="693" y="745" on="0"/>
        <pt x="804" y="633" on="0"/>
        <pt x="869" y="484" on="0"/>
        <pt x="869" y="399" on="1"/>
        <pt x="869" y="314" on="0"/>
        <pt x="804" y="165" on="0"/>
        <pt x="693" y="54" on="0"/>
        <pt x="544" y="-10" on="0"/>
        <pt x="459" y="-10" on="1"/>
        <pt x="374" y="-10" on="0"/>
        <pt x="225" y="54" on="0"/>
        <pt x="114" y="165" on="0"/>
        <pt x="49" y="314" on="0"/>
      </contour>
      <contour>
        <pt x="87" y="399" on="1"/>
        <pt x="87" y="321" on="0"/>
        <pt x="145" y="185" on="0"/>
        <pt x="245" y="85" on="0"/>
        <pt x="381" y="27" on="0"/>
        <pt x="459" y="27" on="1"/>
        <pt x="537" y="27" on="0"/>
        <pt x="672" y="85" on="0"/>
        <pt x="773" y="185" on="0"/>
        <pt x="830" y="321" on="0"/>
        <pt x="830" y="399" on="1"/>
        <pt x="830" y="477" on="0"/>
        <pt x="773" y="613" on="0"/>
        <pt x="672" y="713" on="0"/>
        <pt x="537" y="771" on="0"/>
        <pt x="459" y="771" on="1"/>
        <pt x="381" y="771" on="0"/>
        <pt x="245" y="713" on="0"/>
        <pt x="145" y="612" on="0"/>
        <pt x="87" y="477" on="0"/>
      </contour>
      <contour>
        <pt x="629" y="662" on="1"/>
        <pt x="629" y="504" on="1"/>
        <pt x="610" y="504" on="1"/>
        <pt x="571" y="588" on="1"/>
        <pt x="548" y="611" on="0"/>
        <pt x="489" y="633" on="0"/>
        <pt x="460" y="633" on="1"/>
        <pt x="393" y="633" on="0"/>
        <pt x="319" y="549" on="0"/>
        <pt x="319" y="458" on="1"/>
        <pt x="319" y="341" on="1"/>
        <pt x="319" y="250" on="0"/>
        <pt x="393" y="167" on="0"/>
        <pt x="460" y="167" on="1"/>
        <pt x="492" y="167" on="0"/>
        <pt x="558" y="197" on="0"/>
        <pt x="580" y="221" on="1"/>
        <pt x="616" y="309" on="1"/>
        <pt x="635" y="309" on="1"/>
        <pt x="635" y="144" on="1"/>
        <pt x="616" y="144" on="1"/>
        <pt x="570" y="177" on="1"/>
        <pt x="547" y="159" on="0"/>
        <pt x="489" y="138" on="0"/>
        <pt x="460" y="138" on="1"/>
        <pt x="407" y="138" on="0"/>
        <pt x="319" y="176" on="0"/>
        <pt x="257" y="245" on="0"/>
        <pt x="223" y="342" on="0"/>
        <pt x="223" y="400" on="1"/>
        <pt x="223" y="458" on="0"/>
        <pt x="257" y="555" on="0"/>
        <pt x="319" y="624" on="0"/>
        <pt x="407" y="662" on="0"/>
        <pt x="460" y="662" on="1"/>
        <pt x="516" y="662" on="0"/>
        <pt x="567" y="625" on="1"/>
        <pt x="610" y="662" on="1"/>
      </contour>
    </TTGlyph>
    <TTGlyph name="currency" xMin="57" yMin="145" xMax="484" yMax="573">
      <contour>
        <pt x="132" y="248" on="1"/>
        <pt x="93" y="295" on="0"/>
        <pt x="93" y="359" on="1"/>
        <pt x="93" y="391" on="0"/>
        <pt x="114" y="447" on="0"/>
        <pt x="133" y="470" on="1"/>
        <pt x="58" y="544" on="1"/>
        <pt x="85" y="572" on="1"/>
        <pt x="160" y="497" on="1"/>
        <pt x="207" y="535" on="0"/>
        <pt x="271" y="535" on="1"/>
        <pt x="302" y="535" on="0"/>
        <pt x="357" y="514" on="0"/>
        <pt x="380" y="496" on="1"/>
        <pt x="457" y="573" on="1"/>
        <pt x="484" y="545" on="1"/>
        <pt x="408" y="469" on="1"/>
        <pt x="427" y="446" on="0"/>
        <pt x="448" y="390" on="0"/>
        <pt x="448" y="359" on="1"/>
        <pt x="448" y="327" on="0"/>
        <pt x="427" y="271" on="0"/>
        <pt x="408" y="248" on="1"/>
        <pt x="484" y="173" on="1"/>
        <pt x="457" y="146" on="1"/>
        <pt x="381" y="221" on="1"/>
        <pt x="333" y="182" on="0"/>
        <pt x="271" y="182" on="1"/>
        <pt x="239" y="182" on="0"/>
        <pt x="182" y="202" on="0"/>
        <pt x="159" y="220" on="1"/>
        <pt x="84" y="145" on="1"/>
        <pt x="57" y="172" on="1"/>
      </contour>
      <contour>
        <pt x="410" y="359" on="1"/>
        <pt x="410" y="387" on="0"/>
        <pt x="388" y="438" on="0"/>
        <pt x="350" y="475" on="0"/>
        <pt x="299" y="497" on="0"/>
        <pt x="271" y="497" on="1"/>
        <pt x="242" y="497" on="0"/>
        <pt x="191" y="475" on="0"/>
        <pt x="154" y="438" on="0"/>
        <pt x="132" y="387" on="0"/>
        <pt x="132" y="359" on="1"/>
        <pt x="132" y="330" on="0"/>
        <pt x="154" y="279" on="0"/>
        <pt x="191" y="242" on="0"/>
        <pt x="242" y="220" on="0"/>
        <pt x="271" y="220" on="1"/>
        <pt x="299" y="220" on="0"/>
        <pt x="350" y="242" on="0"/>
        <pt x="388" y="279" on="0"/>
        <pt x="410" y="330" on="0"/>
      </contour>
    </TTGlyph>
    <TTGlyph name="d" xMin="42" yMin="-10" xMax="620" yMax="800">
      <contour>
        <pt x="450" y="104" on="1"/>
        <pt x="426" y="53" on="0"/>
        <pt x="341" y="-10" on="0"/>
        <pt x="281" y="-10" on="1"/>
        <pt x="227" y="-10" on="0"/>
        <pt x="139" y="28" on="0"/>
        <pt x="76" y="99" on="0"/>
        <pt x="42" y="198" on="0"/>
        <pt x="42" y="259" on="1"/>
        <pt x="42" y="320" on="0"/>
        <pt x="76" y="419" on="0"/>
        <pt x="139" y="489" on="0"/>
        <pt x="227" y="527" on="0"/>
        <pt x="281" y="527" on="1"/>
        <pt x="341" y="527" on="0"/>
        <pt x="426" y="464" on="0"/>
        <pt x="450" y="413" on="1"/>
        <pt x="450" y="770" on="1"/>
        <pt x="380" y="780" on="1"/>
        <pt x="380" y="800" on="1"/>
        <pt x="550" y="800" on="1"/>
        <pt x="550" y="30" on="1"/>
        <pt x="620" y="20" on="1"/>
        <pt x="620" y="0" on="1"/>
        <pt x="450" y="0" on="1"/>
      </contour>
      <contour>
        <pt x="152" y="209" on="1"/>
        <pt x="152" y="167" on="0"/>
        <pt x="166" y="95" on="0"/>
        <pt x="199" y="44" on="0"/>
        <pt x="252" y="15" on="0"/>
        <pt x="291" y="15" on="1"/>
        <pt x="325" y="15" on="0"/>
        <pt x="382" y="45" on="0"/>
        <pt x="424" y="96" on="0"/>
        <pt x="449" y="163" on="0"/>
        <pt x="450" y="201" on="1"/>
        <pt x="450" y="316" on="1"/>
        <pt x="449" y="353" on="0"/>
        <pt x="424" y="421" on="0"/>
        <pt x="382" y="472" on="0"/>
        <pt x="325" y="502" on="0"/>
        <pt x="291" y="502" on="1"/>
        <pt x="252" y="502" on="0"/>
        <pt x="199" y="473" on="0"/>
        <pt x="166" y="422" on="0"/>
        <pt x="152" y="351" on="0"/>
        <pt x="152" y="309" on="1"/>
      </contour>
    </TTGlyph>
    <TTGlyph name="degree" xMin="37" yMin="462" xMax="330" yMax="755">
      <contour>
        <pt x="37" y="609" on="1"/>
        <pt x="37" y="639" on="0"/>
        <pt x="60" y="693" on="0"/>
        <pt x="100" y="732" on="0"/>
        <pt x="154" y="755" on="0"/>
        <pt x="184" y="755" on="1"/>
        <pt x="214" y="755" on="0"/>
        <pt x="268" y="732" on="0"/>
        <pt x="307" y="693" on="0"/>
        <pt x="330" y="639" on="0"/>
        <pt x="330" y="609" on="1"/>
        <pt x="330" y="579" on="0"/>
        <pt x="307" y="525" on="0"/>
        <pt x="268" y="485" on="0"/>
        <pt x="214" y="462" on="0"/>
        <pt x="184" y="462" on="1"/>
        <pt x="154" y="462" on="0"/>
        <pt x="100" y="485" on="0"/>
        <pt x="60" y="525" on="0"/>
        <pt x="37" y="579" on="0"/>
      </contour>
      <contour>
        <pt x="76" y="609" on="1"/>
        <pt x="76" y="587" on="0"/>
        <pt x="93" y="548" on="0"/>
        <pt x="123" y="518" on="0"/>
        <pt x="162" y="501" on="0"/>
        <pt x="184" y="501" on="1"/>
        <pt x="206" y="501" on="0"/>
        <pt x="245" y="518" on="0"/>
        <pt x="275" y="548" on="0"/>
        <pt x="292" y="587" on="0"/>
        <pt x="292" y="609" on="1"/>
        <pt x="292" y="631" on="0"/>
        <pt x="275" y="670" on="0"/>
        <pt x="245" y="700" on="0"/>
        <pt x="206" y="717" on="0"/>
        <pt x="184" y="717" on="1"/>
        <pt x="162" y="717" on="0"/>
        <pt x="123" y="700" on="0"/>
        <pt x="93" y="670" on="0"/>
        <pt x="76" y="631" on="0"/>
      </contour>
    </TTGlyph>
    <TTGlyph name="dieresis" xMin="43" yMin="615" xMax="347" yMax="733">
      <contour>
        <pt x="43" y="674" on="1"/>
        <pt x="43" y="700" on="0"/>
        <pt x="78" y="733" on="0"/>
        <pt x="103" y="733" on="1"/>
        <pt x="128" y="733" on="0"/>
        <pt x="162" y="700" on="0"/>
        <pt x="162" y="674" on="1"/>
        <pt x="162" y="649" on="0"/>
        <pt x="128" y="615" on="0"/>
        <pt x="103" y="615" on="1"/>
        <pt x="78" y="615" on="0"/>
        <pt x="43" y="649" on="0"/>
      </contour>
      <contour>
        <pt x="229" y="674" on="1"/>
        <pt x="229" y="700" on="0"/>
        <pt x="263" y="733" on="0"/>
        <pt x="288" y="733" on="1"/>
        <pt x="313" y="733" on="0"/>
        <pt x="347" y="700" on="0"/>
        <pt x="347" y="674" on="1"/>
        <pt x="347" y="649" on="0"/>
        <pt x="313" y="615" on="0"/>
        <pt x="288" y="615" on="1"/>
        <pt x="263" y="615" on="0"/>
        <pt x="229" y="649" on="0"/>
      </contour>
    </TTGlyph>
    <TTGlyph name="dieresis.case" xMin="24" yMin="833" xMax="328" yMax="951">
      <contour>
        <pt x="24" y="892" on="1"/>
        <pt x="24" y="917" on="0"/>
        <pt x="59" y="951" on="0"/>
        <pt x="84" y="951" on="1"/>
        <pt x="109" y="951" on="0"/>
        <pt x="143" y="917" on="0"/>
        <pt x="143" y="892" on="1"/>
        <pt x="143" y="867" on="0"/>
        <pt x="109" y="833" on="0"/>
        <pt x="84" y="833" on="1"/>
        <pt x="59" y="833" on="0"/>
        <pt x="24" y="867" on="0"/>
      </contour>
      <contour>
        <pt x="210" y="892" on="1"/>
        <pt x="210" y="917" on="0"/>
        <pt x="244" y="951" on="0"/>
        <pt x="270" y="951" on="1"/>
        <pt x="295" y="951" on="0"/>
        <pt x="328" y="917" on="0"/>
        <pt x="328" y="892" on="1"/>
        <pt x="328" y="867" on="0"/>
        <pt x="295" y="833" on="0"/>
        <pt x="270" y="833" on="1"/>
        <pt x="244" y="833" on="0"/>
        <pt x="210" y="867" on="0"/>
      </contour>
    </TTGlyph>
    <TTGlyph name="divide" xMin="71" yMin="143" xMax="520" yMax="571">
      <contour>
        <pt x="242" y="197" on="1"/>
        <pt x="242" y="220" on="0"/>
        <pt x="274" y="250" on="0"/>
        <pt x="296" y="250" on="1"/>
        <pt x="319" y="250" on="0"/>
        <pt x="350" y="220" on="0"/>
        <pt x="350" y="197" on="1"/>
        <pt x="350" y="175" on="0"/>
        <pt x="319" y="143" on="0"/>
        <pt x="296" y="143" on="1"/>
        <pt x="274" y="143" on="0"/>
        <pt x="242" y="175" on="0"/>
      </contour>
      <contour>
        <pt x="242" y="518" on="1"/>
        <pt x="242" y="540" on="0"/>
        <pt x="274" y="571" on="0"/>
        <pt x="296" y="571" on="1"/>
        <pt x="319" y="571" on="0"/>
        <pt x="350" y="540" on="0"/>
        <pt x="350" y="518" on="1"/>
        <pt x="350" y="496" on="0"/>
        <pt x="319" y="463" on="0"/>
        <pt x="296" y="463" on="1"/>
        <pt x="274" y="463" on="0"/>
        <pt x="242" y="496" on="0"/>
      </contour>
      <contour>
        <pt x="71" y="376" on="1"/>
        <pt x="520" y="376" on="1"/>
        <pt x="520" y="338" on="1"/>
        <pt x="71" y="338" on="1"/>
      </contour>
    </TTGlyph>
    <TTGlyph name="dollar" xMin="65" yMin="-105" xMax="607" yMax="895">
      <contour>
        <pt x="65" y="-10" on="1"/>
        <pt x="65" y="247" on="1"/>
        <pt x="87" y="247" on="1"/>
        <pt x="173" y="61" on="1"/>
        <pt x="242" y="13" on="0"/>
        <pt x="324" y="4" on="1"/>
        <pt x="324" y="359" on="1"/>
        <pt x="243" y="380" on="1"/>
        <pt x="153" y="404" on="0"/>
        <pt x="68" y="511" on="0"/>
        <pt x="68" y="585" on="1"/>
        <pt x="68" y="637" on="0"/>
        <pt x="99" y="723" on="0"/>
        <pt x="159" y="785" on="0"/>
        <pt x="246" y="820" on="0"/>
        <pt x="302" y="820" on="1"/>
        <pt x="307" y="820" on="0"/>
        <pt x="318" y="820" on="0"/>
        <pt x="324" y="819" on="1"/>
        <pt x="324" y="895" on="1"/>
        <pt x="341" y="895" on="1"/>
        <pt x="341" y="818" on="1"/>
        <pt x="346" y="818" on="0"/>
        <pt x="355" y="817" on="0"/>
        <pt x="360" y="816" on="1"/>
        <pt x="360" y="895" on="1"/>
        <pt x="376" y="895" on="1"/>
        <pt x="376" y="814" on="1"/>
        <pt x="423" y="806" on="0"/>
        <pt x="465" y="789" on="1"/>
        <pt x="538" y="820" on="1"/>
        <pt x="560" y="820" on="1"/>
        <pt x="560" y="616" on="1"/>
        <pt x="538" y="616" on="1"/>
        <pt x="466" y="762" on="1"/>
        <pt x="424" y="782" on="0"/>
        <pt x="376" y="791" on="1"/>
        <pt x="376" y="467" on="1"/>
        <pt x="435" y="452" on="1"/>
        <pt x="476" y="441" on="0"/>
        <pt x="540" y="408" on="0"/>
        <pt x="584" y="354" on="0"/>
        <pt x="607" y="274" on="0"/>
        <pt x="607" y="217" on="1"/>
        <pt x="607" y="163" on="0"/>
        <pt x="574" y="78" on="0"/>
        <pt x="513" y="18" on="0"/>
        <pt x="428" y="-16" on="0"/>
        <pt x="376" y="-19" on="1"/>
        <pt x="376" y="-105" on="1"/>
        <pt x="360" y="-105" on="1"/>
        <pt x="360" y="-20" on="1"/>
        <pt x="355" y="-20" on="1"/>
        <pt x="351" y="-20" on="0"/>
        <pt x="344" y="-19" on="0"/>
        <pt x="341" y="-19" on="1"/>
        <pt x="341" y="-105" on="1"/>
        <pt x="324" y="-105" on="1"/>
        <pt x="324" y="-18" on="1"/>
        <pt x="284" y="-14" on="0"/>
        <pt x="207" y="12" on="0"/>
        <pt x="172" y="33" on="1"/>
        <pt x="87" y="-10" on="1"/>
      </contour>
      <contour>
        <pt x="116" y="636" on="1"/>
        <pt x="116" y="579" on="0"/>
        <pt x="191" y="516" on="0"/>
        <pt x="256" y="499" on="1"/>
        <pt x="324" y="481" on="1"/>
        <pt x="324" y="797" on="1"/>
        <pt x="319" y="798" on="0"/>
        <pt x="308" y="798" on="0"/>
        <pt x="303" y="798" on="1"/>
        <pt x="259" y="798" on="0"/>
        <pt x="189" y="774" on="0"/>
        <pt x="141" y="731" on="0"/>
        <pt x="116" y="672" on="0"/>
      </contour>
      <contour>
        <pt x="376" y="345" on="1"/>
        <pt x="376" y="2" on="1"/>
        <pt x="416" y="4" on="0"/>
        <pt x="486" y="28" on="0"/>
        <pt x="537" y="73" on="0"/>
        <pt x="566" y="137" on="0"/>
        <pt x="566" y="179" on="1"/>
        <pt x="566" y="242" on="0"/>
        <pt x="491" y="316" on="0"/>
        <pt x="409" y="337" on="1"/>
      </contour>
      <contour>
        <pt x="341" y="3" on="1"/>
        <pt x="346" y="2" on="0"/>
        <pt x="355" y="2" on="0"/>
        <pt x="360" y="2" on="1"/>
        <pt x="360" y="349" on="1"/>
        <pt x="341" y="354" on="1"/>
      </contour>
      <contour>
        <pt x="341" y="796" on="1"/>
        <pt x="341" y="476" on="1"/>
        <pt x="360" y="471" on="1"/>
        <pt x="360" y="794" on="1"/>
      </contour>
    </TTGlyph>
    <TTGlyph name="dotlessi" xMin="27" yMin="0" xMax="267" yMax="517">
      <contour>
        <pt x="27" y="517" on="1"/>
        <pt x="197" y="517" on="1"/>
        <pt x="197" y="30" on="1"/>
        <pt x="267" y="20" on="1"/>
        <pt x="267" y="0" on="1"/>
        <pt x="27" y="0" on="1"/>
        <pt x="27" y="20" on="1"/>
        <pt x="97" y="30" on="1"/>
        <pt x="97" y="487" on="1"/>
        <pt x="27" y="497" on="1"/>
      </contour>
    </TTGlyph>
    <TTGlyph name="e" xMin="41" yMin="-10" xMax="519" yMax="527">
      <contour>
        <pt x="305" y="12" on="1"/>
        <pt x="339" y="12" on="0"/>
        <pt x="401" y="32" on="0"/>
        <pt x="451" y="69" on="0"/>
        <pt x="486" y="120" on="0"/>
        <pt x="492" y="152" on="1"/>
        <pt x="515" y="152" on="1"/>
        <pt x="501" y="77" on="0"/>
        <pt x="388" y="-10" on="0"/>
        <pt x="305" y="-10" on="1"/>
        <pt x="249" y="-10" on="0"/>
        <pt x="153" y="28" on="0"/>
        <pt x="82" y="99" on="0"/>
        <pt x="41" y="198" on="0"/>
        <pt x="41" y="259" on="1"/>
        <pt x="41" y="320" on="0"/>
        <pt x="81" y="419" on="0"/>
        <pt x="151" y="489" on="0"/>
        <pt x="245" y="527" on="0"/>
        <pt x="299" y="527" on="1"/>
        <pt x="347" y="527" on="0"/>
        <pt x="427" y="495" on="0"/>
        <pt x="485" y="437" on="0"/>
        <pt x="518" y="356" on="0"/>
        <pt x="519" y="308" on="1"/>
        <pt x="151" y="308" on="1"/>
        <pt x="151" y="209" on="1"/>
        <pt x="151" y="167" on="0"/>
        <pt x="170" y="94" on="0"/>
        <pt x="209" y="42" on="0"/>
        <pt x="266" y="12" on="0"/>
      </contour>
      <contour>
        <pt x="298" y="505" on="1"/>
        <pt x="229" y="505" on="0"/>
        <pt x="156" y="408" on="0"/>
        <pt x="152" y="333" on="1"/>
        <pt x="409" y="333" on="1"/>
        <pt x="409" y="421" on="0"/>
        <pt x="355" y="505" on="0"/>
      </contour>
    </TTGlyph>
    <TTGlyph name="eacute" xMin="41" yMin="-10" xMax="519" yMax="769">
      <component glyphName="e" x="0" y="0" flags="0x204"/>
      <component glyphName="acute" x="234" y="0" flags="0x4"/>
    </TTGlyph>
    <TTGlyph name="ecircumflex" xMin="41" yMin="-10" xMax="519" yMax="759">
      <component glyphName="e" x="0" y="0" flags="0x204"/>
      <component glyphName="circumflex" x="123" y="0" flags="0x4"/>
    </TTGlyph>
    <TTGlyph name="edieresis" xMin="41" yMin="-10" xMax="519" yMax="729">
      <component glyphName="e" x="0" y="0" flags="0x204"/>
      <component glyphName="dieresis" x="95" y="-4" flags="0x4"/>
    </TTGlyph>
    <TTGlyph name="egrave" xMin="41" yMin="-10" xMax="519" yMax="769">
      <component glyphName="e" x="0" y="0" flags="0x204"/>
      <component glyphName="grave" x="174" y="0" flags="0x4"/>
    </TTGlyph>
    <TTGlyph name="eight" xMin="51" yMin="-20" xMax="595" yMax="820">
      <contour>
        <pt x="51" y="188" on="1"/>
        <pt x="51" y="238" on="0"/>
        <pt x="84" y="314" on="0"/>
        <pt x="137" y="371" on="0"/>
        <pt x="204" y="414" on="0"/>
        <pt x="237" y="431" on="1"/>
        <pt x="191" y="461" on="1"/>
        <pt x="140" y="496" on="0"/>
        <pt x="82" y="580" on="0"/>
        <pt x="82" y="629" on="1"/>
        <pt x="82" y="674" on="0"/>
        <pt x="122" y="744" on="0"/>
        <pt x="189" y="794" on="0"/>
        <pt x="278" y="820" on="0"/>
        <pt x="326" y="820" on="1"/>
        <pt x="366" y="820" on="0"/>
        <pt x="447" y="799" on="0"/>
        <pt x="510" y="757" on="0"/>
        <pt x="550" y="694" on="0"/>
        <pt x="550" y="652" on="1"/>
        <pt x="550" y="613" on="0"/>
        <pt x="525" y="555" on="0"/>
        <pt x="484" y="509" on="0"/>
        <pt x="432" y="474" on="0"/>
        <pt x="405" y="458" on="1"/>
        <pt x="431" y="442" on="1"/>
        <pt x="462" y="422" on="0"/>
        <pt x="522" y="377" on="0"/>
        <pt x="567" y="323" on="0"/>
        <pt x="595" y="256" on="0"/>
        <pt x="595" y="214" on="1"/>
        <pt x="595" y="155" on="0"/>
        <pt x="547" y="67" on="0"/>
        <pt x="471" y="9" on="0"/>
        <pt x="373" y="-20" on="0"/>
        <pt x="324" y="-20" on="1"/>
        <pt x="196" y="-20" on="0"/>
        <pt x="51" y="87" on="0"/>
      </contour>
      <contour>
        <pt x="266" y="412" on="1"/>
        <pt x="207" y="369" on="0"/>
        <pt x="153" y="246" on="0"/>
        <pt x="153" y="182" on="1"/>
        <pt x="153" y="147" on="0"/>
        <pt x="171" y="83" on="0"/>
        <pt x="210" y="33" on="0"/>
        <pt x="274" y="3" on="0"/>
        <pt x="319" y="3" on="1"/>
        <pt x="361" y="3" on="0"/>
        <pt x="428" y="28" on="0"/>
        <pt x="475" y="70" on="0"/>
        <pt x="500" y="125" on="0"/>
        <pt x="500" y="155" on="1"/>
        <pt x="500" y="208" on="0"/>
        <pt x="439" y="297" on="0"/>
        <pt x="375" y="342" on="1"/>
      </contour>
      <contour>
        <pt x="171" y="683" on="1"/>
        <pt x="171" y="638" on="0"/>
        <pt x="225" y="573" on="0"/>
        <pt x="271" y="542" on="1"/>
        <pt x="377" y="475" on="1"/>
        <pt x="404" y="494" on="0"/>
        <pt x="436" y="539" on="0"/>
        <pt x="454" y="584" on="0"/>
        <pt x="459" y="629" on="0"/>
        <pt x="459" y="649" on="1"/>
        <pt x="459" y="715" on="0"/>
        <pt x="380" y="797" on="0"/>
        <pt x="314" y="797" on="1"/>
        <pt x="287" y="797" on="0"/>
        <pt x="235" y="780" on="0"/>
        <pt x="195" y="750" on="0"/>
        <pt x="171" y="708" on="0"/>
      </contour>
    </TTGlyph>
    <TTGlyph name="emdash" xMin="62" yMin="340" xMax="1072" yMax="374">
      <contour>
        <pt x="1072" y="340" on="1"/>
        <pt x="62" y="340" on="1"/>
        <pt x="62" y="374" on="1"/>
        <pt x="1072" y="374" on="1"/>
      </contour>
    </TTGlyph>
    <TTGlyph name="endash" xMin="62" yMin="339" xMax="572" yMax="375">
      <contour>
        <pt x="572" y="339" on="1"/>
        <pt x="62" y="339" on="1"/>
        <pt x="62" y="375" on="1"/>
        <pt x="572" y="375" on="1"/>
      </contour>
    </TTGlyph>
    <TTGlyph name="equal" xMin="72" yMin="255" xMax="531" yMax="459">
      <contour>
        <pt x="72" y="293" on="1"/>
        <pt x="531" y="293" on="1"/>
        <pt x="531" y="255" on="1"/>
        <pt x="72" y="255" on="1"/>
      </contour>
      <contour>
        <pt x="72" y="459" on="1"/>
        <pt x="531" y="459" on="1"/>
        <pt x="531" y="421" on="1"/>
        <pt x="72" y="421" on="1"/>
      </contour>
    </TTGlyph>
    <TTGlyph name="eth" xMin="41" yMin="-10" xMax="560" yMax="810">
      <contour>
        <pt x="511" y="776" on="1"/>
        <pt x="406" y="718" on="1"/>
        <pt x="560" y="603" on="0"/>
        <pt x="560" y="372" on="1"/>
        <pt x="560" y="259" on="1"/>
        <pt x="560" y="198" on="0"/>
        <pt x="519" y="99" on="0"/>
        <pt x="448" y="28" on="0"/>
        <pt x="354" y="-10" on="0"/>
        <pt x="300" y="-10" on="1"/>
        <pt x="246" y="-10" on="0"/>
        <pt x="152" y="28" on="0"/>
        <pt x="82" y="99" on="0"/>
        <pt x="41" y="198" on="0"/>
        <pt x="41" y="259" on="1"/>
        <pt x="41" y="320" on="0"/>
        <pt x="82" y="419" on="0"/>
        <pt x="152" y="489" on="0"/>
        <pt x="246" y="527" on="0"/>
        <pt x="300" y="527" on="1"/>
        <pt x="340" y="527" on="0"/>
        <pt x="416" y="509" on="0"/>
        <pt x="447" y="493" on="1"/>
        <pt x="443" y="560" on="0"/>
        <pt x="411" y="662" on="0"/>
        <pt x="373" y="700" on="1"/>
        <pt x="245" y="629" on="1"/>
        <pt x="233" y="653" on="1"/>
        <pt x="352" y="718" on="1"/>
        <pt x="323" y="740" on="0"/>
        <pt x="246" y="774" on="0"/>
        <pt x="192" y="788" on="1"/>
        <pt x="197" y="810" on="1"/>
        <pt x="306" y="784" on="0"/>
        <pt x="383" y="735" on="1"/>
        <pt x="498" y="798" on="1"/>
      </contour>
      <contour>
        <pt x="450" y="393" on="1"/>
        <pt x="450" y="413" on="0"/>
        <pt x="449" y="450" on="0"/>
        <pt x="448" y="467" on="1"/>
        <pt x="418" y="484" on="0"/>
        <pt x="340" y="505" on="0"/>
        <pt x="300" y="505" on="1"/>
        <pt x="261" y="505" on="0"/>
        <pt x="205" y="476" on="0"/>
        <pt x="169" y="423" on="0"/>
        <pt x="151" y="351" on="0"/>
        <pt x="151" y="309" on="1"/>
        <pt x="151" y="209" on="1"/>
        <pt x="151" y="167" on="0"/>
        <pt x="169" y="94" on="0"/>
        <pt x="205" y="42" on="0"/>
        <pt x="261" y="12" on="0"/>
        <pt x="300" y="12" on="1"/>
        <pt x="339" y="12" on="0"/>
        <pt x="395" y="42" on="0"/>
        <pt x="432" y="94" on="0"/>
        <pt x="450" y="167" on="0"/>
        <pt x="450" y="209" on="1"/>
      </contour>
    </TTGlyph>
    <TTGlyph name="exclam" xMin="69" yMin="-10" xMax="187" yMax="810">
      <contour>
        <pt x="69" y="50" on="1"/>
        <pt x="69" y="75" on="0"/>
        <pt x="103" y="108" on="0"/>
        <pt x="128" y="108" on="1"/>
        <pt x="153" y="108" on="0"/>
        <pt x="187" y="75" on="0"/>
        <pt x="187" y="50" on="1"/>
        <pt x="187" y="25" on="0"/>
        <pt x="153" y="-10" on="0"/>
        <pt x="128" y="-10" on="1"/>
        <pt x="103" y="-10" on="0"/>
        <pt x="69" y="25" on="0"/>
      </contour>
      <contour>
        <pt x="116" y="165" on="1"/>
        <pt x="114" y="261" on="0"/>
        <pt x="101" y="437" on="0"/>
        <pt x="85" y="587" on="0"/>
        <pt x="73" y="709" on="0"/>
        <pt x="73" y="752" on="1"/>
        <pt x="73" y="773" on="0"/>
        <pt x="101" y="810" on="0"/>
        <pt x="128" y="810" on="1"/>
        <pt x="155" y="810" on="0"/>
        <pt x="183" y="773" on="0"/>
        <pt x="183" y="752" on="1"/>
        <pt x="183" y="709" on="0"/>
        <pt x="171" y="587" on="0"/>
        <pt x="156" y="437" on="0"/>
        <pt x="142" y="261" on="0"/>
        <pt x="140" y="165" on="1"/>
      </contour>
    </TTGlyph>
    <TTGlyph name="exclamdown" xMin="56" yMin="-292" xMax="174" yMax="527">
      <component glyphName="exclam" x="-13" y="518" scalex="1.0" scaley="-0.999938964844" flags="0x4"/>
    </TTGlyph>
    <TTGlyph name="f" xMin="26" yMin="0" xMax="404" yMax="810">
      <contour>
        <pt x="26" y="20" on="1"/>
        <pt x="96" y="30" on="1"/>
        <pt x="96" y="488" on="1"/>
        <pt x="26" y="498" on="1"/>
        <pt x="26" y="518" on="1"/>
        <pt x="96" y="518" on="1"/>
        <pt x="96" y="602" on="1"/>
        <pt x="96" y="645" on="0"/>
        <pt x="112" y="721" on="0"/>
        <pt x="151" y="777" on="0"/>
        <pt x="218" y="810" on="0"/>
        <pt x="268" y="810" on="1"/>
        <pt x="296" y="810" on="0"/>
        <pt x="346" y="796" on="0"/>
        <pt x="383" y="769" on="0"/>
        <pt x="404" y="729" on="0"/>
        <pt x="404" y="704" on="1"/>
        <pt x="404" y="675" on="0"/>
        <pt x="372" y="636" on="0"/>
        <pt x="343" y="636" on="1"/>
        <pt x="317" y="636" on="0"/>
        <pt x="280" y="673" on="0"/>
        <pt x="280" y="699" on="1"/>
        <pt x="300" y="705" on="0"/>
        <pt x="314" y="731" on="0"/>
        <pt x="314" y="746" on="1"/>
        <pt x="314" y="763" on="0"/>
        <pt x="288" y="788" on="0"/>
        <pt x="268" y="788" on="1"/>
        <pt x="229" y="788" on="0"/>
        <pt x="196" y="714" on="0"/>
        <pt x="196" y="633" on="1"/>
        <pt x="196" y="518" on="1"/>
        <pt x="326" y="518" on="1"/>
        <pt x="326" y="498" on="1"/>
        <pt x="196" y="488" on="1"/>
        <pt x="196" y="30" on="1"/>
        <pt x="315" y="20" on="1"/>
        <pt x="315" y="0" on="1"/>
        <pt x="26" y="0" on="1"/>
      </contour>
    </TTGlyph>
    <TTGlyph name="five" xMin="25" yMin="-20" xMax="565" yMax="854">
      <contour>
        <pt x="108" y="466" on="1"/>
        <pt x="152" y="800" on="1"/>
        <pt x="417" y="800" on="1"/>
        <pt x="444" y="800" on="0"/>
        <pt x="485" y="803" on="0"/>
        <pt x="516" y="814" on="0"/>
        <pt x="537" y="835" on="0"/>
        <pt x="542" y="854" on="1"/>
        <pt x="565" y="853" on="1"/>
        <pt x="561" y="801" on="0"/>
        <pt x="534" y="735" on="0"/>
        <pt x="492" y="697" on="0"/>
        <pt x="436" y="683" on="0"/>
        <pt x="402" y="683" on="1"/>
        <pt x="163" y="683" on="1"/>
        <pt x="137" y="484" on="1"/>
        <pt x="164" y="492" on="0"/>
        <pt x="216" y="498" on="0"/>
        <pt x="242" y="498" on="1"/>
        <pt x="310" y="498" on="0"/>
        <pt x="424" y="457" on="0"/>
        <pt x="505" y="385" on="0"/>
        <pt x="550" y="288" on="0"/>
        <pt x="550" y="232" on="1"/>
        <pt x="550" y="188" on="0"/>
        <pt x="516" y="98" on="0"/>
        <pt x="444" y="26" on="0"/>
        <pt x="330" y="-20" on="0"/>
        <pt x="250" y="-20" on="1"/>
        <pt x="203" y="-20" on="0"/>
        <pt x="121" y="8" on="0"/>
        <pt x="60" y="56" on="0"/>
        <pt x="25" y="122" on="0"/>
        <pt x="25" y="161" on="1"/>
        <pt x="25" y="204" on="0"/>
        <pt x="74" y="249" on="0"/>
        <pt x="103" y="249" on="1"/>
        <pt x="131" y="249" on="0"/>
        <pt x="177" y="213" on="0"/>
        <pt x="177" y="175" on="1"/>
        <pt x="149" y="161" on="0"/>
        <pt x="124" y="121" on="0"/>
        <pt x="124" y="95" on="1"/>
        <pt x="124" y="53" on="0"/>
        <pt x="193" y="3" on="0"/>
        <pt x="250" y="3" on="1"/>
        <pt x="289" y="3" on="0"/>
        <pt x="349" y="38" on="0"/>
        <pt x="390" y="99" on="0"/>
        <pt x="412" y="183" on="0"/>
        <pt x="412" y="233" on="1"/>
        <pt x="412" y="294" on="0"/>
        <pt x="384" y="383" on="0"/>
        <pt x="333" y="442" on="0"/>
        <pt x="264" y="470" on="0"/>
        <pt x="224" y="470" on="1"/>
        <pt x="179" y="470" on="0"/>
        <pt x="126" y="453" on="1"/>
      </contour>
    </TTGlyph>
    <TTGlyph name="foundryicon" xMin="51" yMin="138" xMax="1007" yMax="316">
      <contour>
        <pt x="1007" y="251" on="1"/>
        <pt x="991" y="251" on="1"/>
        <pt x="992" y="249" on="0"/>
        <pt x="992" y="246" on="1"/>
        <pt x="992" y="232" on="0"/>
        <pt x="970" y="211" on="0"/>
        <pt x="947" y="211" on="1"/>
        <pt x="938" y="211" on="0"/>
        <pt x="935" y="212" on="1"/>
        <pt x="935" y="197" on="1"/>
        <pt x="953" y="197" on="1"/>
        <pt x="992" y="197" on="0"/>
        <pt x="992" y="161" on="1"/>
        <pt x="992" y="153" on="0"/>
        <pt x="988" y="142" on="0"/>
        <pt x="986" y="138" on="1"/>
        <pt x="959" y="138" on="1"/>
        <pt x="959" y="167" on="1"/>
        <pt x="913" y="167" on="1"/>
        <pt x="908" y="171" on="0"/>
        <pt x="903" y="183" on="0"/>
        <pt x="903" y="189" on="1"/>
        <pt x="903" y="207" on="0"/>
        <pt x="917" y="219" on="1"/>
        <pt x="903" y="227" on="0"/>
        <pt x="903" y="247" on="1"/>
        <pt x="903" y="263" on="0"/>
        <pt x="926" y="284" on="0"/>
        <pt x="946" y="284" on="1"/>
        <pt x="964" y="284" on="0"/>
        <pt x="977" y="274" on="1"/>
        <pt x="985" y="284" on="0"/>
        <pt x="996" y="284" on="1"/>
        <pt x="1000" y="284" on="0"/>
        <pt x="1004" y="283" on="0"/>
        <pt x="1007" y="282" on="1"/>
      </contour>
      <contour>
        <pt x="245" y="175" on="1"/>
        <pt x="239" y="153" on="0"/>
        <pt x="216" y="138" on="0"/>
        <pt x="202" y="138" on="1"/>
        <pt x="183" y="138" on="0"/>
        <pt x="176" y="145" on="1"/>
        <pt x="176" y="171" on="1"/>
        <pt x="193" y="171" on="1"/>
        <pt x="209" y="171" on="0"/>
        <pt x="214" y="182" on="1"/>
        <pt x="200" y="182" on="1"/>
        <pt x="176" y="251" on="1"/>
        <pt x="166" y="251" on="1"/>
        <pt x="166" y="282" on="1"/>
        <pt x="204" y="282" on="1"/>
        <pt x="218" y="233" on="1"/>
        <pt x="223" y="209" on="1"/>
        <pt x="234" y="251" on="1"/>
        <pt x="225" y="251" on="1"/>
        <pt x="225" y="282" on="1"/>
        <pt x="268" y="282" on="1"/>
        <pt x="268" y="251" on="1"/>
      </contour>
      <contour>
        <pt x="158" y="187" on="1"/>
        <pt x="140" y="179" on="0"/>
        <pt x="117" y="179" on="1"/>
        <pt x="86" y="179" on="0"/>
        <pt x="51" y="214" on="0"/>
        <pt x="51" y="245" on="1"/>
        <pt x="51" y="277" on="0"/>
        <pt x="85" y="316" on="0"/>
        <pt x="119" y="316" on="1"/>
        <pt x="128" y="316" on="0"/>
        <pt x="148" y="312" on="0"/>
        <pt x="158" y="309" on="1"/>
        <pt x="158" y="269" on="1"/>
        <pt x="127" y="269" on="1"/>
        <pt x="127" y="284" on="1"/>
        <pt x="124" y="285" on="0"/>
        <pt x="118" y="285" on="1"/>
        <pt x="104" y="285" on="0"/>
        <pt x="89" y="265" on="0"/>
        <pt x="89" y="249" on="1"/>
        <pt x="89" y="212" on="0"/>
        <pt x="126" y="212" on="1"/>
        <pt x="158" y="212" on="1"/>
      </contour>
      <contour>
        <pt x="748" y="179" on="1"/>
        <pt x="699" y="179" on="0"/>
        <pt x="699" y="231" on="1"/>
        <pt x="699" y="256" on="0"/>
        <pt x="726" y="284" on="0"/>
        <pt x="749" y="284" on="1"/>
        <pt x="772" y="284" on="0"/>
        <pt x="799" y="257" on="0"/>
        <pt x="799" y="232" on="1"/>
        <pt x="799" y="207" on="0"/>
        <pt x="772" y="179" on="0"/>
      </contour>
      <contour>
        <pt x="484" y="277" on="1"/>
        <pt x="493" y="280" on="0"/>
        <pt x="510" y="284" on="0"/>
        <pt x="520" y="284" on="1"/>
        <pt x="566" y="284" on="0"/>
        <pt x="566" y="246" on="1"/>
        <pt x="566" y="212" on="1"/>
        <pt x="577" y="212" on="1"/>
        <pt x="577" y="185" on="1"/>
        <pt x="569" y="180" on="0"/>
        <pt x="557" y="180" on="1"/>
        <pt x="541" y="180" on="0"/>
        <pt x="535" y="187" on="1"/>
        <pt x="526" y="179" on="0"/>
        <pt x="510" y="179" on="1"/>
        <pt x="496" y="179" on="0"/>
        <pt x="476" y="195" on="0"/>
        <pt x="476" y="210" on="1"/>
        <pt x="476" y="224" on="0"/>
        <pt x="494" y="240" on="0"/>
        <pt x="515" y="240" on="1"/>
        <pt x="531" y="240" on="1"/>
        <pt x="531" y="241" on="1"/>
        <pt x="531" y="245" on="0"/>
        <pt x="522" y="251" on="0"/>
        <pt x="509" y="251" on="1"/>
        <pt x="484" y="251" on="1"/>
      </contour>
      <contour>
        <pt x="461" y="212" on="1"/>
        <pt x="461" y="186" on="1"/>
        <pt x="453" y="182" on="0"/>
        <pt x="433" y="179" on="0"/>
        <pt x="424" y="179" on="1"/>
        <pt x="398" y="179" on="0"/>
        <pt x="371" y="206" on="0"/>
        <pt x="371" y="230" on="1"/>
        <pt x="371" y="254" on="0"/>
        <pt x="395" y="284" on="0"/>
        <pt x="420" y="284" on="1"/>
        <pt x="440" y="284" on="0"/>
        <pt x="464" y="260" on="0"/>
        <pt x="464" y="242" on="1"/>
        <pt x="464" y="238" on="0"/>
        <pt x="463" y="229" on="0"/>
        <pt x="462" y="224" on="1"/>
        <pt x="407" y="224" on="1"/>
        <pt x="411" y="212" on="0"/>
        <pt x="432" y="212" on="1"/>
      </contour>
      <contour>
        <pt x="811" y="251" on="1"/>
        <pt x="811" y="282" on="1"/>
        <pt x="845" y="282" on="1"/>
        <pt x="855" y="266" on="1"/>
        <pt x="857" y="271" on="0"/>
        <pt x="862" y="276" on="0"/>
        <pt x="865" y="279" on="1"/>
        <pt x="872" y="284" on="0"/>
        <pt x="880" y="284" on="1"/>
        <pt x="886" y="284" on="0"/>
        <pt x="892" y="282" on="1"/>
        <pt x="892" y="251" on="1"/>
        <pt x="858" y="251" on="1"/>
        <pt x="858" y="212" on="1"/>
        <pt x="875" y="212" on="1"/>
        <pt x="875" y="182" on="1"/>
        <pt x="813" y="182" on="1"/>
        <pt x="813" y="212" on="1"/>
        <pt x="822" y="212" on="1"/>
        <pt x="822" y="251" on="1"/>
      </contour>
      <contour>
        <pt x="282" y="251" on="1"/>
        <pt x="282" y="282" on="1"/>
        <pt x="316" y="282" on="1"/>
        <pt x="326" y="266" on="1"/>
        <pt x="328" y="271" on="0"/>
        <pt x="333" y="276" on="0"/>
        <pt x="336" y="279" on="1"/>
        <pt x="343" y="284" on="0"/>
        <pt x="351" y="284" on="1"/>
        <pt x="357" y="284" on="0"/>
        <pt x="363" y="282" on="1"/>
        <pt x="363" y="251" on="1"/>
        <pt x="329" y="251" on="1"/>
        <pt x="329" y="212" on="1"/>
        <pt x="346" y="212" on="1"/>
        <pt x="346" y="182" on="1"/>
        <pt x="284" y="182" on="1"/>
        <pt x="284" y="212" on="1"/>
        <pt x="294" y="212" on="1"/>
        <pt x="294" y="251" on="1"/>
      </contour>
      <contour>
        <pt x="589" y="285" on="1"/>
        <pt x="577" y="285" on="1"/>
        <pt x="577" y="316" on="1"/>
        <pt x="624" y="316" on="1"/>
        <pt x="624" y="212" on="1"/>
        <pt x="638" y="212" on="1"/>
        <pt x="638" y="184" on="1"/>
        <pt x="629" y="180" on="0"/>
        <pt x="616" y="180" on="1"/>
        <pt x="589" y="180" on="0"/>
        <pt x="589" y="208" on="1"/>
      </contour>
      <contour>
        <pt x="651" y="199" on="1"/>
        <pt x="651" y="207" on="0"/>
        <pt x="661" y="219" on="0"/>
        <pt x="671" y="219" on="1"/>
        <pt x="682" y="219" on="0"/>
        <pt x="693" y="207" on="0"/>
        <pt x="693" y="199" on="1"/>
        <pt x="693" y="191" on="0"/>
        <pt x="682" y="180" on="0"/>
        <pt x="671" y="180" on="1"/>
        <pt x="661" y="180" on="0"/>
        <pt x="651" y="191" on="0"/>
      </contour>
      <contour>
        <pt x="749" y="206" on="1"/>
        <pt x="763" y="206" on="0"/>
        <pt x="763" y="232" on="1"/>
        <pt x="763" y="256" on="0"/>
        <pt x="749" y="256" on="1"/>
        <pt x="735" y="256" on="0"/>
        <pt x="735" y="232" on="1"/>
        <pt x="735" y="206" on="0"/>
      </contour>
      <contour>
        <pt x="936" y="247" on="1"/>
        <pt x="936" y="232" on="0"/>
        <pt x="948" y="232" on="1"/>
        <pt x="958" y="232" on="0"/>
        <pt x="958" y="247" on="1"/>
        <pt x="958" y="262" on="0"/>
        <pt x="948" y="262" on="1"/>
        <pt x="936" y="262" on="0"/>
      </contour>
      <contour>
        <pt x="520" y="204" on="1"/>
        <pt x="527" y="204" on="0"/>
        <pt x="531" y="207" on="1"/>
        <pt x="531" y="222" on="1"/>
        <pt x="523" y="222" on="1"/>
        <pt x="510" y="222" on="0"/>
        <pt x="510" y="213" on="1"/>
        <pt x="510" y="204" on="0"/>
      </contour>
      <contour>
        <pt x="419" y="258" on="1"/>
        <pt x="409" y="258" on="0"/>
        <pt x="406" y="242" on="1"/>
        <pt x="431" y="242" on="1"/>
        <pt x="431" y="258" on="0"/>
      </contour>
    </TTGlyph>
    <TTGlyph name="four" xMin="0" yMin="0" xMax="539" yMax="800">
      <contour>
        <pt x="0" y="213" on="1"/>
        <pt x="424" y="800" on="1"/>
        <pt x="447" y="800" on="1"/>
        <pt x="447" y="239" on="1"/>
        <pt x="539" y="239" on="1"/>
        <pt x="539" y="192" on="1"/>
        <pt x="447" y="192" on="1"/>
        <pt x="447" y="36" on="1"/>
        <pt x="539" y="21" on="1"/>
        <pt x="539" y="0" on="1"/>
        <pt x="245" y="0" on="1"/>
        <pt x="245" y="21" on="1"/>
        <pt x="337" y="36" on="1"/>
        <pt x="337" y="192" on="1"/>
        <pt x="0" y="192" on="1"/>
      </contour>
      <contour>
        <pt x="337" y="239" on="1"/>
        <pt x="337" y="638" on="1"/>
        <pt x="49" y="239" on="1"/>
      </contour>
    </TTGlyph>
    <TTGlyph name="foursuperior" xMin="13" yMin="375" xMax="310" yMax="800">
      <contour>
        <pt x="13" y="489" on="1"/>
        <pt x="237" y="800" on="1"/>
        <pt x="262" y="800" on="1"/>
        <pt x="262" y="512" on="1"/>
        <pt x="310" y="512" on="1"/>
        <pt x="310" y="478" on="1"/>
        <pt x="262" y="478" on="1"/>
        <pt x="262" y="404" on="1"/>
        <pt x="310" y="396" on="1"/>
        <pt x="310" y="375" on="1"/>
        <pt x="142" y="375" on="1"/>
        <pt x="142" y="396" on="1"/>
        <pt x="191" y="404" on="1"/>
        <pt x="191" y="478" on="1"/>
        <pt x="13" y="478" on="1"/>
      </contour>
      <contour>
        <pt x="191" y="512" on="1"/>
        <pt x="191" y="693" on="1"/>
        <pt x="60" y="512" on="1"/>
      </contour>
    </TTGlyph>
    <TTGlyph name="fraction" xMin="-22" yMin="0" xMax="429" yMax="800">
      <contour>
        <pt x="30" y="0" on="1"/>
        <pt x="-22" y="0" on="1"/>
        <pt x="378" y="800" on="1"/>
        <pt x="429" y="800" on="1"/>
      </contour>
    </TTGlyph>
    <TTGlyph name="g" xMin="15" yMin="-292" xMax="567" yMax="635">
      <contour>
        <pt x="186" y="-27" on="1"/>
        <pt x="112" y="-27" on="0"/>
        <pt x="45" y="24" on="0"/>
        <pt x="45" y="72" on="1"/>
        <pt x="45" y="118" on="0"/>
        <pt x="94" y="175" on="0"/>
        <pt x="136" y="183" on="1"/>
        <pt x="99" y="207" on="0"/>
        <pt x="58" y="284" on="0"/>
        <pt x="58" y="338" on="1"/>
        <pt x="58" y="383" on="0"/>
        <pt x="90" y="454" on="0"/>
        <pt x="145" y="502" on="0"/>
        <pt x="219" y="527" on="0"/>
        <pt x="261" y="527" on="1"/>
        <pt x="344" y="527" on="0"/>
        <pt x="400" y="483" on="1"/>
        <pt x="440" y="486" on="0"/>
        <pt x="476" y="518" on="0"/>
        <pt x="476" y="538" on="1"/>
        <pt x="476" y="556" on="0"/>
        <pt x="455" y="574" on="0"/>
        <pt x="442" y="574" on="1"/>
        <pt x="442" y="600" on="0"/>
        <pt x="479" y="635" on="0"/>
        <pt x="504" y="635" on="1"/>
        <pt x="530" y="635" on="0"/>
        <pt x="567" y="603" on="0"/>
        <pt x="567" y="574" on="1"/>
        <pt x="567" y="554" on="0"/>
        <pt x="551" y="518" on="0"/>
        <pt x="516" y="488" on="0"/>
        <pt x="460" y="468" on="0"/>
        <pt x="419" y="465" on="1"/>
        <pt x="441" y="442" on="0"/>
        <pt x="466" y="378" on="0"/>
        <pt x="466" y="338" on="1"/>
        <pt x="466" y="293" on="0"/>
        <pt x="434" y="223" on="0"/>
        <pt x="378" y="175" on="0"/>
        <pt x="304" y="150" on="0"/>
        <pt x="261" y="150" on="1"/>
        <pt x="204" y="150" on="0"/>
        <pt x="163" y="169" on="1"/>
        <pt x="134" y="167" on="0"/>
        <pt x="96" y="142" on="0"/>
        <pt x="96" y="117" on="1"/>
        <pt x="96" y="93" on="0"/>
        <pt x="148" y="69" on="0"/>
        <pt x="186" y="69" on="1"/>
        <pt x="351" y="69" on="1"/>
        <pt x="388" y="69" on="0"/>
        <pt x="448" y="55" on="0"/>
        <pt x="490" y="24" on="0"/>
        <pt x="513" y="-28" on="0"/>
        <pt x="513" y="-67" on="1"/>
        <pt x="513" y="-113" on="0"/>
        <pt x="481" y="-195" on="0"/>
        <pt x="418" y="-256" on="0"/>
        <pt x="327" y="-292" on="0"/>
        <pt x="268" y="-292" on="1"/>
        <pt x="200" y="-292" on="0"/>
        <pt x="104" y="-270" on="0"/>
        <pt x="43" y="-233" on="0"/>
        <pt x="15" y="-182" on="0"/>
        <pt x="15" y="-152" on="1"/>
        <pt x="15" y="-135" on="0"/>
        <pt x="27" y="-102" on="0"/>
        <pt x="52" y="-76" on="0"/>
        <pt x="88" y="-60" on="0"/>
        <pt x="112" y="-60" on="1"/>
        <pt x="121" y="-60" on="0"/>
        <pt x="138" y="-62" on="0"/>
        <pt x="149" y="-64" on="1"/>
        <pt x="135" y="-79" on="0"/>
        <pt x="118" y="-121" on="0"/>
        <pt x="118" y="-148" on="1"/>
        <pt x="118" y="-167" on="0"/>
        <pt x="132" y="-211" on="0"/>
        <pt x="166" y="-248" on="0"/>
        <pt x="224" y="-273" on="0"/>
        <pt x="269" y="-273" on="1"/>
        <pt x="318" y="-273" on="0"/>
        <pt x="398" y="-244" on="0"/>
        <pt x="454" y="-197" on="0"/>
        <pt x="484" y="-138" on="0"/>
        <pt x="484" y="-109" on="1"/>
        <pt x="484" y="-67" on="0"/>
        <pt x="442" y="-27" on="0"/>
        <pt x="381" y="-27" on="1"/>
      </contour>
      <contour>
        <pt x="372" y="363" on="1"/>
        <pt x="372" y="433" on="0"/>
        <pt x="319" y="510" on="0"/>
        <pt x="261" y="510" on="1"/>
        <pt x="204" y="510" on="0"/>
        <pt x="152" y="433" on="0"/>
        <pt x="152" y="363" on="1"/>
        <pt x="152" y="314" on="1"/>
        <pt x="152" y="248" on="0"/>
        <pt x="204" y="167" on="0"/>
        <pt x="261" y="167" on="1"/>
        <pt x="319" y="167" on="0"/>
        <pt x="372" y="248" on="0"/>
        <pt x="372" y="314" on="1"/>
      </contour>
    </TTGlyph>
    <TTGlyph name="germandbls" xMin="20" yMin="-10" xMax="621" yMax="820">
      <contour>
        <pt x="537" y="672" on="1"/>
        <pt x="537" y="636" on="0"/>
        <pt x="511" y="589" on="0"/>
        <pt x="466" y="554" on="0"/>
        <pt x="403" y="525" on="0"/>
        <pt x="366" y="507" on="1"/>
        <pt x="332" y="490" on="0"/>
        <pt x="292" y="454" on="0"/>
        <pt x="292" y="427" on="1"/>
        <pt x="292" y="407" on="0"/>
        <pt x="311" y="380" on="0"/>
        <pt x="342" y="360" on="0"/>
        <pt x="380" y="348" on="0"/>
        <pt x="398" y="343" on="1"/>
        <pt x="500" y="317" on="1"/>
        <pt x="563" y="301" on="0"/>
        <pt x="621" y="221" on="0"/>
        <pt x="621" y="159" on="1"/>
        <pt x="621" y="125" on="0"/>
        <pt x="602" y="64" on="0"/>
        <pt x="559" y="17" on="0"/>
        <pt x="489" y="-10" on="0"/>
        <pt x="437" y="-10" on="1"/>
        <pt x="250" y="-10" on="0"/>
        <pt x="250" y="84" on="1"/>
        <pt x="250" y="111" on="0"/>
        <pt x="284" y="147" on="0"/>
        <pt x="314" y="147" on="1"/>
        <pt x="332" y="147" on="0"/>
        <pt x="363" y="125" on="0"/>
        <pt x="369" y="106" on="1"/>
        <pt x="361" y="97" on="0"/>
        <pt x="352" y="76" on="0"/>
        <pt x="352" y="63" on="1"/>
        <pt x="352" y="37" on="0"/>
        <pt x="399" y="9" on="0"/>
        <pt x="437" y="9" on="1"/>
        <pt x="469" y="9" on="0"/>
        <pt x="523" y="26" on="0"/>
        <pt x="563" y="55" on="0"/>
        <pt x="586" y="94" on="0"/>
        <pt x="586" y="117" on="1"/>
        <pt x="586" y="141" on="0"/>
        <pt x="569" y="171" on="0"/>
        <pt x="540" y="191" on="0"/>
        <pt x="500" y="205" on="0"/>
        <pt x="477" y="211" on="1"/>
        <pt x="387" y="236" on="1"/>
        <pt x="324" y="254" on="0"/>
        <pt x="255" y="326" on="0"/>
        <pt x="255" y="394" on="1"/>
        <pt x="255" y="423" on="0"/>
        <pt x="273" y="465" on="0"/>
        <pt x="302" y="495" on="0"/>
        <pt x="338" y="516" on="0"/>
        <pt x="356" y="525" on="1"/>
        <pt x="381" y="537" on="0"/>
        <pt x="413" y="563" on="0"/>
        <pt x="431" y="597" on="0"/>
        <pt x="437" y="641" on="0"/>
        <pt x="437" y="672" on="1"/>
        <pt x="437" y="737" on="0"/>
        <pt x="380" y="802" on="0"/>
        <pt x="326" y="802" on="1"/>
        <pt x="260" y="802" on="0"/>
        <pt x="190" y="710" on="0"/>
        <pt x="190" y="605" on="1"/>
        <pt x="190" y="0" on="1"/>
        <pt x="20" y="0" on="1"/>
        <pt x="20" y="20" on="1"/>
        <pt x="90" y="30" on="1"/>
        <pt x="90" y="562" on="1"/>
        <pt x="90" y="820" on="0"/>
        <pt x="326" y="820" on="1"/>
        <pt x="433" y="820" on="0"/>
        <pt x="537" y="738" on="0"/>
      </contour>
    </TTGlyph>
    <TTGlyph name="grave" xMin="-20" yMin="571" xMax="144" yMax="769">
      <contour>
        <pt x="-20" y="722" on="1"/>
        <pt x="-20" y="742" on="0"/>
        <pt x="8" y="769" on="0"/>
        <pt x="27" y="769" on="1"/>
        <pt x="41" y="769" on="0"/>
        <pt x="65" y="753" on="0"/>
        <pt x="71" y="741" on="1"/>
        <pt x="144" y="583" on="1"/>
        <pt x="128" y="571" on="1"/>
        <pt x="-3" y="687" on="1"/>
        <pt x="-20" y="701" on="0"/>
      </contour>
    </TTGlyph>
    <TTGlyph name="grave.case" xMin="24" yMin="810" xMax="235" yMax="953">
      <contour>
        <pt x="59" y="861" on="1"/>
        <pt x="45" y="866" on="0"/>
        <pt x="24" y="890" on="0"/>
        <pt x="24" y="906" on="1"/>
        <pt x="24" y="924" on="0"/>
        <pt x="51" y="953" on="0"/>
        <pt x="71" y="953" on="1"/>
        <pt x="90" y="953" on="0"/>
        <pt x="104" y="941" on="1"/>
        <pt x="235" y="827" on="1"/>
        <pt x="226" y="810" on="1"/>
        <pt x="59" y="861" on="1"/>
      </contour>
    </TTGlyph>
    <TTGlyph name="greater" xMin="66" yMin="139" xMax="455" yMax="577">
      <contour>
        <pt x="455" y="347" on="1"/>
        <pt x="66" y="139" on="1"/>
        <pt x="66" y="177" on="1"/>
        <pt x="401" y="357" on="1"/>
        <pt x="66" y="539" on="1"/>
        <pt x="66" y="577" on="1"/>
        <pt x="455" y="367" on="1"/>
      </contour>
    </TTGlyph>
    <TTGlyph name="guillemotleft" xMin="45" yMin="70" xMax="313" yMax="470">
      <contour>
        <pt x="193" y="277" on="1"/>
        <pt x="304" y="395" on="1"/>
        <pt x="313" y="386" on="1"/>
        <pt x="269" y="270" on="1"/>
        <pt x="313" y="153" on="1"/>
        <pt x="304" y="145" on="1"/>
        <pt x="193" y="263" on="1"/>
      </contour>
      <contour>
        <pt x="218" y="470" on="1"/>
        <pt x="227" y="460" on="1"/>
        <pt x="133" y="270" on="1"/>
        <pt x="227" y="79" on="1"/>
        <pt x="218" y="70" on="1"/>
        <pt x="45" y="261" on="1"/>
        <pt x="45" y="279" on="1"/>
      </contour>
    </TTGlyph>
    <TTGlyph name="guillemotright" xMin="52" yMin="70" xMax="320" yMax="470">
      <contour>
        <pt x="172" y="263" on="1"/>
        <pt x="61" y="145" on="1"/>
        <pt x="52" y="153" on="1"/>
        <pt x="96" y="270" on="1"/>
        <pt x="52" y="386" on="1"/>
        <pt x="61" y="395" on="1"/>
        <pt x="172" y="277" on="1"/>
      </contour>
      <contour>
        <pt x="320" y="279" on="1"/>
        <pt x="320" y="261" on="1"/>
        <pt x="147" y="70" on="1"/>
        <pt x="138" y="79" on="1"/>
        <pt x="232" y="270" on="1"/>
        <pt x="138" y="460" on="1"/>
        <pt x="147" y="470" on="1"/>
      </contour>
    </TTGlyph>
    <TTGlyph name="guilsinglleft" xMin="45" yMin="70" xMax="227" yMax="470">
      <contour>
        <pt x="218" y="470" on="1"/>
        <pt x="227" y="460" on="1"/>
        <pt x="133" y="270" on="1"/>
        <pt x="227" y="79" on="1"/>
        <pt x="218" y="70" on="1"/>
        <pt x="45" y="261" on="1"/>
        <pt x="45" y="279" on="1"/>
      </contour>
    </TTGlyph>
    <TTGlyph name="guilsinglright" xMin="51" yMin="70" xMax="233" yMax="470">
      <contour>
        <pt x="233" y="279" on="1"/>
        <pt x="233" y="261" on="1"/>
        <pt x="60" y="70" on="1"/>
        <pt x="51" y="79" on="1"/>
        <pt x="145" y="270" on="1"/>
        <pt x="51" y="460" on="1"/>
        <pt x="60" y="470" on="1"/>
      </contour>
    </TTGlyph>
    <TTGlyph name="h" xMin="20" yMin="0" xMax="610" yMax="800">
      <contour>
        <pt x="20" y="800" on="1"/>
        <pt x="190" y="800" on="1"/>
        <pt x="190" y="410" on="1"/>
        <pt x="225" y="461" on="0"/>
        <pt x="325" y="527" on="0"/>
        <pt x="385" y="527" on="1"/>
        <pt x="455" y="527" on="0"/>
        <pt x="540" y="458" on="0"/>
        <pt x="540" y="384" on="1"/>
        <pt x="540" y="30" on="1"/>
        <pt x="610" y="20" on="1"/>
        <pt x="610" y="0" on="1"/>
        <pt x="380" y="0" on="1"/>
        <pt x="380" y="20" on="1"/>
        <pt x="440" y="30" on="1"/>
        <pt x="440" y="382" on="1"/>
        <pt x="440" y="433" on="0"/>
        <pt x="399" y="491" on="0"/>
        <pt x="354" y="491" on="1"/>
        <pt x="329" y="491" on="0"/>
        <pt x="282" y="471" on="0"/>
        <pt x="240" y="438" on="0"/>
        <pt x="204" y="396" on="0"/>
        <pt x="190" y="375" on="1"/>
        <pt x="190" y="30" on="1"/>
        <pt x="250" y="20" on="1"/>
        <pt x="250" y="0" on="1"/>
        <pt x="20" y="0" on="1"/>
        <pt x="20" y="20" on="1"/>
        <pt x="90" y="30" on="1"/>
        <pt x="90" y="770" on="1"/>
        <pt x="20" y="780" on="1"/>
      </contour>
    </TTGlyph>
    <TTGlyph name="hyphen" xMin="62" yMin="257" xMax="281" yMax="290">
      <contour>
        <pt x="62" y="290" on="1"/>
        <pt x="281" y="290" on="1"/>
        <pt x="281" y="257" on="1"/>
        <pt x="62" y="257" on="1"/>
      </contour>
    </TTGlyph>
    <TTGlyph name="i" xMin="27" yMin="0" xMax="267" yMax="767">
      <contour>
        <pt x="65" y="701" on="1"/>
        <pt x="65" y="729" on="0"/>
        <pt x="104" y="767" on="0"/>
        <pt x="133" y="767" on="1"/>
        <pt x="160" y="767" on="0"/>
        <pt x="198" y="729" on="0"/>
        <pt x="198" y="701" on="1"/>
        <pt x="198" y="673" on="0"/>
        <pt x="160" y="634" on="0"/>
        <pt x="133" y="634" on="1"/>
        <pt x="104" y="634" on="0"/>
        <pt x="65" y="673" on="0"/>
      </contour>
      <contour>
        <pt x="27" y="517" on="1"/>
        <pt x="197" y="517" on="1"/>
        <pt x="197" y="30" on="1"/>
        <pt x="267" y="20" on="1"/>
        <pt x="267" y="0" on="1"/>
        <pt x="27" y="0" on="1"/>
        <pt x="27" y="20" on="1"/>
        <pt x="97" y="30" on="1"/>
        <pt x="97" y="487" on="1"/>
        <pt x="27" y="497" on="1"/>
      </contour>
    </TTGlyph>
    <TTGlyph name="iacute" xMin="27" yMin="0" xMax="277" yMax="769">
      <component glyphName="acute" x="84" y="0" flags="0x4"/>
      <component glyphName="dotlessi" x="0" y="0" flags="0x4"/>
    </TTGlyph>
    <TTGlyph name="icircumflex" xMin="0" yMin="0" xMax="279" yMax="759">
      <component glyphName="circumflex" x="-39" y="0" flags="0x4"/>
      <component glyphName="dotlessi" x="0" y="0" flags="0x4"/>
    </TTGlyph>
    <TTGlyph name="idieresis" xMin="-9" yMin="0" xMax="295" yMax="729">
      <component glyphName="dotlessi" x="0" y="0" flags="0x204"/>
      <component glyphName="dieresis" x="-52" y="-4" flags="0x4"/>
    </TTGlyph>
    <TTGlyph name="igrave" xMin="-3" yMin="0" xMax="267" yMax="769">
      <component glyphName="grave" x="17" y="0" flags="0x4"/>
      <component glyphName="dotlessi" x="0" y="0" flags="0x4"/>
    </TTGlyph>
    <TTGlyph name="j" xMin="-31" yMin="-195" xMax="192" yMax="767">
      <contour>
        <pt x="87" y="-195" on="1"/>
        <pt x="37" y="-195" on="0"/>
        <pt x="-31" y="-140" on="0"/>
        <pt x="-31" y="-89" on="1"/>
        <pt x="-31" y="-59" on="0"/>
        <pt x="2" y="-21" on="0"/>
        <pt x="31" y="-21" on="1"/>
        <pt x="51" y="-21" on="0"/>
        <pt x="76" y="-38" on="0"/>
        <pt x="83" y="-48" on="1"/>
        <pt x="91" y="-59" on="0"/>
        <pt x="94" y="-74" on="1"/>
        <pt x="62" y="-95" on="0"/>
        <pt x="62" y="-127" on="1"/>
        <pt x="62" y="-144" on="0"/>
        <pt x="81" y="-168" on="0"/>
        <pt x="103" y="-168" on="1"/>
        <pt x="129" y="-168" on="0"/>
        <pt x="160" y="-125" on="0"/>
        <pt x="160" y="-87" on="1"/>
        <pt x="160" y="-53" on="0"/>
        <pt x="138" y="-5" on="0"/>
        <pt x="111" y="42" on="0"/>
        <pt x="89" y="94" on="0"/>
        <pt x="89" y="133" on="1"/>
        <pt x="89" y="488" on="1"/>
        <pt x="14" y="498" on="1"/>
        <pt x="14" y="518" on="1"/>
        <pt x="89" y="518" on="1"/>
        <pt x="189" y="518" on="1"/>
        <pt x="189" y="-57" on="1"/>
        <pt x="189" y="-129" on="0"/>
        <pt x="135" y="-195" on="0"/>
      </contour>
      <contour>
        <pt x="59" y="701" on="1"/>
        <pt x="59" y="729" on="0"/>
        <pt x="98" y="767" on="0"/>
        <pt x="127" y="767" on="1"/>
        <pt x="154" y="767" on="0"/>
        <pt x="192" y="729" on="0"/>
        <pt x="192" y="701" on="1"/>
        <pt x="192" y="673" on="0"/>
        <pt x="154" y="634" on="0"/>
        <pt x="127" y="634" on="1"/>
        <pt x="98" y="634" on="0"/>
        <pt x="59" y="673" on="0"/>
      </contour>
    </TTGlyph>
    <TTGlyph name="k" xMin="20" yMin="0" xMax="578" yMax="800">
      <contour>
        <pt x="20" y="20" on="1"/>
        <pt x="90" y="30" on="1"/>
        <pt x="90" y="770" on="1"/>
        <pt x="20" y="780" on="1"/>
        <pt x="20" y="800" on="1"/>
        <pt x="190" y="800" on="1"/>
        <pt x="190" y="287" on="1"/>
        <pt x="419" y="475" on="1"/>
        <pt x="332" y="498" on="1"/>
        <pt x="332" y="518" on="1"/>
        <pt x="520" y="518" on="1"/>
        <pt x="520" y="498" on="1"/>
        <pt x="456" y="475" on="1"/>
        <pt x="290" y="339" on="1"/>
        <pt x="524" y="29" on="1"/>
        <pt x="578" y="20" on="1"/>
        <pt x="578" y="0" on="1"/>
        <pt x="344" y="0" on="1"/>
        <pt x="344" y="20" on="1"/>
        <pt x="404" y="30" on="1"/>
        <pt x="216" y="278" on="1"/>
        <pt x="190" y="256" on="1"/>
        <pt x="190" y="30" on="1"/>
        <pt x="250" y="20" on="1"/>
        <pt x="250" y="0" on="1"/>
        <pt x="20" y="0" on="1"/>
      </contour>
    </TTGlyph>
    <TTGlyph name="l" xMin="18" yMin="0" xMax="263" yMax="800">
      <contour>
        <pt x="18" y="800" on="1"/>
        <pt x="193" y="800" on="1"/>
        <pt x="193" y="30" on="1"/>
        <pt x="263" y="20" on="1"/>
        <pt x="263" y="0" on="1"/>
        <pt x="18" y="0" on="1"/>
        <pt x="18" y="20" on="1"/>
        <pt x="93" y="30" on="1"/>
        <pt x="93" y="770" on="1"/>
        <pt x="18" y="780" on="1"/>
      </contour>
    </TTGlyph>
    <TTGlyph name="less" xMin="31" yMin="139" xMax="420" yMax="577">
      <contour>
        <pt x="31" y="367" on="1"/>
        <pt x="420" y="577" on="1"/>
        <pt x="420" y="539" on="1"/>
        <pt x="85" y="357" on="1"/>
        <pt x="420" y="177" on="1"/>
        <pt x="420" y="139" on="1"/>
        <pt x="31" y="347" on="1"/>
      </contour>
    </TTGlyph>
    <TTGlyph name="logicalnot" xMin="72" yMin="123" xMax="486" yMax="375">
      <contour>
        <pt x="486" y="375" on="1"/>
        <pt x="486" y="123" on="1"/>
        <pt x="450" y="123" on="1"/>
        <pt x="450" y="340" on="1"/>
        <pt x="72" y="340" on="1"/>
        <pt x="72" y="375" on="1"/>
      </contour>
    </TTGlyph>
    <TTGlyph name="m" xMin="26" yMin="0" xMax="927" yMax="527">
      <contour>
        <pt x="366" y="20" on="1"/>
        <pt x="426" y="30" on="1"/>
        <pt x="426" y="382" on="1"/>
        <pt x="426" y="433" on="0"/>
        <pt x="390" y="491" on="0"/>
        <pt x="345" y="491" on="1"/>
        <pt x="300" y="491" on="0"/>
        <pt x="224" y="430" on="0"/>
        <pt x="196" y="391" on="1"/>
        <pt x="196" y="30" on="1"/>
        <pt x="256" y="20" on="1"/>
        <pt x="256" y="0" on="1"/>
        <pt x="26" y="0" on="1"/>
        <pt x="26" y="20" on="1"/>
        <pt x="96" y="30" on="1"/>
        <pt x="96" y="488" on="1"/>
        <pt x="26" y="498" on="1"/>
        <pt x="26" y="518" on="1"/>
        <pt x="96" y="518" on="1"/>
        <pt x="196" y="518" on="1"/>
        <pt x="196" y="426" on="1"/>
        <pt x="230" y="471" on="0"/>
        <pt x="320" y="527" on="0"/>
        <pt x="376" y="527" on="1"/>
        <pt x="436" y="527" on="0"/>
        <pt x="513" y="475" on="0"/>
        <pt x="524" y="421" on="1"/>
        <pt x="558" y="468" on="0"/>
        <pt x="650" y="527" on="0"/>
        <pt x="707" y="527" on="1"/>
        <pt x="776" y="527" on="0"/>
        <pt x="857" y="458" on="0"/>
        <pt x="857" y="384" on="1"/>
        <pt x="857" y="30" on="1"/>
        <pt x="927" y="20" on="1"/>
        <pt x="927" y="0" on="1"/>
        <pt x="697" y="0" on="1"/>
        <pt x="697" y="20" on="1"/>
        <pt x="757" y="30" on="1"/>
        <pt x="757" y="382" on="1"/>
        <pt x="757" y="433" on="0"/>
        <pt x="721" y="491" on="0"/>
        <pt x="676" y="491" on="1"/>
        <pt x="631" y="491" on="0"/>
        <pt x="555" y="430" on="0"/>
        <pt x="527" y="391" on="1"/>
        <pt x="527" y="384" on="1"/>
        <pt x="527" y="30" on="1"/>
        <pt x="587" y="20" on="1"/>
        <pt x="587" y="0" on="1"/>
        <pt x="366" y="0" on="1"/>
      </contour>
    </TTGlyph>
    <TTGlyph name="macron" xMin="0" yMin="666" xMax="459" yMax="700">
      <contour>
        <pt x="459" y="666" on="1"/>
        <pt x="0" y="666" on="1"/>
        <pt x="0" y="700" on="1"/>
        <pt x="459" y="700" on="1"/>
      </contour>
    </TTGlyph>
    <TTGlyph name="minus" xMin="72" yMin="338" xMax="522" yMax="376">
      <contour>
        <pt x="72" y="376" on="1"/>
        <pt x="522" y="376" on="1"/>
        <pt x="522" y="338" on="1"/>
        <pt x="72" y="338" on="1"/>
      </contour>
    </TTGlyph>
    <TTGlyph name="mu" xMin="90" yMin="-292" xMax="616" yMax="518">
      <contour>
        <pt x="96" y="518" on="1"/>
        <pt x="196" y="518" on="1"/>
        <pt x="196" y="135" on="1"/>
        <pt x="196" y="85" on="0"/>
        <pt x="237" y="26" on="0"/>
        <pt x="282" y="26" on="1"/>
        <pt x="306" y="26" on="0"/>
        <pt x="353" y="47" on="0"/>
        <pt x="395" y="80" on="0"/>
        <pt x="431" y="122" on="0"/>
        <pt x="446" y="143" on="1"/>
        <pt x="446" y="518" on="1"/>
        <pt x="546" y="518" on="1"/>
        <pt x="546" y="30" on="1"/>
        <pt x="616" y="20" on="1"/>
        <pt x="616" y="0" on="1"/>
        <pt x="446" y="0" on="1"/>
        <pt x="446" y="107" on="1"/>
        <pt x="411" y="56" on="0"/>
        <pt x="311" y="-10" on="0"/>
        <pt x="251" y="-10" on="1"/>
        <pt x="213" y="-10" on="0"/>
        <pt x="151" y="10" on="0"/>
        <pt x="131" y="32" on="1"/>
        <pt x="139" y="-85" on="0"/>
        <pt x="197" y="-215" on="0"/>
        <pt x="250" y="-242" on="1"/>
        <pt x="239" y="-264" on="0"/>
        <pt x="194" y="-292" on="0"/>
        <pt x="165" y="-292" on="1"/>
        <pt x="131" y="-292" on="0"/>
        <pt x="90" y="-253" on="0"/>
        <pt x="90" y="-211" on="1"/>
        <pt x="90" y="-190" on="0"/>
        <pt x="90" y="-139" on="0"/>
        <pt x="91" y="-83" on="0"/>
        <pt x="92" y="-25" on="0"/>
        <pt x="93" y="2" on="1"/>
        <pt x="94" y="65" on="0"/>
        <pt x="96" y="133" on="1"/>
      </contour>
    </TTGlyph>
    <TTGlyph name="multiply" xMin="58" yMin="170" xMax="430" yMax="543">
      <contour>
        <pt x="85" y="542" on="1"/>
        <pt x="243" y="383" on="1"/>
        <pt x="403" y="543" on="1"/>
        <pt x="430" y="516" on="1"/>
        <pt x="270" y="356" on="1"/>
        <pt x="430" y="197" on="1"/>
        <pt x="403" y="170" on="1"/>
        <pt x="244" y="330" on="1"/>
        <pt x="85" y="171" on="1"/>
        <pt x="58" y="198" on="1"/>
        <pt x="216" y="356" on="1"/>
        <pt x="58" y="515" on="1"/>
      </contour>
    </TTGlyph>
    <TTGlyph name="n" xMin="26" yMin="0" xMax="616" yMax="527">
      <contour>
        <pt x="386" y="20" on="1"/>
        <pt x="446" y="30" on="1"/>
        <pt x="446" y="382" on="1"/>
        <pt x="446" y="433" on="0"/>
        <pt x="405" y="491" on="0"/>
        <pt x="360" y="491" on="1"/>
        <pt x="335" y="491" on="0"/>
        <pt x="288" y="471" on="0"/>
        <pt x="246" y="438" on="0"/>
        <pt x="210" y="396" on="0"/>
        <pt x="196" y="375" on="1"/>
        <pt x="196" y="30" on="1"/>
        <pt x="256" y="20" on="1"/>
        <pt x="256" y="0" on="1"/>
        <pt x="26" y="0" on="1"/>
        <pt x="26" y="20" on="1"/>
        <pt x="96" y="30" on="1"/>
        <pt x="96" y="488" on="1"/>
        <pt x="26" y="498" on="1"/>
        <pt x="26" y="518" on="1"/>
        <pt x="96" y="518" on="1"/>
        <pt x="196" y="518" on="1"/>
        <pt x="196" y="410" on="1"/>
        <pt x="231" y="461" on="0"/>
        <pt x="331" y="527" on="0"/>
        <pt x="391" y="527" on="1"/>
        <pt x="461" y="527" on="0"/>
        <pt x="546" y="458" on="0"/>
        <pt x="546" y="384" on="1"/>
        <pt x="546" y="30" on="1"/>
        <pt x="616" y="20" on="1"/>
        <pt x="616" y="0" on="1"/>
        <pt x="386" y="0" on="1"/>
      </contour>
    </TTGlyph>
    <TTGlyph name="nine" xMin="49" yMin="-20" xMax="587" yMax="820">
      <contour>
        <pt x="292" y="0" on="1"/>
        <pt x="327" y="0" on="0"/>
        <pt x="389" y="26" on="0"/>
        <pt x="436" y="88" on="0"/>
        <pt x="463" y="190" on="0"/>
        <pt x="463" y="265" on="1"/>
        <pt x="463" y="377" on="1"/>
        <pt x="434" y="340" on="0"/>
        <pt x="349" y="302" on="0"/>
        <pt x="301" y="302" on="1"/>
        <pt x="246" y="302" on="0"/>
        <pt x="154" y="336" on="0"/>
        <pt x="87" y="400" on="0"/>
        <pt x="49" y="495" on="0"/>
        <pt x="49" y="556" on="1"/>
        <pt x="49" y="619" on="0"/>
        <pt x="93" y="718" on="0"/>
        <pt x="167" y="785" on="0"/>
        <pt x="264" y="820" on="0"/>
        <pt x="318" y="820" on="1"/>
        <pt x="396" y="820" on="0"/>
        <pt x="500" y="756" on="0"/>
        <pt x="561" y="641" on="0"/>
        <pt x="587" y="483" on="0"/>
        <pt x="587" y="390" on="1"/>
        <pt x="587" y="287" on="0"/>
        <pt x="545" y="133" on="0"/>
        <pt x="468" y="31" on="0"/>
        <pt x="359" y="-20" on="0"/>
        <pt x="292" y="-20" on="1"/>
        <pt x="245" y="-20" on="0"/>
        <pt x="165" y="0" on="0"/>
        <pt x="107" y="36" on="0"/>
        <pt x="74" y="86" on="0"/>
        <pt x="74" y="115" on="1"/>
        <pt x="74" y="148" on="0"/>
        <pt x="116" y="196" on="0"/>
        <pt x="149" y="196" on="1"/>
        <pt x="175" y="196" on="0"/>
        <pt x="212" y="166" on="0"/>
        <pt x="212" y="140" on="1"/>
        <pt x="197" y="128" on="0"/>
        <pt x="184" y="104" on="0"/>
        <pt x="184" y="87" on="1"/>
        <pt x="184" y="51" on="0"/>
        <pt x="242" y="0" on="0"/>
      </contour>
      <contour>
        <pt x="308" y="326" on="1"/>
        <pt x="356" y="326" on="0"/>
        <pt x="441" y="378" on="0"/>
        <pt x="464" y="425" on="1"/>
        <pt x="465" y="564" on="1"/>
        <pt x="466" y="674" on="0"/>
        <pt x="395" y="798" on="0"/>
        <pt x="318" y="798" on="1"/>
        <pt x="245" y="798" on="0"/>
        <pt x="169" y="696" on="0"/>
        <pt x="169" y="606" on="1"/>
        <pt x="169" y="508" on="1"/>
        <pt x="169" y="423" on="0"/>
        <pt x="236" y="326" on="0"/>
      </contour>
    </TTGlyph>
    <TTGlyph name="ntilde" xMin="26" yMin="0" xMax="616" yMax="737">
      <component glyphName="n" x="0" y="0" flags="0x204"/>
      <component glyphName="tilde" x="119" y="0" flags="0x4"/>
    </TTGlyph>
    <TTGlyph name="numbersign" xMin="36" yMin="0" xMax="541" yMax="715">
      <contour>
        <pt x="69" y="428" on="1"/>
        <pt x="180" y="428" on="1"/>
        <pt x="234" y="715" on="1"/>
        <pt x="280" y="715" on="1"/>
        <pt x="225" y="428" on="1"/>
        <pt x="380" y="428" on="1"/>
        <pt x="434" y="715" on="1"/>
        <pt x="480" y="715" on="1"/>
        <pt x="425" y="428" on="1"/>
        <pt x="541" y="428" on="1"/>
        <pt x="541" y="383" on="1"/>
        <pt x="417" y="383" on="1"/>
        <pt x="393" y="255" on="1"/>
        <pt x="508" y="255" on="1"/>
        <pt x="508" y="210" on="1"/>
        <pt x="384" y="210" on="1"/>
        <pt x="345" y="0" on="1"/>
        <pt x="300" y="0" on="1"/>
        <pt x="339" y="210" on="1"/>
        <pt x="184" y="210" on="1"/>
        <pt x="145" y="0" on="1"/>
        <pt x="100" y="0" on="1"/>
        <pt x="139" y="210" on="1"/>
        <pt x="36" y="210" on="1"/>
        <pt x="36" y="255" on="1"/>
        <pt x="148" y="255" on="1"/>
        <pt x="172" y="383" on="1"/>
        <pt x="69" y="383" on="1"/>
      </contour>
      <contour>
        <pt x="193" y="255" on="1"/>
        <pt x="348" y="255" on="1"/>
        <pt x="372" y="383" on="1"/>
        <pt x="217" y="383" on="1"/>
      </contour>
    </TTGlyph>
    <TTGlyph name="o" xMin="41" yMin="-10" xMax="559" yMax="527">
      <contour>
        <pt x="449" y="309" on="1"/>
        <pt x="449" y="351" on="0"/>
        <pt x="431" y="423" on="0"/>
        <pt x="395" y="476" on="0"/>
        <pt x="339" y="505" on="0"/>
        <pt x="300" y="505" on="1"/>
        <pt x="261" y="505" on="0"/>
        <pt x="205" y="476" on="0"/>
        <pt x="169" y="423" on="0"/>
        <pt x="151" y="351" on="0"/>
        <pt x="151" y="309" on="1"/>
        <pt x="151" y="209" on="1"/>
        <pt x="151" y="167" on="0"/>
        <pt x="169" y="94" on="0"/>
        <pt x="205" y="42" on="0"/>
        <pt x="261" y="12" on="0"/>
        <pt x="300" y="12" on="1"/>
        <pt x="339" y="12" on="0"/>
        <pt x="395" y="42" on="0"/>
        <pt x="431" y="94" on="0"/>
        <pt x="449" y="167" on="0"/>
        <pt x="449" y="209" on="1"/>
      </contour>
      <contour>
        <pt x="41" y="259" on="1"/>
        <pt x="41" y="320" on="0"/>
        <pt x="82" y="419" on="0"/>
        <pt x="152" y="489" on="0"/>
        <pt x="246" y="527" on="0"/>
        <pt x="300" y="527" on="1"/>
        <pt x="354" y="527" on="0"/>
        <pt x="448" y="489" on="0"/>
        <pt x="518" y="419" on="0"/>
        <pt x="559" y="320" on="0"/>
        <pt x="559" y="259" on="1"/>
        <pt x="559" y="198" on="0"/>
        <pt x="518" y="99" on="0"/>
        <pt x="448" y="28" on="0"/>
        <pt x="354" y="-10" on="0"/>
        <pt x="300" y="-10" on="1"/>
        <pt x="246" y="-10" on="0"/>
        <pt x="152" y="28" on="0"/>
        <pt x="82" y="99" on="0"/>
        <pt x="41" y="198" on="0"/>
      </contour>
    </TTGlyph>
    <TTGlyph name="oacute" xMin="41" yMin="-10" xMax="559" yMax="769">
      <component glyphName="o" x="0" y="0" flags="0x204"/>
      <component glyphName="acute" x="258" y="0" flags="0x4"/>
    </TTGlyph>
    <TTGlyph name="ocircumflex" xMin="41" yMin="-10" xMax="559" yMax="759">
      <component glyphName="o" x="0" y="0" flags="0x204"/>
      <component glyphName="circumflex" x="122" y="0" flags="0x4"/>
    </TTGlyph>
    <TTGlyph name="odieresis" xMin="41" yMin="-10" xMax="559" yMax="729">
      <component glyphName="o" x="0" y="0" flags="0x204"/>
      <component glyphName="dieresis" x="105" y="-4" flags="0x4"/>
    </TTGlyph>
    <TTGlyph name="oe" xMin="41" yMin="-10" xMax="928" yMax="527">
      <contour>
        <pt x="713" y="12" on="1"/>
        <pt x="747" y="12" on="0"/>
        <pt x="810" y="32" on="0"/>
        <pt x="860" y="69" on="0"/>
        <pt x="894" y="120" on="0"/>
        <pt x="900" y="152" on="1"/>
        <pt x="923" y="152" on="1"/>
        <pt x="909" y="77" on="0"/>
        <pt x="796" y="-10" on="0"/>
        <pt x="713" y="-10" on="1"/>
        <pt x="648" y="-10" on="0"/>
        <pt x="540" y="41" on="0"/>
        <pt x="504" y="88" on="1"/>
        <pt x="469" y="41" on="0"/>
        <pt x="363" y="-10" on="0"/>
        <pt x="300" y="-10" on="1"/>
        <pt x="246" y="-10" on="0"/>
        <pt x="152" y="28" on="0"/>
        <pt x="82" y="99" on="0"/>
        <pt x="41" y="198" on="0"/>
        <pt x="41" y="259" on="1"/>
        <pt x="41" y="320" on="0"/>
        <pt x="82" y="419" on="0"/>
        <pt x="152" y="489" on="0"/>
        <pt x="246" y="527" on="0"/>
        <pt x="300" y="527" on="1"/>
        <pt x="363" y="527" on="0"/>
        <pt x="468" y="477" on="0"/>
        <pt x="504" y="430" on="1"/>
        <pt x="539" y="477" on="0"/>
        <pt x="645" y="527" on="0"/>
        <pt x="708" y="527" on="1"/>
        <pt x="756" y="527" on="0"/>
        <pt x="836" y="495" on="0"/>
        <pt x="894" y="437" on="0"/>
        <pt x="927" y="356" on="0"/>
        <pt x="928" y="308" on="1"/>
        <pt x="560" y="308" on="1"/>
        <pt x="560" y="209" on="1"/>
        <pt x="560" y="167" on="0"/>
        <pt x="579" y="94" on="0"/>
        <pt x="617" y="42" on="0"/>
        <pt x="674" y="12" on="0"/>
      </contour>
      <contour>
        <pt x="449" y="309" on="1"/>
        <pt x="449" y="351" on="0"/>
        <pt x="431" y="423" on="0"/>
        <pt x="395" y="476" on="0"/>
        <pt x="339" y="505" on="0"/>
        <pt x="300" y="505" on="1"/>
        <pt x="261" y="505" on="0"/>
        <pt x="205" y="476" on="0"/>
        <pt x="169" y="423" on="0"/>
        <pt x="151" y="351" on="0"/>
        <pt x="151" y="309" on="1"/>
        <pt x="151" y="209" on="1"/>
        <pt x="151" y="167" on="0"/>
        <pt x="169" y="94" on="0"/>
        <pt x="205" y="42" on="0"/>
        <pt x="261" y="12" on="0"/>
        <pt x="300" y="12" on="1"/>
        <pt x="339" y="12" on="0"/>
        <pt x="395" y="42" on="0"/>
        <pt x="431" y="94" on="0"/>
        <pt x="449" y="167" on="0"/>
        <pt x="449" y="209" on="1"/>
      </contour>
      <contour>
        <pt x="707" y="505" on="1"/>
        <pt x="672" y="505" on="0"/>
        <pt x="619" y="479" on="0"/>
        <pt x="583" y="434" on="0"/>
        <pt x="563" y="370" on="0"/>
        <pt x="561" y="333" on="1"/>
        <pt x="818" y="333" on="1"/>
        <pt x="818" y="505" on="0"/>
      </contour>
    </TTGlyph>
    <TTGlyph name="ograve" xMin="41" yMin="-10" xMax="559" yMax="769">
      <component glyphName="o" x="0" y="0" flags="0x204"/>
      <component glyphName="grave" x="180" y="0" flags="0x4"/>
    </TTGlyph>
    <TTGlyph name="one" xMin="52" yMin="0" xMax="292" yMax="800">
      <contour>
        <pt x="52" y="800" on="1"/>
        <pt x="222" y="800" on="1"/>
        <pt x="222" y="30" on="1"/>
        <pt x="292" y="20" on="1"/>
        <pt x="292" y="0" on="1"/>
        <pt x="52" y="0" on="1"/>
        <pt x="52" y="20" on="1"/>
        <pt x="122" y="30" on="1"/>
        <pt x="122" y="770" on="1"/>
        <pt x="52" y="780" on="1"/>
      </contour>
    </TTGlyph>
    <TTGlyph name="onehalf" xMin="47" yMin="0" xMax="658" yMax="800">
      <component glyphName="onesuperior" x="-3" y="0" flags="0x4"/>
      <component glyphName="twosuperior" x="332" y="-379" flags="0x4"/>
      <component glyphName="fraction" x="112" y="0" flags="0x4"/>
    </TTGlyph>
    <TTGlyph name="onequarter" xMin="44" yMin="0" xMax="629" yMax="800">
      <component glyphName="onesuperior" x="-6" y="0" flags="0x4"/>
      <component glyphName="foursuperior" x="319" y="-374" flags="0x4"/>
      <component glyphName="fraction" x="140" y="0" flags="0x4"/>
    </TTGlyph>
    <TTGlyph name="onesuperior" xMin="50" yMin="375" xMax="206" yMax="800">
      <contour>
        <pt x="50" y="800" on="1"/>
        <pt x="164" y="800" on="1"/>
        <pt x="164" y="401" on="1"/>
        <pt x="206" y="396" on="1"/>
        <pt x="206" y="375" on="1"/>
        <pt x="50" y="375" on="1"/>
        <pt x="50" y="396" on="1"/>
        <pt x="92" y="401" on="1"/>
        <pt x="92" y="774" on="1"/>
        <pt x="50" y="779" on="1"/>
      </contour>
    </TTGlyph>
    <TTGlyph name="ordfeminine" xMin="41" yMin="371" xMax="474" yMax="805">
      <contour>
        <pt x="307" y="624" on="1"/>
        <pt x="307" y="696" on="1"/>
        <pt x="307" y="743" on="0"/>
        <pt x="268" y="777" on="0"/>
        <pt x="229" y="777" on="1"/>
        <pt x="196" y="777" on="0"/>
        <pt x="154" y="753" on="0"/>
        <pt x="154" y="732" on="1"/>
        <pt x="154" y="707" on="0"/>
        <pt x="179" y="698" on="1"/>
        <pt x="179" y="675" on="0"/>
        <pt x="144" y="642" on="0"/>
        <pt x="121" y="642" on="1"/>
        <pt x="98" y="642" on="0"/>
        <pt x="67" y="675" on="0"/>
        <pt x="67" y="698" on="1"/>
        <pt x="67" y="724" on="0"/>
        <pt x="93" y="764" on="0"/>
        <pt x="138" y="791" on="0"/>
        <pt x="197" y="805" on="0"/>
        <pt x="229" y="805" on="1"/>
        <pt x="264" y="805" on="0"/>
        <pt x="326" y="792" on="0"/>
        <pt x="371" y="763" on="0"/>
        <pt x="397" y="715" on="0"/>
        <pt x="397" y="680" on="1"/>
        <pt x="397" y="433" on="1"/>
        <pt x="397" y="407" on="0"/>
        <pt x="423" y="407" on="1"/>
        <pt x="433" y="407" on="0"/>
        <pt x="447" y="420" on="0"/>
        <pt x="447" y="432" on="1"/>
        <pt x="474" y="432" on="1"/>
        <pt x="474" y="403" on="0"/>
        <pt x="432" y="371" on="0"/>
        <pt x="397" y="371" on="1"/>
        <pt x="369" y="371" on="0"/>
        <pt x="318" y="401" on="0"/>
        <pt x="310" y="436" on="1"/>
        <pt x="288" y="405" on="0"/>
        <pt x="214" y="371" on="0"/>
        <pt x="166" y="371" on="1"/>
        <pt x="140" y="371" on="0"/>
        <pt x="94" y="384" on="0"/>
        <pt x="60" y="410" on="0"/>
        <pt x="41" y="450" on="0"/>
        <pt x="41" y="478" on="1"/>
        <pt x="41" y="520" on="0"/>
        <pt x="84" y="576" on="0"/>
        <pt x="153" y="610" on="0"/>
        <pt x="239" y="624" on="0"/>
        <pt x="282" y="624" on="1"/>
      </contour>
      <contour>
        <pt x="307" y="595" on="1"/>
        <pt x="282" y="595" on="1"/>
        <pt x="253" y="595" on="0"/>
        <pt x="201" y="580" on="0"/>
        <pt x="161" y="551" on="0"/>
        <pt x="138" y="507" on="0"/>
        <pt x="138" y="478" on="1"/>
        <pt x="138" y="446" on="0"/>
        <pt x="169" y="409" on="0"/>
        <pt x="200" y="409" on="1"/>
        <pt x="218" y="409" on="0"/>
        <pt x="254" y="423" on="0"/>
        <pt x="284" y="451" on="0"/>
        <pt x="304" y="491" on="0"/>
        <pt x="307" y="517" on="1"/>
      </contour>
    </TTGlyph>
    <TTGlyph name="ordmasculine" xMin="36" yMin="371" xMax="465" yMax="805">
      <contour>
        <pt x="366" y="628" on="1"/>
        <pt x="366" y="661" on="0"/>
        <pt x="353" y="715" on="0"/>
        <pt x="325" y="755" on="0"/>
        <pt x="281" y="777" on="0"/>
        <pt x="250" y="777" on="1"/>
        <pt x="219" y="777" on="0"/>
        <pt x="175" y="755" on="0"/>
        <pt x="147" y="715" on="0"/>
        <pt x="134" y="661" on="0"/>
        <pt x="134" y="628" on="1"/>
        <pt x="134" y="547" on="1"/>
        <pt x="134" y="514" on="0"/>
        <pt x="147" y="460" on="0"/>
        <pt x="175" y="420" on="0"/>
        <pt x="219" y="398" on="0"/>
        <pt x="250" y="398" on="1"/>
        <pt x="281" y="398" on="0"/>
        <pt x="325" y="420" on="0"/>
        <pt x="353" y="460" on="0"/>
        <pt x="366" y="514" on="0"/>
        <pt x="366" y="547" on="1"/>
      </contour>
      <contour>
        <pt x="36" y="587" on="1"/>
        <pt x="36" y="637" on="0"/>
        <pt x="69" y="717" on="0"/>
        <pt x="126" y="774" on="0"/>
        <pt x="205" y="805" on="0"/>
        <pt x="250" y="805" on="1"/>
        <pt x="295" y="805" on="0"/>
        <pt x="373" y="774" on="0"/>
        <pt x="432" y="717" on="0"/>
        <pt x="465" y="637" on="0"/>
        <pt x="465" y="587" on="1"/>
        <pt x="465" y="538" on="0"/>
        <pt x="432" y="458" on="0"/>
        <pt x="373" y="402" on="0"/>
        <pt x="295" y="371" on="0"/>
        <pt x="250" y="371" on="1"/>
        <pt x="205" y="371" on="0"/>
        <pt x="126" y="402" on="0"/>
        <pt x="69" y="458" on="0"/>
        <pt x="36" y="538" on="0"/>
      </contour>
    </TTGlyph>
    <TTGlyph name="oslash" xMin="41" yMin="-74" xMax="559" yMax="601">
      <contour>
        <pt x="41" y="259" on="1"/>
        <pt x="41" y="320" on="0"/>
        <pt x="82" y="419" on="0"/>
        <pt x="152" y="489" on="0"/>
        <pt x="246" y="527" on="0"/>
        <pt x="300" y="527" on="1"/>
        <pt x="347" y="527" on="0"/>
        <pt x="393" y="511" on="1"/>
        <pt x="433" y="601" on="1"/>
        <pt x="473" y="601" on="1"/>
        <pt x="427" y="496" on="1"/>
        <pt x="487" y="464" on="0"/>
        <pt x="559" y="342" on="0"/>
        <pt x="559" y="259" on="1"/>
        <pt x="559" y="198" on="0"/>
        <pt x="518" y="99" on="0"/>
        <pt x="448" y="28" on="0"/>
        <pt x="354" y="-10" on="0"/>
        <pt x="300" y="-10" on="1"/>
        <pt x="249" y="-10" on="0"/>
        <pt x="204" y="7" on="1"/>
        <pt x="168" y="-74" on="1"/>
        <pt x="128" y="-74" on="1"/>
        <pt x="171" y="22" on="1"/>
        <pt x="112" y="54" on="0"/>
        <pt x="41" y="176" on="0"/>
      </contour>
      <contour>
        <pt x="449" y="309" on="1"/>
        <pt x="449" y="355" on="0"/>
        <pt x="429" y="432" on="0"/>
        <pt x="407" y="458" on="1"/>
        <pt x="219" y="35" on="1"/>
        <pt x="253" y="12" on="0"/>
        <pt x="300" y="12" on="1"/>
        <pt x="339" y="12" on="0"/>
        <pt x="395" y="42" on="0"/>
        <pt x="431" y="94" on="0"/>
        <pt x="449" y="167" on="0"/>
        <pt x="449" y="209" on="1"/>
      </contour>
      <contour>
        <pt x="151" y="209" on="1"/>
        <pt x="151" y="164" on="0"/>
        <pt x="171" y="89" on="0"/>
        <pt x="191" y="62" on="1"/>
        <pt x="378" y="484" on="1"/>
        <pt x="362" y="494" on="0"/>
        <pt x="323" y="505" on="0"/>
        <pt x="300" y="505" on="1"/>
        <pt x="261" y="505" on="0"/>
        <pt x="205" y="476" on="0"/>
        <pt x="169" y="423" on="0"/>
        <pt x="151" y="351" on="0"/>
        <pt x="151" y="309" on="1"/>
      </contour>
    </TTGlyph>
    <TTGlyph name="otilde" xMin="41" yMin="-10" xMax="559" yMax="737">
      <component glyphName="o" x="0" y="0" flags="0x204"/>
      <component glyphName="tilde" x="88" y="0" flags="0x4"/>
    </TTGlyph>
    <TTGlyph name="p" xMin="20" yMin="-283" xMax="598" yMax="527">
      <contour>
        <pt x="190" y="412" on="1"/>
        <pt x="214" y="464" on="0"/>
        <pt x="298" y="527" on="0"/>
        <pt x="359" y="527" on="1"/>
        <pt x="413" y="527" on="0"/>
        <pt x="501" y="489" on="0"/>
        <pt x="564" y="418" on="0"/>
        <pt x="598" y="319" on="0"/>
        <pt x="598" y="258" on="1"/>
        <pt x="598" y="197" on="0"/>
        <pt x="564" y="98" on="0"/>
        <pt x="501" y="28" on="0"/>
        <pt x="413" y="-10" on="0"/>
        <pt x="359" y="-10" on="1"/>
        <pt x="298" y="-10" on="0"/>
        <pt x="214" y="53" on="0"/>
        <pt x="190" y="104" on="1"/>
        <pt x="190" y="-253" on="1"/>
        <pt x="284" y="-263" on="1"/>
        <pt x="284" y="-283" on="1"/>
        <pt x="20" y="-283" on="1"/>
        <pt x="20" y="-263" on="1"/>
        <pt x="90" y="-253" on="1"/>
        <pt x="90" y="487" on="1"/>
        <pt x="20" y="497" on="1"/>
        <pt x="20" y="517" on="1"/>
        <pt x="190" y="517" on="1"/>
      </contour>
      <contour>
        <pt x="488" y="308" on="1"/>
        <pt x="488" y="350" on="0"/>
        <pt x="474" y="422" on="0"/>
        <pt x="441" y="473" on="0"/>
        <pt x="388" y="502" on="0"/>
        <pt x="349" y="502" on="1"/>
        <pt x="315" y="502" on="0"/>
        <pt x="257" y="472" on="0"/>
        <pt x="215" y="420" on="0"/>
        <pt x="191" y="352" on="0"/>
        <pt x="190" y="315" on="1"/>
        <pt x="190" y="208" on="1"/>
        <pt x="190" y="169" on="0"/>
        <pt x="214" y="99" on="0"/>
        <pt x="256" y="46" on="0"/>
        <pt x="314" y="15" on="0"/>
        <pt x="349" y="15" on="1"/>
        <pt x="388" y="15" on="0"/>
        <pt x="441" y="44" on="0"/>
        <pt x="474" y="95" on="0"/>
        <pt x="488" y="166" on="0"/>
        <pt x="488" y="208" on="1"/>
      </contour>
    </TTGlyph>
    <TTGlyph name="paragraph" xMin="32" yMin="-112" xMax="504" yMax="800">
      <contour>
        <pt x="228" y="426" on="1"/>
        <pt x="180" y="426" on="0"/>
        <pt x="107" y="455" on="0"/>
        <pt x="58" y="506" on="0"/>
        <pt x="32" y="574" on="0"/>
        <pt x="32" y="613" on="1"/>
        <pt x="32" y="652" on="0"/>
        <pt x="57" y="720" on="0"/>
        <pt x="107" y="771" on="0"/>
        <pt x="180" y="800" on="0"/>
        <pt x="227" y="800" on="1"/>
        <pt x="504" y="800" on="1"/>
        <pt x="504" y="778" on="1"/>
        <pt x="412" y="764" on="1"/>
        <pt x="412" y="-112" on="1"/>
        <pt x="370" y="-112" on="1"/>
        <pt x="370" y="767" on="1"/>
        <pt x="271" y="767" on="1"/>
        <pt x="271" y="-112" on="1"/>
        <pt x="228" y="-112" on="1"/>
      </contour>
    </TTGlyph>
    <TTGlyph name="parenleft" xMin="37" yMin="-195" xMax="350" yMax="907">
      <contour>
        <pt x="157" y="356" on="1"/>
        <pt x="157" y="230" on="0"/>
        <pt x="195" y="46" on="0"/>
        <pt x="252" y="-82" on="0"/>
        <pt x="320" y="-156" on="0"/>
        <pt x="350" y="-171" on="1"/>
        <pt x="344" y="-195" on="1"/>
        <pt x="273" y="-174" on="0"/>
        <pt x="159" y="-77" on="0"/>
        <pt x="80" y="65" on="0"/>
        <pt x="37" y="249" on="0"/>
        <pt x="37" y="356" on="1"/>
        <pt x="37" y="464" on="0"/>
        <pt x="80" y="648" on="0"/>
        <pt x="159" y="790" on="0"/>
        <pt x="272" y="886" on="0"/>
        <pt x="343" y="907" on="1"/>
        <pt x="350" y="884" on="1"/>
        <pt x="308" y="869" on="0"/>
        <pt x="238" y="795" on="0"/>
        <pt x="186" y="668" on="0"/>
        <pt x="157" y="482" on="0"/>
      </contour>
    </TTGlyph>
    <TTGlyph name="parenright" xMin="-6" yMin="-195" xMax="307" yMax="907">
      <contour>
        <pt x="187" y="356" on="1"/>
        <pt x="187" y="482" on="0"/>
        <pt x="158" y="668" on="0"/>
        <pt x="106" y="795" on="0"/>
        <pt x="36" y="869" on="0"/>
        <pt x="-6" y="884" on="1"/>
        <pt x="1" y="907" on="1"/>
        <pt x="71" y="886" on="0"/>
        <pt x="185" y="790" on="0"/>
        <pt x="264" y="648" on="0"/>
        <pt x="307" y="464" on="0"/>
        <pt x="307" y="356" on="1"/>
        <pt x="307" y="249" on="0"/>
        <pt x="264" y="65" on="0"/>
        <pt x="185" y="-77" on="0"/>
        <pt x="71" y="-174" on="0"/>
        <pt x="0" y="-195" on="1"/>
        <pt x="-6" y="-171" on="1"/>
        <pt x="24" y="-156" on="0"/>
        <pt x="92" y="-82" on="0"/>
        <pt x="149" y="46" on="0"/>
        <pt x="187" y="230" on="0"/>
      </contour>
    </TTGlyph>
    <TTGlyph name="percent" xMin="36" yMin="-5" xMax="789" yMax="805">
      <contour>
        <pt x="194" y="370" on="1"/>
        <pt x="160" y="370" on="0"/>
        <pt x="102" y="397" on="0"/>
        <pt x="60" y="452" on="0"/>
        <pt x="36" y="534" on="0"/>
        <pt x="36" y="588" on="1"/>
        <pt x="36" y="642" on="0"/>
        <pt x="60" y="724" on="0"/>
        <pt x="102" y="778" on="0"/>
        <pt x="160" y="805" on="0"/>
        <pt x="194" y="805" on="1"/>
        <pt x="263" y="805" on="0"/>
        <pt x="353" y="697" on="0"/>
        <pt x="353" y="588" on="1"/>
        <pt x="353" y="479" on="0"/>
        <pt x="263" y="370" on="0"/>
      </contour>
      <contour>
        <pt x="194" y="392" on="1"/>
        <pt x="232" y="392" on="0"/>
        <pt x="275" y="457" on="0"/>
        <pt x="275" y="537" on="1"/>
        <pt x="275" y="639" on="1"/>
        <pt x="275" y="719" on="0"/>
        <pt x="232" y="784" on="0"/>
        <pt x="194" y="784" on="1"/>
        <pt x="156" y="784" on="0"/>
        <pt x="113" y="719" on="0"/>
        <pt x="113" y="639" on="1"/>
        <pt x="113" y="537" on="1"/>
        <pt x="113" y="457" on="0"/>
        <pt x="156" y="392" on="0"/>
      </contour>
      <contour>
        <pt x="631" y="-5" on="1"/>
        <pt x="562" y="-5" on="0"/>
        <pt x="472" y="104" on="0"/>
        <pt x="472" y="213" on="1"/>
        <pt x="472" y="322" on="0"/>
        <pt x="562" y="430" on="0"/>
        <pt x="631" y="430" on="1"/>
        <pt x="665" y="430" on="0"/>
        <pt x="723" y="403" on="0"/>
        <pt x="765" y="349" on="0"/>
        <pt x="789" y="267" on="0"/>
        <pt x="789" y="213" on="1"/>
        <pt x="789" y="159" on="0"/>
        <pt x="765" y="77" on="0"/>
        <pt x="723" y="22" on="0"/>
        <pt x="665" y="-5" on="0"/>
      </contour>
      <contour>
        <pt x="631" y="17" on="1"/>
        <pt x="669" y="17" on="0"/>
        <pt x="712" y="82" on="0"/>
        <pt x="712" y="162" on="1"/>
        <pt x="712" y="264" on="1"/>
        <pt x="712" y="344" on="0"/>
        <pt x="669" y="409" on="0"/>
        <pt x="631" y="409" on="1"/>
        <pt x="593" y="409" on="0"/>
        <pt x="550" y="344" on="0"/>
        <pt x="550" y="264" on="1"/>
        <pt x="550" y="162" on="1"/>
        <pt x="550" y="82" on="0"/>
        <pt x="593" y="17" on="0"/>
      </contour>
      <contour>
        <pt x="239" y="0" on="1"/>
        <pt x="187" y="0" on="1"/>
        <pt x="587" y="800" on="1"/>
        <pt x="638" y="800" on="1"/>
      </contour>
    </TTGlyph>
    <TTGlyph name="period" xMin="48" yMin="-10" xMax="167" yMax="108">
      <contour>
        <pt x="48" y="50" on="1"/>
        <pt x="48" y="75" on="0"/>
        <pt x="83" y="108" on="0"/>
        <pt x="108" y="108" on="1"/>
        <pt x="133" y="108" on="0"/>
        <pt x="167" y="75" on="0"/>
        <pt x="167" y="50" on="1"/>
        <pt x="167" y="25" on="0"/>
        <pt x="133" y="-10" on="0"/>
        <pt x="108" y="-10" on="1"/>
        <pt x="83" y="-10" on="0"/>
        <pt x="48" y="25" on="0"/>
      </contour>
    </TTGlyph>
    <TTGlyph name="periodcentered" xMin="55" yMin="234" xMax="185" yMax="364">
      <contour>
        <pt x="55" y="299" on="1"/>
        <pt x="55" y="325" on="0"/>
        <pt x="94" y="364" on="0"/>
        <pt x="120" y="364" on="1"/>
        <pt x="146" y="364" on="0"/>
        <pt x="185" y="325" on="0"/>
        <pt x="185" y="299" on="1"/>
        <pt x="185" y="273" on="0"/>
        <pt x="146" y="234" on="0"/>
        <pt x="120" y="234" on="1"/>
        <pt x="94" y="234" on="0"/>
        <pt x="55" y="273" on="0"/>
      </contour>
    </TTGlyph>
    <TTGlyph name="plus" xMin="33" yMin="127" xMax="492" yMax="586">
      <contour>
        <pt x="281" y="586" on="1"/>
        <pt x="281" y="376" on="1"/>
        <pt x="492" y="376" on="1"/>
        <pt x="492" y="338" on="1"/>
        <pt x="281" y="338" on="1"/>
        <pt x="281" y="127" on="1"/>
        <pt x="243" y="127" on="1"/>
        <pt x="243" y="338" on="1"/>
        <pt x="33" y="338" on="1"/>
        <pt x="33" y="376" on="1"/>
        <pt x="243" y="376" on="1"/>
        <pt x="243" y="586" on="1"/>
      </contour>
    </TTGlyph>
    <TTGlyph name="plusminus" xMin="74" yMin="112" xMax="533" yMax="537">
      <contour>
        <pt x="74" y="150" on="1"/>
        <pt x="533" y="150" on="1"/>
        <pt x="533" y="112" on="1"/>
        <pt x="74" y="112" on="1"/>
      </contour>
      <contour>
        <pt x="322" y="537" on="1"/>
        <pt x="322" y="376" on="1"/>
        <pt x="533" y="376" on="1"/>
        <pt x="533" y="338" on="1"/>
        <pt x="322" y="338" on="1"/>
        <pt x="322" y="177" on="1"/>
        <pt x="284" y="177" on="1"/>
        <pt x="284" y="338" on="1"/>
        <pt x="74" y="338" on="1"/>
        <pt x="74" y="376" on="1"/>
        <pt x="284" y="376" on="1"/>
        <pt x="284" y="537" on="1"/>
      </contour>
    </TTGlyph>
    <TTGlyph name="q" xMin="42" yMin="-283" xMax="620" yMax="527">
      <contour>
        <pt x="450" y="104" on="1"/>
        <pt x="426" y="53" on="0"/>
        <pt x="341" y="-10" on="0"/>
        <pt x="281" y="-10" on="1"/>
        <pt x="227" y="-10" on="0"/>
        <pt x="139" y="28" on="0"/>
        <pt x="76" y="98" on="0"/>
        <pt x="42" y="197" on="0"/>
        <pt x="42" y="258" on="1"/>
        <pt x="42" y="319" on="0"/>
        <pt x="76" y="418" on="0"/>
        <pt x="139" y="489" on="0"/>
        <pt x="227" y="527" on="0"/>
        <pt x="281" y="527" on="1"/>
        <pt x="341" y="527" on="0"/>
        <pt x="426" y="464" on="0"/>
        <pt x="450" y="412" on="1"/>
        <pt x="450" y="517" on="1"/>
        <pt x="620" y="517" on="1"/>
        <pt x="620" y="497" on="1"/>
        <pt x="550" y="487" on="1"/>
        <pt x="550" y="-253" on="1"/>
        <pt x="620" y="-263" on="1"/>
        <pt x="620" y="-283" on="1"/>
        <pt x="331" y="-283" on="1"/>
        <pt x="331" y="-263" on="1"/>
        <pt x="450" y="-253" on="1"/>
      </contour>
      <contour>
        <pt x="152" y="208" on="1"/>
        <pt x="152" y="166" on="0"/>
        <pt x="166" y="95" on="0"/>
        <pt x="199" y="44" on="0"/>
        <pt x="252" y="15" on="0"/>
        <pt x="291" y="15" on="1"/>
        <pt x="325" y="15" on="0"/>
        <pt x="382" y="45" on="0"/>
        <pt x="424" y="96" on="0"/>
        <pt x="449" y="163" on="0"/>
        <pt x="450" y="200" on="1"/>
        <pt x="450" y="315" on="1"/>
        <pt x="449" y="352" on="0"/>
        <pt x="424" y="420" on="0"/>
        <pt x="382" y="472" on="0"/>
        <pt x="325" y="502" on="0"/>
        <pt x="291" y="502" on="1"/>
        <pt x="252" y="502" on="0"/>
        <pt x="199" y="473" on="0"/>
        <pt x="166" y="422" on="0"/>
        <pt x="152" y="350" on="0"/>
        <pt x="152" y="308" on="1"/>
      </contour>
    </TTGlyph>
    <TTGlyph name="question" xMin="33" yMin="-10" xMax="483" yMax="820">
      <contour>
        <pt x="174" y="50" on="1"/>
        <pt x="174" y="75" on="0"/>
        <pt x="208" y="108" on="0"/>
        <pt x="233" y="108" on="1"/>
        <pt x="258" y="108" on="0"/>
        <pt x="292" y="75" on="0"/>
        <pt x="292" y="50" on="1"/>
        <pt x="292" y="25" on="0"/>
        <pt x="258" y="-10" on="0"/>
        <pt x="233" y="-10" on="1"/>
        <pt x="208" y="-10" on="0"/>
        <pt x="174" y="25" on="0"/>
      </contour>
      <contour>
        <pt x="222" y="165" on="1"/>
        <pt x="222" y="218" on="0"/>
        <pt x="243" y="303" on="0"/>
        <pt x="273" y="376" on="0"/>
        <pt x="310" y="441" on="0"/>
        <pt x="340" y="506" on="0"/>
        <pt x="361" y="575" on="0"/>
        <pt x="361" y="616" on="1"/>
        <pt x="361" y="671" on="0"/>
        <pt x="344" y="742" on="0"/>
        <pt x="314" y="782" on="0"/>
        <pt x="274" y="798" on="0"/>
        <pt x="251" y="798" on="1"/>
        <pt x="228" y="798" on="0"/>
        <pt x="183" y="785" on="0"/>
        <pt x="149" y="761" on="0"/>
        <pt x="128" y="726" on="0"/>
        <pt x="128" y="705" on="1"/>
        <pt x="128" y="680" on="0"/>
        <pt x="152" y="642" on="0"/>
        <pt x="178" y="629" on="1"/>
        <pt x="178" y="591" on="0"/>
        <pt x="134" y="557" on="0"/>
        <pt x="108" y="557" on="1"/>
        <pt x="79" y="557" on="0"/>
        <pt x="33" y="600" on="0"/>
        <pt x="33" y="641" on="1"/>
        <pt x="33" y="681" on="0"/>
        <pt x="72" y="747" on="0"/>
        <pt x="136" y="794" on="0"/>
        <pt x="221" y="820" on="0"/>
        <pt x="267" y="820" on="1"/>
        <pt x="318" y="820" on="0"/>
        <pt x="399" y="800" on="0"/>
        <pt x="454" y="754" on="0"/>
        <pt x="483" y="678" on="0"/>
        <pt x="483" y="623" on="1"/>
        <pt x="483" y="576" on="0"/>
        <pt x="448" y="500" on="0"/>
        <pt x="394" y="434" on="0"/>
        <pt x="333" y="371" on="0"/>
        <pt x="279" y="300" on="0"/>
        <pt x="244" y="218" on="0"/>
        <pt x="244" y="165" on="1"/>
      </contour>
    </TTGlyph>
    <TTGlyph name="questiondown" xMin="36" yMin="-303" xMax="486" yMax="526">
      <component glyphName="question" x="519" y="517" scale="-0.999938964844" flags="0x4"/>
    </TTGlyph>
    <TTGlyph name="quotedbl" xMin="43" yMin="565" xMax="229" yMax="810">
      <contour>
        <pt x="72" y="565" on="1"/>
        <pt x="68" y="610" on="0"/>
        <pt x="58" y="673" on="0"/>
        <pt x="49" y="720" on="0"/>
        <pt x="43" y="754" on="0"/>
        <pt x="43" y="770" on="1"/>
        <pt x="43" y="785" on="0"/>
        <pt x="62" y="810" on="0"/>
        <pt x="81" y="810" on="1"/>
        <pt x="99" y="810" on="0"/>
        <pt x="118" y="785" on="0"/>
        <pt x="118" y="770" on="1"/>
        <pt x="118" y="754" on="0"/>
        <pt x="112" y="720" on="0"/>
        <pt x="103" y="673" on="0"/>
        <pt x="93" y="610" on="0"/>
        <pt x="89" y="565" on="1"/>
      </contour>
      <contour>
        <pt x="184" y="565" on="1"/>
        <pt x="180" y="610" on="0"/>
        <pt x="170" y="673" on="0"/>
        <pt x="161" y="720" on="0"/>
        <pt x="154" y="754" on="0"/>
        <pt x="154" y="770" on="1"/>
        <pt x="154" y="785" on="0"/>
        <pt x="173" y="810" on="0"/>
        <pt x="192" y="810" on="1"/>
        <pt x="211" y="810" on="0"/>
        <pt x="229" y="785" on="0"/>
        <pt x="229" y="770" on="1"/>
        <pt x="229" y="754" on="0"/>
        <pt x="223" y="720" on="0"/>
        <pt x="214" y="673" on="0"/>
        <pt x="204" y="610" on="0"/>
        <pt x="200" y="565" on="1"/>
      </contour>
    </TTGlyph>
    <TTGlyph name="quotedblbase" xMin="48" yMin="-162" xMax="357" yMax="108">
      <contour>
        <pt x="49" y="-146" on="1"/>
        <pt x="62" y="-138" on="0"/>
        <pt x="90" y="-113" on="0"/>
        <pt x="113" y="-83" on="0"/>
        <pt x="128" y="-48" on="0"/>
        <pt x="128" y="-30" on="1"/>
        <pt x="128" y="-10" on="0"/>
        <pt x="108" y="-10" on="1"/>
        <pt x="83" y="-10" on="0"/>
        <pt x="48" y="25" on="0"/>
        <pt x="48" y="50" on="1"/>
        <pt x="48" y="75" on="0"/>
        <pt x="83" y="108" on="0"/>
        <pt x="108" y="108" on="1"/>
        <pt x="144" y="108" on="0"/>
        <pt x="184" y="57" on="0"/>
        <pt x="184" y="16" on="1"/>
        <pt x="184" y="-39" on="0"/>
        <pt x="125" y="-130" on="0"/>
        <pt x="60" y="-162" on="1"/>
      </contour>
      <contour>
        <pt x="222" y="-146" on="1"/>
        <pt x="235" y="-138" on="0"/>
        <pt x="263" y="-113" on="0"/>
        <pt x="286" y="-83" on="0"/>
        <pt x="301" y="-48" on="0"/>
        <pt x="301" y="-30" on="1"/>
        <pt x="301" y="-10" on="0"/>
        <pt x="281" y="-10" on="1"/>
        <pt x="256" y="-10" on="0"/>
        <pt x="221" y="25" on="0"/>
        <pt x="221" y="50" on="1"/>
        <pt x="221" y="75" on="0"/>
        <pt x="256" y="108" on="0"/>
        <pt x="281" y="108" on="1"/>
        <pt x="317" y="108" on="0"/>
        <pt x="357" y="57" on="0"/>
        <pt x="357" y="16" on="1"/>
        <pt x="357" y="-39" on="0"/>
        <pt x="298" y="-130" on="0"/>
        <pt x="233" y="-162" on="1"/>
      </contour>
      <contour>
        <pt x="233" y="-162" on="1"/>
        <pt x="357" y="-101" on="0"/>
        <pt x="357" y="16" on="1"/>
        <pt x="357" y="58" on="0"/>
        <pt x="316" y="108" on="0"/>
        <pt x="281" y="108" on="1"/>
        <pt x="256" y="108" on="0"/>
        <pt x="221" y="75" on="0"/>
        <pt x="221" y="50" on="1"/>
        <pt x="221" y="25" on="0"/>
        <pt x="256" y="-10" on="0"/>
        <pt x="281" y="-10" on="1"/>
        <pt x="301" y="-10" on="0"/>
        <pt x="301" y="-30" on="1"/>
        <pt x="301" y="-47" on="0"/>
        <pt x="288" y="-80" on="0"/>
        <pt x="265" y="-111" on="0"/>
        <pt x="237" y="-137" on="0"/>
        <pt x="222" y="-146" on="1"/>
      </contour>
      <contour>
        <pt x="60" y="-162" on="1"/>
        <pt x="184" y="-101" on="0"/>
        <pt x="184" y="16" on="1"/>
        <pt x="184" y="58" on="0"/>
        <pt x="143" y="108" on="0"/>
        <pt x="108" y="108" on="1"/>
        <pt x="83" y="108" on="0"/>
        <pt x="48" y="75" on="0"/>
        <pt x="48" y="50" on="1"/>
        <pt x="48" y="25" on="0"/>
        <pt x="83" y="-10" on="0"/>
        <pt x="108" y="-10" on="1"/>
        <pt x="128" y="-10" on="0"/>
        <pt x="128" y="-30" on="1"/>
        <pt x="128" y="-47" on="0"/>
        <pt x="115" y="-80" on="0"/>
        <pt x="92" y="-111" on="0"/>
        <pt x="64" y="-137" on="0"/>
        <pt x="49" y="-146" on="1"/>
      </contour>
    </TTGlyph>
    <TTGlyph name="quotedblleft" xMin="40" yMin="539" xMax="349" yMax="809">
      <contour>
        <pt x="175" y="793" on="1"/>
        <pt x="162" y="785" on="0"/>
        <pt x="134" y="760" on="0"/>
        <pt x="111" y="730" on="0"/>
        <pt x="96" y="695" on="0"/>
        <pt x="96" y="677" on="1"/>
        <pt x="96" y="657" on="0"/>
        <pt x="116" y="657" on="1"/>
        <pt x="141" y="657" on="0"/>
        <pt x="176" y="622" on="0"/>
        <pt x="176" y="597" on="1"/>
        <pt x="176" y="572" on="0"/>
        <pt x="141" y="539" on="0"/>
        <pt x="116" y="539" on="1"/>
        <pt x="80" y="539" on="0"/>
        <pt x="40" y="590" on="0"/>
        <pt x="40" y="631" on="1"/>
        <pt x="40" y="686" on="0"/>
        <pt x="99" y="777" on="0"/>
        <pt x="164" y="809" on="1"/>
      </contour>
      <contour>
        <pt x="348" y="793" on="1"/>
        <pt x="335" y="785" on="0"/>
        <pt x="307" y="760" on="0"/>
        <pt x="284" y="730" on="0"/>
        <pt x="269" y="695" on="0"/>
        <pt x="269" y="677" on="1"/>
        <pt x="269" y="657" on="0"/>
        <pt x="289" y="657" on="1"/>
        <pt x="314" y="657" on="0"/>
        <pt x="349" y="622" on="0"/>
        <pt x="349" y="597" on="1"/>
        <pt x="349" y="572" on="0"/>
        <pt x="314" y="539" on="0"/>
        <pt x="289" y="539" on="1"/>
        <pt x="253" y="539" on="0"/>
        <pt x="213" y="590" on="0"/>
        <pt x="213" y="631" on="1"/>
        <pt x="213" y="686" on="0"/>
        <pt x="272" y="777" on="0"/>
        <pt x="337" y="809" on="1"/>
      </contour>
    </TTGlyph>
    <TTGlyph name="quotedblright" xMin="49" yMin="539" xMax="358" yMax="809">
      <contour>
        <pt x="50" y="555" on="1"/>
        <pt x="63" y="563" on="0"/>
        <pt x="91" y="588" on="0"/>
        <pt x="114" y="618" on="0"/>
        <pt x="129" y="653" on="0"/>
        <pt x="129" y="671" on="1"/>
        <pt x="129" y="691" on="0"/>
        <pt x="109" y="691" on="1"/>
        <pt x="84" y="691" on="0"/>
        <pt x="49" y="726" on="0"/>
        <pt x="49" y="751" on="1"/>
        <pt x="49" y="776" on="0"/>
        <pt x="84" y="809" on="0"/>
        <pt x="109" y="809" on="1"/>
        <pt x="145" y="809" on="0"/>
        <pt x="185" y="758" on="0"/>
        <pt x="185" y="717" on="1"/>
        <pt x="185" y="662" on="0"/>
        <pt x="126" y="571" on="0"/>
        <pt x="61" y="539" on="1"/>
      </contour>
      <contour>
        <pt x="223" y="555" on="1"/>
        <pt x="236" y="563" on="0"/>
        <pt x="264" y="588" on="0"/>
        <pt x="287" y="618" on="0"/>
        <pt x="302" y="653" on="0"/>
        <pt x="302" y="671" on="1"/>
        <pt x="302" y="691" on="0"/>
        <pt x="282" y="691" on="1"/>
        <pt x="257" y="691" on="0"/>
        <pt x="222" y="726" on="0"/>
        <pt x="222" y="751" on="1"/>
        <pt x="222" y="776" on="0"/>
        <pt x="257" y="809" on="0"/>
        <pt x="282" y="809" on="1"/>
        <pt x="318" y="809" on="0"/>
        <pt x="358" y="758" on="0"/>
        <pt x="358" y="717" on="1"/>
        <pt x="358" y="662" on="0"/>
        <pt x="299" y="571" on="0"/>
        <pt x="234" y="539" on="1"/>
      </contour>
    </TTGlyph>
    <TTGlyph name="quoteleft" xMin="40" yMin="539" xMax="176" yMax="809">
      <contour>
        <pt x="175" y="793" on="1"/>
        <pt x="162" y="785" on="0"/>
        <pt x="134" y="760" on="0"/>
        <pt x="111" y="730" on="0"/>
        <pt x="96" y="695" on="0"/>
        <pt x="96" y="677" on="1"/>
        <pt x="96" y="657" on="0"/>
        <pt x="116" y="657" on="1"/>
        <pt x="141" y="657" on="0"/>
        <pt x="176" y="622" on="0"/>
        <pt x="176" y="597" on="1"/>
        <pt x="176" y="572" on="0"/>
        <pt x="141" y="539" on="0"/>
        <pt x="116" y="539" on="1"/>
        <pt x="80" y="539" on="0"/>
        <pt x="40" y="590" on="0"/>
        <pt x="40" y="631" on="1"/>
        <pt x="40" y="686" on="0"/>
        <pt x="99" y="777" on="0"/>
        <pt x="164" y="809" on="1"/>
      </contour>
    </TTGlyph>
    <TTGlyph name="quoteright" xMin="49" yMin="539" xMax="185" yMax="809">
      <contour>
        <pt x="50" y="555" on="1"/>
        <pt x="63" y="563" on="0"/>
        <pt x="91" y="588" on="0"/>
        <pt x="114" y="618" on="0"/>
        <pt x="129" y="653" on="0"/>
        <pt x="129" y="671" on="1"/>
        <pt x="129" y="691" on="0"/>
        <pt x="109" y="691" on="1"/>
        <pt x="84" y="691" on="0"/>
        <pt x="49" y="726" on="0"/>
        <pt x="49" y="751" on="1"/>
        <pt x="49" y="776" on="0"/>
        <pt x="84" y="809" on="0"/>
        <pt x="109" y="809" on="1"/>
        <pt x="145" y="809" on="0"/>
        <pt x="185" y="758" on="0"/>
        <pt x="185" y="717" on="1"/>
        <pt x="185" y="662" on="0"/>
        <pt x="126" y="571" on="0"/>
        <pt x="61" y="539" on="1"/>
      </contour>
    </TTGlyph>
</ttFont>
